<svg xmlns="http://www.w3.org/2000/svg" xmlns:xlink="http://www.w3.org/1999/xlink" width="500" zoomAndPan="magnify" viewBox="0 0 375 374.999991" height="500" preserveAspectRatio="xMidYMid meet" version="1.0"><defs><g/><clipPath id="cde7abf3bb"><path d="M 147.3125 159.101562 L 179.527344 159.101562 L 179.527344 222.691406 L 147.3125 222.691406 Z M 147.3125 159.101562 " clip-rule="nonzero"/></clipPath><clipPath id="d366676568"><path d="M 179.464844 99.101562 L 210.851562 99.101562 L 210.851562 162.851562 L 179.464844 162.851562 Z M 179.464844 99.101562 " clip-rule="nonzero"/></clipPath></defs><g fill="#000000" fill-opacity="1"><g transform="translate(121.057336, 160.345645)"><g><path d="M 43.21875 0 L 1.765625 0 L 38.734375 -58.453125 L 21.90625 -58.453125 C 18.519531 -58.453125 15.507812 -58.128906 12.875 -57.484375 C 10.238281 -56.835938 8.171875 -55.976562 6.671875 -54.90625 C 5.171875 -53.84375 4.421875 -52.644531 4.421875 -51.3125 L 4.421875 -51.078125 L 3.84375 -51.078125 L 3.84375 -59.046875 L 44.8125 -59.046875 L 7.859375 -0.59375 L 16.296875 -0.59375 C 17.242188 -0.59375 18.53125 -0.617188 20.15625 -0.671875 C 21.789062 -0.734375 23.601562 -0.863281 25.59375 -1.0625 C 27.582031 -1.257812 29.570312 -1.5625 31.5625 -1.96875 C 33.550781 -2.382812 35.378906 -2.925781 37.046875 -3.59375 C 38.722656 -4.269531 40.070312 -5.109375 41.09375 -6.109375 C 42.113281 -7.109375 42.625 -8.320312 42.625 -9.75 L 43.21875 -9.75 Z M 43.21875 0 "/></g></g></g><g fill="#000000" fill-opacity="1"><g transform="translate(189.456951, 220.345634)"><g><path d="M 1.765625 -59.046875 L 12.109375 -59.046875 L 45.171875 -8.625 L 45.171875 -34.359375 C 45.171875 -40.109375 44.695312 -44.742188 43.75 -48.265625 C 42.8125 -51.796875 41.582031 -54.375 40.0625 -56 C 38.550781 -57.632812 36.945312 -58.453125 35.25 -58.453125 L 35.25 -59.046875 L 51.1875 -59.046875 L 51.1875 -58.453125 C 49.5 -58.453125 48.269531 -57.941406 47.5 -56.921875 C 46.738281 -55.898438 46.257812 -54.238281 46.0625 -51.9375 C 45.863281 -49.632812 45.765625 -46.53125 45.765625 -42.625 L 45.765625 1.1875 L 45.171875 1.1875 L 7.796875 -55.734375 L 7.796875 -24.6875 C 7.796875 -18.976562 8.265625 -14.347656 9.203125 -10.796875 C 10.148438 -7.253906 11.378906 -4.664062 12.890625 -3.03125 C 14.410156 -1.40625 16.019531 -0.59375 17.71875 -0.59375 L 17.71875 0 L 1.765625 0 L 1.765625 -0.59375 C 3.460938 -0.59375 4.691406 -1.101562 5.453125 -2.125 C 6.222656 -3.144531 6.707031 -4.816406 6.90625 -7.140625 C 7.101562 -9.460938 7.203125 -12.554688 7.203125 -16.421875 L 7.203125 -42.625 C 7.203125 -46.53125 7.101562 -49.632812 6.90625 -51.9375 C 6.707031 -54.238281 6.222656 -55.898438 5.453125 -56.921875 C 4.691406 -57.941406 3.460938 -58.453125 1.765625 -58.453125 Z M 1.765625 -59.046875 "/></g></g></g><path stroke-linecap="butt" transform="matrix(0, -0.75, 0.75, 0, 178.560725, 222.500405)" fill="none" stroke-linejoin="miter" d="M 0.000539452 1.002367 L 160.00055 1.002367 " stroke="#000000" stroke-width="2" stroke-opacity="1" stroke-miterlimit="4"/><g clip-path="url(#cde7abf3bb)"><path fill="#100f0d" d="M 196.722656 200.8125 C 197 200.8125 197.222656 200.585938 197.222656 200.308594 C 197.222656 200.027344 197 199.804688 196.722656 199.804688 C 196.445312 199.804688 196.222656 200.027344 196.222656 200.308594 C 196.222656 200.585938 196.445312 200.8125 196.722656 200.8125 Z M 199.847656 198.25 C 200.125 198.25 200.347656 198.023438 200.347656 197.746094 C 200.347656 197.46875 200.125 197.242188 199.847656 197.242188 C 199.570312 197.242188 199.347656 197.46875 199.347656 197.746094 C 199.347656 198.023438 199.570312 198.25 199.847656 198.25 Z M 199.59375 190.339844 C 199.316406 190.339844 199.09375 190.566406 199.09375 190.84375 C 199.09375 191.121094 199.316406 191.347656 199.59375 191.347656 C 199.871094 191.347656 200.09375 191.121094 200.09375 190.84375 C 200.09375 190.566406 199.871094 190.339844 199.59375 190.339844 Z M 197.222656 171.511719 C 197.5 171.511719 197.726562 171.285156 197.726562 171.007812 C 197.726562 170.730469 197.5 170.503906 197.222656 170.503906 C 196.949219 170.503906 196.722656 170.730469 196.722656 171.007812 C 196.722656 171.285156 196.949219 171.511719 197.222656 171.511719 Z M 198.253906 183.582031 C 197.976562 183.582031 197.753906 183.804688 197.753906 184.085938 C 197.753906 184.363281 197.976562 184.589844 198.253906 184.589844 C 198.53125 184.589844 198.753906 184.363281 198.753906 184.085938 C 198.753906 183.804688 198.53125 183.582031 198.253906 183.582031 Z M 201.738281 185.640625 C 201.464844 185.640625 201.238281 185.867188 201.238281 186.148438 C 201.238281 186.425781 201.464844 186.652344 201.738281 186.652344 C 202.015625 186.652344 202.242188 186.425781 202.242188 186.148438 C 202.242188 185.867188 202.015625 185.640625 201.738281 185.640625 Z M 198.046875 218.199219 C 197.953125 218.648438 197.675781 219.03125 197.222656 219.03125 C 196.765625 219.03125 196.398438 218.65625 196.398438 218.199219 C 196.398438 217.742188 196.765625 217.367188 197.222656 217.367188 C 197.222656 217.367188 196.164062 217.148438 196.050781 218.28125 C 195.984375 218.960938 196.792969 219.167969 197.226562 219.167969 C 197.660156 219.167969 199.191406 219.078125 198.859375 216.324219 C 198.449219 212.960938 195.066406 207.25 179.199219 196.9375 C 180.21875 197.605469 199.617188 210.417969 198.046875 218.199219 Z M 179.15625 214.574219 L 179.15625 215.695312 C 182.308594 215.695312 183.167969 208.179688 179.15625 196.910156 C 184.355469 214.863281 179.15625 214.574219 179.15625 214.574219 Z M 179.167969 196.917969 C 179.179688 196.925781 179.1875 196.933594 179.199219 196.9375 C 179.1875 196.929688 179.175781 196.921875 179.167969 196.917969 C 179.160156 196.914062 179.15625 196.910156 179.15625 196.910156 C 179.15625 196.910156 179.261719 197 179.449219 197.160156 C 179.300781 197.027344 179.203125 196.941406 179.167969 196.917969 Z M 186.277344 207.71875 C 183.867188 210.097656 180.597656 201.542969 180.597656 201.542969 C 180.597656 201.542969 183.457031 211.011719 186.71875 208.660156 C 189.824219 206.421875 181.167969 198.65625 179.449219 197.160156 C 181.023438 198.582031 188.367188 205.65625 186.277344 207.71875 Z M 179.871094 158.660156 C 179.429688 158.335938 179.167969 158.191406 179.167969 158.191406 C 179.40625 158.34375 179.640625 158.503906 179.871094 158.660156 Z M 210.636719 177.660156 C 199.84375 178.53125 188.992188 184.351562 186.609375 185.699219 C 186.542969 186.273438 186.445312 186.828125 186.324219 187.355469 C 191.929688 184.855469 195.664062 184.855469 195.664062 184.855469 C 191.957031 185.589844 187.539062 187.679688 186.027344 188.460938 C 185.707031 189.480469 185.292969 190.394531 184.832031 191.214844 C 194.882812 188.625 200.347656 186.429688 200.347656 186.429688 C 195.746094 189.410156 185.097656 192.15625 183.960938 192.578125 C 183.375 193.394531 182.75 194.085938 182.15625 194.664062 C 192.839844 194.242188 197.097656 192.765625 197.097656 192.765625 C 191.984375 195.804688 181.507812 195.730469 180.9375 195.726562 C 180.21875 196.289062 179.636719 196.644531 179.355469 196.808594 L 179.878906 196.5625 C 179.878906 196.5625 181.222656 196.179688 185.941406 196.261719 C 190.53125 196.339844 195.53125 195.28125 200.710938 192.851562 C 210.71875 188.160156 210.636719 177.660156 210.636719 177.660156 Z M 190.792969 176.863281 C 191.976562 174.988281 193.660156 173.789062 193.660156 173.789062 C 192.359375 175.101562 191.472656 176.847656 190.976562 178.011719 C 191.226562 179.738281 191.285156 181.074219 191.296875 181.773438 C 192.933594 178.230469 196.222656 173.066406 196.222656 173.066406 C 195.035156 177.121094 193.503906 180.265625 192.78125 181.644531 C 193.445312 181.371094 194.15625 181.09375 194.914062 180.816406 C 196.566406 178.148438 196.972656 175.398438 196.972656 175.398438 C 197.03125 177.757812 196.464844 179.503906 196.082031 180.40625 C 196.980469 180.101562 197.933594 179.796875 198.945312 179.507812 L 198.839844 179.535156 C 202.082031 172.644531 199.390625 165.792969 199.390625 165.792969 C 194.460938 167.4375 191.003906 171.992188 190.003906 173.4375 C 190.351562 174.65625 190.605469 175.8125 190.792969 176.863281 Z M 179.152344 196.898438 C 179.152344 196.898438 179.152344 196.898438 179.148438 196.898438 C 179.148438 196.898438 179.148438 196.898438 179.144531 196.898438 L 179.148438 196.902344 Z M 178.945312 196.808594 C 178.660156 196.644531 178.078125 196.289062 177.359375 195.726562 C 176.792969 195.730469 166.316406 195.804688 161.203125 192.765625 C 161.203125 192.765625 165.457031 194.242188 176.144531 194.664062 C 175.546875 194.085938 174.925781 193.394531 174.335938 192.578125 C 173.203125 192.15625 162.550781 189.410156 157.953125 186.429688 C 157.953125 186.429688 163.414062 188.625 173.46875 191.214844 C 173.003906 190.394531 172.589844 189.480469 172.269531 188.460938 C 170.757812 187.679688 166.34375 185.589844 162.632812 184.855469 C 162.632812 184.855469 166.371094 184.855469 171.972656 187.355469 C 171.851562 186.828125 171.753906 186.273438 171.6875 185.699219 C 169.304688 184.351562 158.453125 178.53125 147.664062 177.660156 C 147.664062 177.660156 147.582031 188.160156 157.589844 192.851562 C 162.765625 195.28125 167.769531 196.339844 172.355469 196.261719 C 177.078125 196.179688 178.417969 196.5625 178.417969 196.5625 Z M 159.457031 179.535156 L 159.351562 179.507812 C 160.363281 179.796875 161.316406 180.101562 162.214844 180.40625 C 161.832031 179.503906 161.265625 177.757812 161.328125 175.398438 C 161.328125 175.398438 161.734375 178.148438 163.382812 180.816406 C 164.144531 181.09375 164.855469 181.371094 165.519531 181.644531 C 164.792969 180.265625 163.265625 177.121094 162.074219 173.066406 C 162.074219 173.066406 165.367188 178.230469 167.003906 181.773438 C 167.015625 181.074219 167.074219 179.738281 167.320312 178.011719 C 166.828125 176.847656 165.9375 175.101562 164.640625 173.789062 C 164.640625 173.789062 166.320312 174.988281 167.503906 176.863281 C 167.691406 175.8125 167.945312 174.65625 168.292969 173.4375 C 167.296875 171.992188 163.835938 167.4375 158.910156 165.792969 C 158.910156 165.792969 156.214844 172.644531 159.457031 179.535156 Z M 195.207031 202.6875 C 185.175781 201.535156 184.886719 198.355469 179.15625 196.910156 C 183.75 197.398438 185.882812 200.679688 195.394531 201.777344 C 204.082031 202.78125 209.507812 199.472656 209.507812 199.472656 C 207.789062 195.835938 203.1875 194.367188 201.488281 193.9375 C 198.136719 195.757812 194.484375 196.4375 191.039062 196.667969 C 192.230469 197.082031 194.375 197.746094 196.453125 197.996094 C 196.453125 197.996094 191.632812 197.675781 189.027344 196.757812 C 187.585938 196.792969 186.203125 196.769531 184.914062 196.746094 C 185.5 196.996094 186.601562 197.484375 187.386719 197.933594 C 188.503906 198.578125 191.65625 199.742188 193.652344 199.800781 C 193.863281 199.808594 189.375 199.773438 186.71875 198.25 C 185.097656 197.320312 183.945312 196.902344 183.292969 196.714844 C 181.679688 196.695312 180.273438 196.714844 179.171875 196.90625 C 179.171875 196.90625 179.167969 196.910156 179.167969 196.910156 C 179.167969 196.910156 179.171875 196.90625 179.171875 196.90625 C 179.167969 196.90625 179.167969 196.90625 179.164062 196.90625 C 179.164062 196.910156 179.164062 196.910156 179.167969 196.910156 C 179.167969 196.910156 179.164062 196.910156 179.164062 196.90625 L 179.167969 196.910156 L 179.132812 196.910156 L 179.136719 196.90625 C 179.136719 196.90625 179.132812 196.90625 179.132812 196.90625 C 179.132812 196.910156 179.132812 196.910156 179.132812 196.910156 C 179.132812 196.910156 179.132812 196.910156 179.132812 196.90625 C 179.132812 196.90625 179.128906 196.90625 179.128906 196.90625 C 179.128906 196.90625 179.132812 196.910156 179.132812 196.910156 C 179.132812 196.910156 179.128906 196.90625 179.128906 196.90625 C 178.027344 196.714844 176.617188 196.695312 175.003906 196.714844 C 174.351562 196.902344 173.203125 197.320312 171.582031 198.25 C 168.925781 199.773438 164.4375 199.808594 164.644531 199.800781 C 166.640625 199.742188 169.792969 198.578125 170.914062 197.933594 C 171.699219 197.484375 172.796875 196.996094 173.386719 196.746094 C 172.097656 196.769531 170.710938 196.792969 169.273438 196.757812 C 166.664062 197.675781 161.84375 197.996094 161.84375 197.996094 C 163.921875 197.746094 166.066406 197.082031 167.261719 196.667969 C 163.8125 196.4375 160.160156 195.757812 156.808594 193.9375 C 155.109375 194.367188 150.507812 195.835938 148.789062 199.472656 C 148.789062 199.472656 154.21875 202.78125 162.902344 201.777344 C 172.417969 200.679688 174.546875 197.398438 179.144531 196.910156 C 173.410156 198.355469 173.125 201.535156 163.089844 202.6875 C 153.933594 203.742188 148.46875 199.511719 148.46875 199.511719 C 150.1875 194.886719 155.921875 193.441406 156.324219 193.664062 C 155.898438 193.417969 155.476562 193.152344 155.0625 192.863281 C 146.75 187.082031 147.320312 177.257812 147.320312 177.257812 C 151.46875 177.644531 155.160156 178.371094 158.339844 179.226562 L 158.101562 179.160156 C 158.101562 179.160156 155.347656 172.921875 158.789062 165.410156 C 158.789062 165.410156 165.007812 167.507812 168.644531 172.289062 C 170.140625 167.679688 172.996094 162.421875 178.429688 158.660156 C 176.175781 160.320312 169.222656 166.699219 168.105469 182.789062 C 169.898438 183.644531 171.085938 184.347656 171.601562 184.671875 C 171.585938 184.402344 171.582031 184.125 171.582031 183.847656 C 171.582031 174.371094 176.550781 170.539062 179.132812 169.09375 C 179.132812 169.09375 172.488281 173.0625 172.488281 184.027344 C 172.488281 192.566406 178.082031 196.28125 179 196.832031 L 179.144531 196.898438 C 179.148438 196.898438 179.148438 196.898438 179.148438 196.894531 C 179.132812 196.886719 179.109375 196.867188 179.074219 196.839844 C 179.101562 196.859375 179.125 196.875 179.148438 196.894531 C 179.175781 196.875 179.199219 196.859375 179.222656 196.839844 C 179.1875 196.867188 179.164062 196.886719 179.148438 196.894531 C 179.152344 196.898438 179.152344 196.898438 179.152344 196.898438 L 179.296875 196.832031 C 180.21875 196.28125 185.808594 192.566406 185.808594 184.027344 C 185.808594 173.0625 179.167969 169.09375 179.167969 169.09375 C 181.746094 170.539062 186.71875 174.371094 186.71875 183.847656 C 186.71875 184.125 186.710938 184.402344 186.699219 184.671875 C 187.214844 184.347656 188.398438 183.644531 190.195312 182.789062 C 189.078125 166.699219 182.121094 160.320312 179.871094 158.660156 C 185.304688 162.421875 188.160156 167.679688 189.65625 172.289062 C 193.289062 167.507812 199.507812 165.410156 199.507812 165.410156 C 202.949219 172.921875 200.195312 179.160156 200.195312 179.160156 L 199.960938 179.226562 C 203.140625 178.371094 206.828125 177.644531 210.976562 177.257812 C 210.976562 177.257812 211.550781 187.082031 203.234375 192.863281 C 202.820312 193.152344 202.402344 193.417969 201.976562 193.664062 C 202.375 193.441406 208.109375 194.886719 209.832031 199.511719 C 209.832031 199.511719 204.363281 203.742188 195.207031 202.6875 Z M 179.5 217.605469 C 179.5 217.328125 179.277344 217.101562 179 217.101562 C 178.722656 217.101562 178.5 217.328125 178.5 217.605469 C 178.5 217.886719 178.722656 218.109375 179 218.109375 C 179.277344 218.109375 179.5 217.886719 179.5 217.605469 Z M 197.726562 220.347656 C 197.449219 220.347656 197.222656 220.574219 197.222656 220.855469 C 197.222656 221.132812 197.449219 221.359375 197.726562 221.359375 C 198 221.359375 198.226562 221.132812 198.226562 220.855469 C 198.226562 220.574219 198 220.347656 197.726562 220.347656 Z M 161.320312 220.347656 C 161.046875 220.347656 160.820312 220.574219 160.820312 220.855469 C 160.820312 221.132812 161.046875 221.359375 161.320312 221.359375 C 161.597656 221.359375 161.824219 221.132812 161.824219 220.855469 C 161.824219 220.574219 161.597656 220.347656 161.320312 220.347656 Z M 161.574219 199.804688 C 161.296875 199.804688 161.074219 200.027344 161.074219 200.308594 C 161.074219 200.585938 161.296875 200.8125 161.574219 200.8125 C 161.851562 200.8125 162.074219 200.585938 162.074219 200.308594 C 162.074219 200.027344 161.851562 199.804688 161.574219 199.804688 Z M 158.453125 197.242188 C 158.175781 197.242188 157.953125 197.46875 157.953125 197.746094 C 157.953125 198.023438 158.175781 198.25 158.453125 198.25 C 158.730469 198.25 158.953125 198.023438 158.953125 197.746094 C 158.953125 197.46875 158.730469 197.242188 158.453125 197.242188 Z M 158.703125 190.339844 C 158.425781 190.339844 158.203125 190.566406 158.203125 190.84375 C 158.203125 191.121094 158.425781 191.347656 158.703125 191.347656 C 158.980469 191.347656 159.203125 191.121094 159.203125 190.84375 C 159.203125 190.566406 158.980469 190.339844 158.703125 190.339844 Z M 161.074219 171.511719 C 161.351562 171.511719 161.574219 171.285156 161.574219 171.007812 C 161.574219 170.730469 161.351562 170.503906 161.074219 170.503906 C 160.796875 170.503906 160.574219 170.730469 160.574219 171.007812 C 160.574219 171.285156 160.796875 171.511719 161.074219 171.511719 Z M 178.648438 174.894531 C 178.648438 175.175781 178.871094 175.398438 179.148438 175.398438 C 179.425781 175.398438 179.648438 175.175781 179.648438 174.894531 C 179.648438 174.617188 179.425781 174.390625 179.148438 174.390625 C 178.871094 174.390625 178.648438 174.617188 178.648438 174.894531 Z M 183.410156 180.335938 C 183.410156 180.054688 183.183594 179.828125 182.910156 179.828125 C 182.632812 179.828125 182.40625 180.054688 182.40625 180.335938 C 182.40625 180.613281 182.632812 180.839844 182.910156 180.839844 C 183.183594 180.839844 183.410156 180.613281 183.410156 180.335938 Z M 174.386719 180.335938 C 174.386719 180.613281 174.609375 180.839844 174.886719 180.839844 C 175.164062 180.839844 175.386719 180.613281 175.386719 180.335938 C 175.386719 180.054688 175.164062 179.828125 174.886719 179.828125 C 174.609375 179.828125 174.386719 180.054688 174.386719 180.335938 Z M 160.007812 184.589844 C 160.285156 184.589844 160.507812 184.363281 160.507812 184.085938 C 160.507812 183.804688 160.285156 183.582031 160.007812 183.582031 C 159.730469 183.582031 159.507812 183.804688 159.507812 184.085938 C 159.507812 184.363281 159.730469 184.589844 160.007812 184.589844 Z M 156.558594 185.640625 C 156.28125 185.640625 156.058594 185.867188 156.058594 186.148438 C 156.058594 186.425781 156.28125 186.652344 156.558594 186.652344 C 156.835938 186.652344 157.058594 186.425781 157.058594 186.148438 C 157.058594 185.867188 156.835938 185.640625 156.558594 185.640625 Z M 179 219.882812 C 179.589844 219.882812 180.070312 220.511719 180.070312 221.285156 C 180.070312 222.0625 179.589844 222.691406 179 222.691406 C 179.769531 222.691406 180.394531 222.0625 180.394531 221.285156 C 180.394531 220.511719 179.769531 219.882812 179 219.882812 Z M 177.929688 221.285156 C 177.929688 220.511719 178.410156 219.882812 179 219.882812 C 178.230469 219.882812 177.609375 220.511719 177.609375 221.285156 C 177.609375 222.0625 178.230469 222.691406 179 222.691406 C 178.410156 222.691406 177.929688 222.0625 177.929688 221.285156 Z M 180.351562 163.96875 C 180.351562 164.945312 179.746094 165.738281 179 165.738281 C 179.972656 165.738281 180.757812 164.945312 180.757812 163.96875 C 180.757812 162.988281 179.972656 162.195312 179 162.195312 C 179.746094 162.195312 180.351562 162.988281 180.351562 163.96875 Z M 177.242188 163.96875 C 177.242188 164.945312 178.03125 165.738281 179 165.738281 C 178.253906 165.738281 177.648438 164.945312 177.648438 163.96875 C 177.648438 162.988281 178.253906 162.195312 179 162.195312 C 178.03125 162.195312 177.242188 162.988281 177.242188 163.96875 Z M 175.589844 192.925781 C 173.417969 189.519531 176.074219 187.15625 177.457031 187.4375 C 178.871094 187.726562 179.132812 189.421875 179.132812 189.421875 C 179.132812 189.375 179.128906 189.332031 179.125 189.285156 L 179.167969 189.421875 L 179.3125 188.90625 C 179.503906 188.382812 179.9375 187.621094 180.839844 187.4375 C 182.222656 187.15625 184.878906 189.519531 182.707031 192.925781 C 181.300781 195.128906 179.628906 196.519531 179.222656 196.839844 C 183.902344 193.257812 184.335938 190.863281 184.101562 189.441406 C 184.054688 189.164062 183.984375 188.898438 183.894531 188.652344 C 184.03125 187.582031 184.273438 184.710938 183.398438 182.179688 C 183.398438 182.179688 183.722656 185.101562 183.117188 187.480469 C 182.726562 187.140625 182.234375 186.945312 181.644531 186.945312 C 180.746094 186.941406 179.957031 187.421875 179.523438 188.148438 C 179.523438 185.578125 179.167969 179.253906 179.167969 179.253906 C 178.714844 182.078125 178.777344 188.148438 178.777344 188.148438 C 178.34375 187.425781 177.554688 186.941406 176.652344 186.945312 C 176.050781 186.949219 175.546875 187.152344 175.152344 187.503906 C 174.539062 185.121094 174.867188 182.179688 174.867188 182.179688 C 173.972656 184.769531 174.246094 187.714844 174.378906 188.726562 C 174.300781 188.949219 174.238281 189.1875 174.199219 189.441406 C 173.960938 190.863281 174.394531 193.257812 179.074219 196.839844 C 178.671875 196.519531 177 195.128906 175.589844 192.925781 Z M 179.097656 196.9375 C 179.109375 196.933594 179.121094 196.925781 179.128906 196.917969 C 179.097656 196.941406 179 197.027344 178.851562 197.160156 C 179.039062 197 179.144531 196.910156 179.144531 196.910156 C 179.140625 196.910156 179.136719 196.914062 179.128906 196.917969 C 179.125 196.921875 179.113281 196.929688 179.097656 196.9375 Z M 159.441406 216.324219 C 159.105469 219.078125 160.640625 219.167969 161.074219 219.167969 C 161.503906 219.167969 162.316406 218.960938 162.246094 218.28125 C 162.132812 217.148438 161.078125 217.367188 161.078125 217.367188 C 161.53125 217.367188 161.898438 217.742188 161.898438 218.199219 C 161.898438 218.65625 161.53125 219.03125 161.078125 219.03125 C 160.621094 219.03125 160.34375 218.648438 160.253906 218.199219 C 158.683594 210.417969 178.078125 197.605469 179.097656 196.9375 C 163.234375 207.25 159.851562 212.960938 159.441406 216.324219 Z M 179.144531 215.695312 L 179.144531 214.574219 C 179.144531 214.574219 173.945312 214.863281 179.144531 196.910156 C 175.128906 208.179688 175.988281 215.695312 179.144531 215.695312 Z M 171.582031 208.660156 C 174.839844 211.011719 177.703125 201.542969 177.703125 201.542969 C 177.703125 201.542969 174.433594 210.097656 172.023438 207.71875 C 169.933594 205.65625 177.273438 198.585938 178.851562 197.160156 C 177.128906 198.65625 168.476562 206.421875 171.582031 208.660156 Z M 179.132812 158.191406 C 178.894531 158.34375 178.660156 158.503906 178.429688 158.660156 C 178.871094 158.335938 179.132812 158.191406 179.132812 158.191406 " fill-opacity="1" fill-rule="nonzero"/></g><g clip-path="url(#d366676568)"><path fill="#100f0d" d="M 196.753906 141.226562 C 197.027344 141.226562 197.25 141.003906 197.25 140.730469 C 197.25 140.453125 197.027344 140.230469 196.753906 140.230469 C 196.480469 140.230469 196.261719 140.453125 196.261719 140.730469 C 196.261719 141.003906 196.480469 141.226562 196.753906 141.226562 Z M 199.839844 138.695312 C 200.117188 138.695312 200.335938 138.472656 200.335938 138.195312 C 200.335938 137.921875 200.117188 137.699219 199.839844 137.699219 C 199.570312 137.699219 199.347656 137.921875 199.347656 138.195312 C 199.347656 138.472656 199.570312 138.695312 199.839844 138.695312 Z M 199.59375 130.875 C 199.320312 130.875 199.097656 131.101562 199.097656 131.375 C 199.097656 131.652344 199.320312 131.875 199.59375 131.875 C 199.867188 131.875 200.085938 131.652344 200.085938 131.375 C 200.085938 131.101562 199.867188 130.875 199.59375 130.875 Z M 197.25 112.269531 C 197.523438 112.269531 197.746094 112.046875 197.746094 111.769531 C 197.746094 111.496094 197.523438 111.269531 197.25 111.269531 C 196.976562 111.269531 196.753906 111.496094 196.753906 111.769531 C 196.753906 112.046875 196.976562 112.269531 197.25 112.269531 Z M 198.265625 124.195312 C 197.992188 124.195312 197.773438 124.417969 197.773438 124.695312 C 197.773438 124.96875 197.992188 125.195312 198.265625 125.195312 C 198.539062 125.195312 198.761719 124.96875 198.761719 124.695312 C 198.761719 124.417969 198.539062 124.195312 198.265625 124.195312 Z M 201.714844 126.234375 C 201.441406 126.234375 201.21875 126.457031 201.21875 126.734375 C 201.21875 127.007812 201.441406 127.230469 201.714844 127.230469 C 201.988281 127.230469 202.210938 127.007812 202.210938 126.734375 C 202.210938 126.457031 201.988281 126.234375 201.714844 126.234375 Z M 198.0625 158.414062 C 197.972656 158.855469 197.699219 159.234375 197.246094 159.234375 C 196.796875 159.234375 196.433594 158.867188 196.433594 158.414062 C 196.433594 157.960938 196.796875 157.589844 197.246094 157.589844 C 197.246094 157.589844 196.203125 157.375 196.089844 158.492188 C 196.023438 159.164062 196.824219 159.367188 197.253906 159.367188 C 197.679688 159.367188 199.195312 159.28125 198.863281 156.5625 C 198.460938 153.234375 195.117188 147.589844 179.433594 137.398438 C 180.441406 138.058594 199.613281 150.722656 198.0625 158.414062 Z M 179.390625 154.832031 L 179.390625 155.9375 C 182.507812 155.9375 183.355469 148.511719 179.390625 137.371094 C 184.527344 155.117188 179.390625 154.832031 179.390625 154.832031 Z M 179.402344 137.378906 C 179.414062 137.386719 179.421875 137.390625 179.433594 137.398438 C 179.417969 137.390625 179.410156 137.382812 179.402344 137.378906 C 179.394531 137.375 179.390625 137.371094 179.390625 137.371094 C 179.390625 137.371094 179.492188 137.460938 179.679688 137.617188 C 179.53125 137.488281 179.4375 137.402344 179.402344 137.378906 Z M 186.429688 148.054688 C 184.046875 150.40625 180.8125 141.949219 180.8125 141.949219 C 180.8125 141.949219 183.640625 151.308594 186.867188 148.984375 C 189.933594 146.769531 181.378906 139.097656 179.679688 137.617188 C 181.238281 139.023438 188.496094 146.015625 186.429688 148.054688 Z M 180.09375 99.566406 C 179.660156 99.246094 179.398438 99.101562 179.398438 99.101562 C 179.636719 99.253906 179.867188 99.410156 180.09375 99.566406 Z M 210.507812 118.34375 C 199.839844 119.207031 189.113281 124.960938 186.757812 126.289062 C 186.691406 126.859375 186.597656 127.40625 186.476562 127.925781 C 192.015625 125.457031 195.710938 125.457031 195.710938 125.457031 C 192.042969 126.183594 187.679688 128.25 186.183594 129.023438 C 185.867188 130.027344 185.457031 130.929688 185 131.742188 C 194.9375 129.179688 200.335938 127.011719 200.335938 127.011719 C 195.789062 129.957031 185.261719 132.671875 184.140625 133.089844 C 183.558594 133.894531 182.945312 134.582031 182.355469 135.148438 C 192.917969 134.734375 197.125 133.273438 197.125 133.273438 C 192.070312 136.277344 181.714844 136.207031 181.152344 136.199219 C 180.441406 136.757812 179.867188 137.109375 179.585938 137.269531 L 180.105469 137.027344 C 180.105469 137.027344 181.433594 136.648438 186.097656 136.730469 C 190.632812 136.808594 195.578125 135.761719 200.695312 133.359375 C 210.589844 128.722656 210.507812 118.34375 210.507812 118.34375 Z M 190.894531 117.558594 C 192.0625 115.707031 193.726562 114.519531 193.726562 114.519531 C 192.441406 115.816406 191.5625 117.542969 191.074219 118.691406 C 191.320312 120.398438 191.378906 121.71875 191.390625 122.410156 C 193.007812 118.910156 196.261719 113.804688 196.261719 113.804688 C 195.085938 117.8125 193.574219 120.917969 192.855469 122.28125 C 193.511719 122.011719 194.214844 121.738281 194.96875 121.464844 C 196.597656 118.828125 197 116.109375 197 116.109375 C 197.058594 118.441406 196.5 120.164062 196.121094 121.058594 C 197.007812 120.757812 197.953125 120.457031 198.953125 120.171875 L 198.847656 120.199219 C 202.054688 113.386719 199.390625 106.617188 199.390625 106.617188 C 194.519531 108.242188 191.101562 112.742188 190.113281 114.167969 C 190.457031 115.375 190.710938 116.519531 190.894531 117.558594 Z M 179.386719 137.359375 C 179.386719 137.359375 179.386719 137.359375 179.382812 137.359375 C 179.382812 137.359375 179.382812 137.359375 179.378906 137.359375 L 179.382812 137.363281 Z M 179.179688 137.269531 C 178.902344 137.109375 178.324219 136.757812 177.617188 136.199219 C 177.054688 136.207031 166.699219 136.277344 161.644531 133.273438 C 161.644531 133.273438 165.847656 134.734375 176.414062 135.148438 C 175.824219 134.582031 175.207031 133.894531 174.628906 133.089844 C 173.503906 132.671875 162.976562 129.957031 158.429688 127.011719 C 158.429688 127.011719 163.828125 129.179688 173.769531 131.742188 C 173.308594 130.929688 172.898438 130.027344 172.582031 129.023438 C 171.089844 128.25 166.722656 126.183594 163.058594 125.457031 C 163.058594 125.457031 166.75 125.457031 172.289062 127.925781 C 172.167969 127.40625 172.074219 126.859375 172.007812 126.289062 C 169.652344 124.960938 158.925781 119.207031 148.257812 118.34375 C 148.257812 118.34375 148.179688 128.722656 158.070312 133.359375 C 163.191406 135.761719 168.132812 136.808594 172.667969 136.730469 C 177.335938 136.648438 178.660156 137.027344 178.660156 137.027344 Z M 159.917969 120.199219 L 159.816406 120.171875 C 160.816406 120.457031 161.757812 120.757812 162.644531 121.058594 C 162.265625 120.164062 161.707031 118.441406 161.765625 116.109375 C 161.765625 116.109375 162.167969 118.828125 163.800781 121.464844 C 164.550781 121.738281 165.253906 122.011719 165.910156 122.28125 C 165.191406 120.917969 163.683594 117.8125 162.507812 113.804688 C 162.507812 113.804688 165.757812 118.910156 167.375 122.410156 C 167.386719 121.71875 167.445312 120.398438 167.691406 118.691406 C 167.203125 117.542969 166.324219 115.816406 165.039062 114.519531 C 165.039062 114.519531 166.703125 115.707031 167.875 117.558594 C 168.058594 116.519531 168.308594 115.375 168.652344 114.167969 C 167.667969 112.742188 164.25 108.242188 159.378906 106.617188 C 159.378906 106.617188 156.714844 113.386719 159.917969 120.199219 Z M 195.257812 143.082031 C 185.339844 141.941406 185.058594 138.796875 179.390625 137.371094 C 183.929688 137.855469 186.039062 141.097656 195.441406 142.183594 C 204.027344 143.171875 209.394531 139.90625 209.394531 139.90625 C 207.695312 136.308594 203.144531 134.859375 201.464844 134.433594 C 198.152344 136.234375 194.542969 136.902344 191.136719 137.132812 C 192.3125 137.539062 194.433594 138.195312 196.488281 138.441406 C 196.488281 138.441406 191.722656 138.125 189.148438 137.21875 C 187.722656 137.253906 186.355469 137.230469 185.082031 137.207031 C 185.664062 137.457031 186.75 137.9375 187.523438 138.382812 C 188.628906 139.019531 191.746094 140.167969 193.71875 140.230469 C 193.925781 140.234375 189.488281 140.199219 186.867188 138.695312 C 185.261719 137.777344 184.125 137.363281 183.480469 137.179688 C 181.886719 137.15625 180.492188 137.175781 179.40625 137.367188 C 179.40625 137.367188 179.398438 137.371094 179.398438 137.371094 C 179.398438 137.371094 179.402344 137.367188 179.40625 137.367188 C 179.402344 137.367188 179.398438 137.367188 179.398438 137.367188 C 179.398438 137.371094 179.398438 137.371094 179.398438 137.371094 C 179.398438 137.371094 179.398438 137.371094 179.398438 137.367188 L 179.398438 137.371094 L 179.367188 137.371094 L 179.371094 137.367188 C 179.371094 137.367188 179.367188 137.367188 179.367188 137.367188 C 179.367188 137.371094 179.367188 137.371094 179.367188 137.371094 C 179.367188 137.371094 179.367188 137.371094 179.367188 137.367188 C 179.367188 137.367188 179.363281 137.367188 179.363281 137.367188 C 179.363281 137.367188 179.367188 137.371094 179.367188 137.371094 C 179.367188 137.371094 179.363281 137.367188 179.363281 137.367188 C 178.273438 137.175781 176.882812 137.15625 175.289062 137.179688 C 174.640625 137.363281 173.503906 137.777344 171.902344 138.695312 C 169.277344 140.199219 164.839844 140.234375 165.046875 140.230469 C 167.019531 140.167969 170.136719 139.019531 171.242188 138.382812 C 172.019531 137.9375 173.105469 137.457031 173.6875 137.207031 C 172.414062 137.230469 171.042969 137.253906 169.621094 137.21875 C 167.042969 138.125 162.277344 138.441406 162.277344 138.441406 C 164.332031 138.195312 166.453125 137.539062 167.632812 137.132812 C 164.222656 136.902344 160.613281 136.234375 157.300781 134.433594 C 155.621094 134.859375 151.074219 136.308594 149.375 139.90625 C 149.375 139.90625 154.742188 143.171875 163.324219 142.183594 C 172.730469 141.097656 174.835938 137.855469 179.378906 137.371094 C 173.710938 138.796875 173.425781 141.941406 163.507812 143.082031 C 154.460938 144.125 149.054688 139.941406 149.054688 139.941406 C 150.757812 135.371094 156.425781 133.941406 156.820312 134.164062 C 156.398438 133.917969 155.984375 133.65625 155.574219 133.371094 C 147.355469 127.660156 147.921875 117.945312 147.921875 117.945312 C 152.023438 118.328125 155.667969 119.046875 158.8125 119.890625 L 158.578125 119.828125 C 158.578125 119.828125 155.859375 113.664062 159.257812 106.234375 C 159.257812 106.234375 165.40625 108.3125 169 113.035156 C 170.476562 108.480469 173.300781 103.28125 178.671875 99.566406 C 176.445312 101.207031 169.570312 107.511719 168.464844 123.414062 C 170.242188 124.261719 171.410156 124.957031 171.921875 125.273438 C 171.910156 125.007812 171.902344 124.738281 171.902344 124.460938 C 171.902344 115.09375 176.816406 111.308594 179.367188 109.878906 C 179.367188 109.878906 172.800781 113.800781 172.800781 124.640625 C 172.800781 133.078125 178.328125 136.746094 179.238281 137.292969 L 179.378906 137.359375 C 179.382812 137.359375 179.382812 137.359375 179.382812 137.355469 C 179.367188 137.347656 179.34375 137.328125 179.308594 137.300781 C 179.335938 137.320312 179.359375 137.339844 179.382812 137.355469 C 179.410156 137.339844 179.433594 137.320312 179.457031 137.300781 C 179.421875 137.328125 179.398438 137.347656 179.382812 137.355469 C 179.386719 137.359375 179.386719 137.359375 179.386719 137.359375 L 179.53125 137.292969 C 180.441406 136.746094 185.96875 133.078125 185.96875 124.640625 C 185.96875 113.800781 179.398438 109.878906 179.398438 109.878906 C 181.949219 111.308594 186.867188 115.09375 186.867188 124.460938 C 186.867188 124.738281 186.859375 125.007812 186.84375 125.273438 C 187.355469 124.957031 188.527344 124.261719 190.300781 123.414062 C 189.199219 107.511719 182.320312 101.207031 180.09375 99.566406 C 185.46875 103.28125 188.289062 108.480469 189.769531 113.035156 C 193.359375 108.3125 199.507812 106.234375 199.507812 106.234375 C 202.910156 113.664062 200.1875 119.828125 200.1875 119.828125 L 199.953125 119.890625 C 203.097656 119.046875 206.742188 118.328125 210.84375 117.945312 C 210.84375 117.945312 211.410156 127.660156 203.191406 133.371094 C 202.78125 133.65625 202.367188 133.917969 201.945312 134.164062 C 202.34375 133.941406 208.011719 135.371094 209.710938 139.941406 C 209.710938 139.941406 204.308594 144.125 195.257812 143.082031 Z M 179.730469 157.828125 C 179.730469 157.550781 179.507812 157.328125 179.234375 157.328125 C 178.960938 157.328125 178.742188 157.550781 178.742188 157.828125 C 178.742188 158.101562 178.960938 158.324219 179.234375 158.324219 C 179.507812 158.324219 179.730469 158.101562 179.730469 157.828125 Z M 197.746094 160.535156 C 197.472656 160.535156 197.25 160.761719 197.25 161.035156 C 197.25 161.3125 197.472656 161.535156 197.746094 161.535156 C 198.019531 161.535156 198.238281 161.3125 198.238281 161.035156 C 198.238281 160.761719 198.019531 160.535156 197.746094 160.535156 Z M 161.761719 160.535156 C 161.488281 160.535156 161.265625 160.761719 161.265625 161.035156 C 161.265625 161.3125 161.488281 161.535156 161.761719 161.535156 C 162.035156 161.535156 162.257812 161.3125 162.257812 161.035156 C 162.257812 160.761719 162.035156 160.535156 161.761719 160.535156 Z M 162.011719 140.230469 C 161.738281 140.230469 161.515625 140.453125 161.515625 140.730469 C 161.515625 141.003906 161.738281 141.226562 162.011719 141.226562 C 162.285156 141.226562 162.507812 141.003906 162.507812 140.730469 C 162.507812 140.453125 162.285156 140.230469 162.011719 140.230469 Z M 158.925781 137.699219 C 158.652344 137.699219 158.429688 137.921875 158.429688 138.195312 C 158.429688 138.472656 158.652344 138.695312 158.925781 138.695312 C 159.199219 138.695312 159.421875 138.472656 159.421875 138.195312 C 159.421875 137.921875 159.199219 137.699219 158.925781 137.699219 Z M 159.175781 130.875 C 158.902344 130.875 158.679688 131.101562 158.679688 131.375 C 158.679688 131.652344 158.902344 131.875 159.175781 131.875 C 159.445312 131.875 159.667969 131.652344 159.667969 131.375 C 159.667969 131.101562 159.445312 130.875 159.175781 130.875 Z M 161.515625 112.269531 C 161.789062 112.269531 162.011719 112.046875 162.011719 111.769531 C 162.011719 111.496094 161.789062 111.269531 161.515625 111.269531 C 161.242188 111.269531 161.023438 111.496094 161.023438 111.769531 C 161.023438 112.046875 161.242188 112.269531 161.515625 112.269531 Z M 178.886719 115.613281 C 178.886719 115.886719 179.109375 116.109375 179.382812 116.109375 C 179.65625 116.109375 179.878906 115.886719 179.878906 115.613281 C 179.878906 115.335938 179.65625 115.113281 179.382812 115.113281 C 179.109375 115.113281 178.886719 115.335938 178.886719 115.613281 Z M 183.59375 120.988281 C 183.59375 120.710938 183.371094 120.488281 183.097656 120.488281 C 182.828125 120.488281 182.605469 120.710938 182.605469 120.988281 C 182.605469 121.261719 182.828125 121.488281 183.097656 121.488281 C 183.371094 121.488281 183.59375 121.261719 183.59375 120.988281 Z M 174.675781 120.988281 C 174.675781 121.261719 174.898438 121.488281 175.171875 121.488281 C 175.445312 121.488281 175.664062 121.261719 175.664062 120.988281 C 175.664062 120.710938 175.445312 120.488281 175.171875 120.488281 C 174.898438 120.488281 174.675781 120.710938 174.675781 120.988281 Z M 160.460938 125.195312 C 160.734375 125.195312 160.957031 124.96875 160.957031 124.695312 C 160.957031 124.417969 160.734375 124.195312 160.460938 124.195312 C 160.1875 124.195312 159.96875 124.417969 159.96875 124.695312 C 159.96875 124.96875 160.1875 125.195312 160.460938 125.195312 Z M 157.054688 126.234375 C 156.78125 126.234375 156.558594 126.457031 156.558594 126.734375 C 156.558594 127.007812 156.78125 127.230469 157.054688 127.230469 C 157.328125 127.230469 157.546875 127.007812 157.546875 126.734375 C 157.546875 126.457031 157.328125 126.234375 157.054688 126.234375 Z M 179.234375 160.078125 C 179.820312 160.078125 180.292969 160.699219 180.292969 161.464844 C 180.292969 162.230469 179.820312 162.851562 179.234375 162.851562 C 179.996094 162.851562 180.613281 162.230469 180.613281 161.464844 C 180.613281 160.699219 179.996094 160.078125 179.234375 160.078125 Z M 178.179688 161.464844 C 178.179688 160.699219 178.652344 160.078125 179.234375 160.078125 C 178.476562 160.078125 177.859375 160.699219 177.859375 161.464844 C 177.859375 162.230469 178.476562 162.851562 179.234375 162.851562 C 178.652344 162.851562 178.179688 162.230469 178.179688 161.464844 Z M 180.570312 104.8125 C 180.570312 105.777344 179.972656 106.5625 179.234375 106.5625 C 180.195312 106.5625 180.972656 105.777344 180.972656 104.8125 C 180.972656 103.84375 180.195312 103.058594 179.234375 103.058594 C 179.972656 103.058594 180.570312 103.84375 180.570312 104.8125 Z M 177.5 104.8125 C 177.5 105.777344 178.277344 106.5625 179.234375 106.5625 C 178.5 106.5625 177.902344 105.777344 177.902344 104.8125 C 177.902344 103.84375 178.5 103.058594 179.234375 103.058594 C 178.277344 103.058594 177.5 103.84375 177.5 104.8125 Z M 175.867188 133.433594 C 173.71875 130.066406 176.34375 127.730469 177.710938 128.007812 C 179.105469 128.292969 179.367188 129.96875 179.367188 129.96875 C 179.367188 129.921875 179.363281 129.878906 179.359375 129.835938 L 179.398438 129.96875 L 179.542969 129.460938 C 179.734375 128.941406 180.160156 128.191406 181.054688 128.007812 C 182.421875 127.730469 185.046875 130.066406 182.898438 133.433594 C 181.507812 135.613281 179.855469 136.984375 179.457031 137.300781 C 184.082031 133.761719 184.511719 131.394531 184.277344 129.992188 C 184.230469 129.714844 184.164062 129.453125 184.074219 129.210938 C 184.207031 128.152344 184.449219 125.316406 183.582031 122.8125 C 183.582031 122.8125 183.90625 125.699219 183.304688 128.050781 C 182.921875 127.714844 182.433594 127.523438 181.851562 127.519531 C 180.960938 127.515625 180.183594 127.996094 179.753906 128.710938 C 179.753906 126.167969 179.398438 119.917969 179.398438 119.917969 C 178.953125 122.710938 179.015625 128.710938 179.015625 128.710938 C 178.585938 127.996094 177.808594 127.515625 176.917969 127.519531 C 176.320312 127.523438 175.824219 127.726562 175.433594 128.074219 C 174.828125 125.71875 175.152344 122.8125 175.152344 122.8125 C 174.265625 125.371094 174.535156 128.28125 174.667969 129.28125 C 174.589844 129.503906 174.53125 129.738281 174.488281 129.992188 C 174.257812 131.394531 174.683594 133.761719 179.308594 137.300781 C 178.910156 136.984375 177.257812 135.613281 175.867188 133.433594 Z M 179.332031 137.398438 C 179.34375 137.390625 179.355469 137.386719 179.363281 137.378906 C 179.332031 137.402344 179.234375 137.488281 179.089844 137.617188 C 179.273438 137.460938 179.378906 137.371094 179.378906 137.371094 C 179.375 137.371094 179.371094 137.375 179.363281 137.378906 C 179.359375 137.382812 179.347656 137.390625 179.332031 137.398438 Z M 159.902344 156.5625 C 159.574219 159.28125 161.085938 159.367188 161.515625 159.367188 C 161.941406 159.367188 162.746094 159.164062 162.675781 158.492188 C 162.5625 157.375 161.519531 157.589844 161.519531 157.589844 C 161.96875 157.589844 162.332031 157.960938 162.332031 158.414062 C 162.332031 158.867188 161.96875 159.234375 161.519531 159.234375 C 161.070312 159.234375 160.792969 158.855469 160.703125 158.414062 C 159.152344 150.722656 178.324219 138.058594 179.332031 137.398438 C 163.652344 147.589844 160.304688 153.234375 159.902344 156.5625 Z M 179.378906 155.9375 L 179.378906 154.832031 C 179.378906 154.832031 174.238281 155.117188 179.378906 137.371094 C 175.410156 148.511719 176.261719 155.9375 179.378906 155.9375 Z M 171.902344 148.984375 C 175.125 151.308594 177.953125 141.949219 177.953125 141.949219 C 177.953125 141.949219 174.722656 150.40625 172.335938 148.054688 C 170.273438 146.015625 177.53125 139.023438 179.089844 137.617188 C 177.386719 139.097656 168.832031 146.769531 171.902344 148.984375 Z M 179.367188 99.101562 C 179.128906 99.253906 178.898438 99.410156 178.671875 99.566406 C 179.109375 99.246094 179.367188 99.101562 179.367188 99.101562 " fill-opacity="1" fill-rule="nonzero"/></g><g fill="#000000" fill-opacity="1"><g transform="translate(103.307861, 254.190862)"><g><path d="M 8.84375 -2.265625 L 8.84375 0 L 0.328125 0 L 5.046875 -9.046875 L 0.671875 -9.046875 L 0.671875 -11.3125 L 9.109375 -11.3125 L 4.390625 -2.265625 Z M 8.84375 -2.265625 "/></g></g></g><g fill="#000000" fill-opacity="1"><g transform="translate(114.659212, 254.190862)"><g><path d="M 3.484375 0 L 1 0 L 1 -11.3125 L 3.484375 -11.3125 Z M 3.484375 0 "/></g></g></g><g fill="#000000" fill-opacity="1"><g transform="translate(121.058637, 254.190862)"><g><path d="M 6.453125 -3.3125 C 6.453125 -3.675781 6.316406 -3.992188 6.046875 -4.265625 C 5.773438 -4.535156 5.453125 -4.671875 5.078125 -4.671875 L 3.484375 -4.671875 L 3.484375 -1.9375 L 5.078125 -1.9375 C 5.453125 -1.9375 5.773438 -2.070312 6.046875 -2.34375 C 6.316406 -2.613281 6.453125 -2.9375 6.453125 -3.3125 Z M 5.671875 -8.03125 C 5.671875 -8.394531 5.539062 -8.703125 5.28125 -8.953125 C 5.019531 -9.210938 4.710938 -9.34375 4.359375 -9.34375 L 3.484375 -9.34375 L 3.484375 -6.71875 L 4.359375 -6.71875 C 4.710938 -6.71875 5.019531 -6.847656 5.28125 -7.109375 C 5.539062 -7.367188 5.671875 -7.675781 5.671875 -8.03125 Z M 9 -3.234375 C 9 -2.265625 8.695312 -1.484375 8.09375 -0.890625 C 7.5 -0.296875 6.65625 0 5.5625 0 L 1 0 L 1 -11.3125 L 4.890625 -11.3125 C 5.535156 -11.3125 6.09375 -11.179688 6.5625 -10.921875 C 7.03125 -10.671875 7.394531 -10.332031 7.65625 -9.90625 C 7.914062 -9.476562 8.046875 -9.003906 8.046875 -8.484375 C 8.046875 -7.898438 7.925781 -7.398438 7.6875 -6.984375 C 7.445312 -6.578125 7.117188 -6.273438 6.703125 -6.078125 C 7.328125 -5.941406 7.863281 -5.625 8.3125 -5.125 C 8.769531 -4.632812 9 -4.003906 9 -3.234375 Z M 9 -3.234375 "/></g></g></g><g fill="#000000" fill-opacity="1"><g transform="translate(132.127492, 254.190862)"><g><path d="M 9.71875 -5.671875 C 9.71875 -6.253906 9.5625 -6.796875 9.25 -7.296875 C 8.945312 -7.804688 8.539062 -8.21875 8.03125 -8.53125 C 7.53125 -8.84375 6.988281 -9 6.40625 -9 C 5.820312 -9 5.273438 -8.84375 4.765625 -8.53125 C 4.253906 -8.21875 3.84375 -7.804688 3.53125 -7.296875 C 3.226562 -6.796875 3.078125 -6.253906 3.078125 -5.671875 C 3.078125 -5.085938 3.226562 -4.539062 3.53125 -4.03125 C 3.84375 -3.53125 4.253906 -3.117188 4.765625 -2.796875 C 5.273438 -2.484375 5.820312 -2.328125 6.40625 -2.328125 C 6.988281 -2.328125 7.53125 -2.484375 8.03125 -2.796875 C 8.539062 -3.117188 8.945312 -3.53125 9.25 -4.03125 C 9.5625 -4.539062 9.71875 -5.085938 9.71875 -5.671875 Z M 12.21875 -5.65625 C 12.21875 -4.875 12.0625 -4.128906 11.75 -3.421875 C 11.4375 -2.722656 11.007812 -2.101562 10.46875 -1.5625 C 9.9375 -1.03125 9.320312 -0.609375 8.625 -0.296875 C 7.925781 0.015625 7.1875 0.171875 6.40625 0.171875 C 5.625 0.171875 4.878906 0.015625 4.171875 -0.296875 C 3.472656 -0.609375 2.851562 -1.03125 2.3125 -1.5625 C 1.78125 -2.101562 1.359375 -2.722656 1.046875 -3.421875 C 0.734375 -4.128906 0.578125 -4.875 0.578125 -5.65625 C 0.578125 -6.4375 0.734375 -7.175781 1.046875 -7.875 C 1.359375 -8.570312 1.78125 -9.191406 2.3125 -9.734375 C 2.851562 -10.273438 3.472656 -10.695312 4.171875 -11 C 4.878906 -11.3125 5.625 -11.46875 6.40625 -11.46875 C 7.1875 -11.46875 7.925781 -11.3125 8.625 -11 C 9.320312 -10.695312 9.9375 -10.273438 10.46875 -9.734375 C 11.007812 -9.191406 11.4375 -8.570312 11.75 -7.875 C 12.0625 -7.175781 12.21875 -6.4375 12.21875 -5.65625 Z M 12.21875 -5.65625 "/></g></g></g><g fill="#000000" fill-opacity="1"><g transform="translate(146.835513, 254.190862)"><g><path d="M 7.59375 -11.3125 L 10.09375 -11.3125 L 10.09375 -4.40625 C 10.09375 -2.894531 9.679688 -1.753906 8.859375 -0.984375 C 8.035156 -0.210938 6.890625 0.171875 5.421875 0.171875 C 3.941406 0.171875 2.789062 -0.210938 1.96875 -0.984375 C 1.15625 -1.753906 0.75 -2.894531 0.75 -4.40625 L 0.75 -11.3125 L 3.234375 -11.3125 L 3.234375 -4.765625 C 3.234375 -3.992188 3.382812 -3.394531 3.6875 -2.96875 C 4 -2.539062 4.578125 -2.328125 5.421875 -2.328125 C 6.273438 -2.328125 6.847656 -2.539062 7.140625 -2.96875 C 7.441406 -3.394531 7.59375 -3.992188 7.59375 -4.765625 Z M 7.59375 -11.3125 "/></g></g></g><g fill="#000000" fill-opacity="1"><g transform="translate(159.582702, 254.190862)"><g><path d="M 1 0 L 1 -11.3125 L 3.484375 -11.3125 L 3.484375 -2.265625 L 7.546875 -2.265625 L 7.546875 0 Z M 1 0 "/></g></g></g><g fill="#000000" fill-opacity="1"><g transform="translate(169.621293, 254.190862)"><g><path d="M 7.546875 -2.265625 L 7.546875 0 L 1 0 L 1 -11.3125 L 7.546875 -11.3125 L 7.546875 -9.046875 L 3.484375 -9.046875 L 3.484375 -6.796875 L 7.375 -6.796875 L 7.375 -4.53125 L 3.484375 -4.53125 L 3.484375 -2.265625 Z M 7.546875 -2.265625 "/></g></g></g><g fill="#000000" fill-opacity="1"><g transform="translate(180.075316, 254.190862)"><g><path d="M 5.796875 -9.046875 L 5.796875 0 L 3.3125 0 L 3.3125 -9.046875 L 0.078125 -9.046875 L 0.078125 -11.3125 L 9.03125 -11.3125 L 9.03125 -9.046875 Z M 5.796875 -9.046875 "/></g></g></g><g fill="#000000" fill-opacity="1"><g transform="translate(191.094322, 254.190862)"><g><path d="M 5.796875 -9.046875 L 5.796875 0 L 3.3125 0 L 3.3125 -9.046875 L 0.078125 -9.046875 L 0.078125 -11.3125 L 9.03125 -11.3125 L 9.03125 -9.046875 Z M 5.796875 -9.046875 "/></g></g></g><g fill="#000000" fill-opacity="1"><g transform="translate(202.113328, 254.190862)"><g><path d="M 7.546875 -2.265625 L 7.546875 0 L 1 0 L 1 -11.3125 L 7.546875 -11.3125 L 7.546875 -9.046875 L 3.484375 -9.046875 L 3.484375 -6.796875 L 7.375 -6.796875 L 7.375 -4.53125 L 3.484375 -4.53125 L 3.484375 -2.265625 Z M 7.546875 -2.265625 "/></g></g></g><g fill="#000000" fill-opacity="1"><g transform="translate(212.567345, 254.190862)"><g/></g></g><g fill="#000000" fill-opacity="1"><g transform="translate(218.634429, 254.190862)"><g><path d="M 9.875 0 L 7.375 0 L 3.484375 -7.046875 L 3.484375 0 L 1 0 L 1 -11.3125 L 3.484375 -11.3125 L 7.375 -4.25 L 7.375 -11.3125 L 9.875 -11.3125 Z M 9.875 0 "/></g></g></g><g fill="#000000" fill-opacity="1"><g transform="translate(231.414847, 254.190862)"><g><path d="M 7.15625 -4.328125 L 5.71875 -8.34375 L 4.296875 -4.328125 Z M 11.375 0 L 8.6875 0 L 7.875 -2.28125 L 3.578125 -2.28125 L 2.765625 0 L 0.078125 0 L 4.671875 -11.3125 L 6.78125 -11.3125 Z M 11.375 0 "/></g></g></g><g fill="#000000" fill-opacity="1"><g transform="translate(244.776876, 254.190862)"><g><path d="M 3.484375 0 L 1 0 L 1 -11.3125 L 3.484375 -11.3125 Z M 3.484375 0 "/></g></g></g><g fill="#000000" fill-opacity="1"><g transform="translate(251.176298, 254.190862)"><g><path d="M 1 0 L 1 -11.3125 L 3.484375 -11.3125 L 3.484375 -2.265625 L 7.546875 -2.265625 L 7.546875 0 Z M 1 0 "/></g></g></g><g fill="#000000" fill-opacity="1"><g transform="translate(261.214883, 254.190862)"><g><path d="M 5.390625 -1.765625 C 5.648438 -1.765625 5.9375 -1.804688 6.25 -1.890625 C 6.5625 -1.972656 6.828125 -2.109375 7.046875 -2.296875 C 7.273438 -2.492188 7.390625 -2.757812 7.390625 -3.09375 C 7.390625 -3.40625 7.269531 -3.65625 7.03125 -3.84375 C 6.800781 -4.03125 6.488281 -4.179688 6.09375 -4.296875 C 5.707031 -4.421875 5.285156 -4.535156 4.828125 -4.640625 C 4.367188 -4.742188 3.90625 -4.867188 3.4375 -5.015625 C 2.976562 -5.171875 2.550781 -5.367188 2.15625 -5.609375 C 1.769531 -5.859375 1.457031 -6.175781 1.21875 -6.5625 C 0.976562 -6.957031 0.859375 -7.453125 0.859375 -8.046875 C 0.859375 -8.628906 0.976562 -9.132812 1.21875 -9.5625 C 1.46875 -9.988281 1.796875 -10.34375 2.203125 -10.625 C 2.609375 -10.914062 3.0625 -11.128906 3.5625 -11.265625 C 4.070312 -11.398438 4.582031 -11.46875 5.09375 -11.46875 C 5.863281 -11.46875 6.585938 -11.34375 7.265625 -11.09375 C 7.941406 -10.851562 8.492188 -10.46875 8.921875 -9.9375 C 9.347656 -9.414062 9.570312 -8.722656 9.59375 -7.859375 L 7.1875 -7.859375 C 7.113281 -8.453125 6.90625 -8.859375 6.5625 -9.078125 C 6.21875 -9.304688 5.738281 -9.421875 5.125 -9.421875 C 4.882812 -9.421875 4.632812 -9.378906 4.375 -9.296875 C 4.113281 -9.222656 3.890625 -9.097656 3.703125 -8.921875 C 3.523438 -8.753906 3.4375 -8.53125 3.4375 -8.25 C 3.4375 -7.957031 3.554688 -7.726562 3.796875 -7.5625 C 4.035156 -7.394531 4.347656 -7.253906 4.734375 -7.140625 C 5.117188 -7.035156 5.546875 -6.929688 6.015625 -6.828125 C 6.484375 -6.734375 6.945312 -6.613281 7.40625 -6.46875 C 7.863281 -6.320312 8.285156 -6.125 8.671875 -5.875 C 9.066406 -5.625 9.378906 -5.300781 9.609375 -4.90625 C 9.847656 -4.507812 9.96875 -4 9.96875 -3.375 C 9.96875 -2.707031 9.832031 -2.140625 9.5625 -1.671875 C 9.300781 -1.210938 8.945312 -0.84375 8.5 -0.5625 C 8.050781 -0.28125 7.546875 -0.0703125 6.984375 0.0625 C 6.429688 0.195312 5.863281 0.265625 5.28125 0.265625 C 4.457031 0.265625 3.679688 0.125 2.953125 -0.15625 C 2.222656 -0.4375 1.632812 -0.867188 1.1875 -1.453125 C 0.738281 -2.046875 0.507812 -2.800781 0.5 -3.71875 L 3.03125 -3.71875 C 3.0625 -3.039062 3.304688 -2.546875 3.765625 -2.234375 C 4.234375 -1.921875 4.773438 -1.765625 5.390625 -1.765625 Z M 5.390625 -1.765625 "/></g></g></g><g fill="#000000" fill-opacity="1"><g transform="translate(94.70701, 273.212824)"><g><path d="M 6.421875 -3.625 C 6.421875 -3.09375 6.320312 -2.609375 6.125 -2.171875 C 5.925781 -1.722656 5.660156 -1.335938 5.328125 -1.015625 C 4.992188 -0.703125 4.601562 -0.457031 4.15625 -0.28125 C 3.695312 -0.09375 3.207031 0 2.6875 0 L 0.796875 0 L 0.796875 -7.234375 L 2.6875 -7.234375 C 3.207031 -7.234375 3.695312 -7.144531 4.15625 -6.96875 C 4.601562 -6.78125 4.992188 -6.53125 5.328125 -6.21875 C 5.660156 -5.894531 5.925781 -5.515625 6.125 -5.078125 C 6.320312 -4.628906 6.421875 -4.144531 6.421875 -3.625 Z M 5.6875 -3.625 C 5.6875 -4.445312 5.394531 -5.132812 4.8125 -5.6875 C 4.25 -6.21875 3.550781 -6.484375 2.71875 -6.484375 L 1.546875 -6.484375 L 1.546875 -0.75 L 2.71875 -0.75 C 3.550781 -0.75 4.25 -1.015625 4.8125 -1.546875 C 5.394531 -2.109375 5.6875 -2.800781 5.6875 -3.625 Z M 5.6875 -3.625 "/></g></g></g><g fill="#000000" fill-opacity="1"><g transform="translate(106.24452, 273.212824)"><g><path d="M 5.09375 0 L 0.796875 0 L 0.796875 -7.234375 L 5.09375 -7.234375 L 5.09375 -6.546875 L 1.546875 -6.546875 L 1.546875 -3.96875 L 4.984375 -3.96875 L 4.984375 -3.265625 L 1.546875 -3.265625 L 1.546875 -0.6875 L 5.09375 -0.6875 Z M 5.09375 0 "/></g></g></g><g fill="#000000" fill-opacity="1"><g transform="translate(116.781805, 273.212824)"><g><path d="M 2.8125 -3.421875 C 1.332031 -3.753906 0.59375 -4.382812 0.59375 -5.3125 C 0.59375 -5.988281 0.832031 -6.5 1.3125 -6.84375 C 1.78125 -7.175781 2.335938 -7.34375 2.984375 -7.34375 C 4.390625 -7.34375 5.222656 -6.816406 5.484375 -5.765625 L 4.6875 -5.765625 C 4.539062 -6.390625 3.972656 -6.703125 2.984375 -6.703125 C 2.285156 -6.703125 1.796875 -6.5 1.515625 -6.09375 C 1.410156 -5.9375 1.359375 -5.738281 1.359375 -5.5 C 1.359375 -5.050781 1.597656 -4.707031 2.078125 -4.46875 C 2.304688 -4.34375 2.789062 -4.1875 3.53125 -4 C 4.269531 -3.8125 4.804688 -3.597656 5.140625 -3.359375 C 5.597656 -3.035156 5.828125 -2.578125 5.828125 -1.984375 C 5.828125 -1.253906 5.539062 -0.703125 4.96875 -0.328125 C 4.488281 -0.015625 3.894531 0.140625 3.1875 0.140625 C 1.582031 0.140625 0.648438 -0.46875 0.390625 -1.6875 L 1.28125 -1.6875 C 1.414062 -0.925781 2.050781 -0.546875 3.1875 -0.546875 C 3.988281 -0.546875 4.550781 -0.769531 4.875 -1.21875 C 5 -1.394531 5.0625 -1.632812 5.0625 -1.9375 C 5.0625 -2.238281 4.945312 -2.484375 4.71875 -2.671875 C 4.382812 -2.941406 3.75 -3.191406 2.8125 -3.421875 Z M 2.8125 -3.421875 "/></g></g></g><g fill="#000000" fill-opacity="1"><g transform="translate(127.531905, 273.212824)"><g/></g></g><g fill="#000000" fill-opacity="1"><g transform="translate(135.047239, 273.212824)"><g><path d="M 7.171875 -3.640625 C 7.171875 -4.453125 6.878906 -5.148438 6.296875 -5.734375 C 5.710938 -6.316406 5.007812 -6.609375 4.1875 -6.609375 C 3.375 -6.609375 2.675781 -6.316406 2.09375 -5.734375 C 1.507812 -5.148438 1.21875 -4.453125 1.21875 -3.640625 C 1.21875 -2.816406 1.507812 -2.113281 2.09375 -1.53125 C 2.675781 -0.945312 3.375 -0.65625 4.1875 -0.65625 C 5.007812 -0.65625 5.710938 -0.945312 6.296875 -1.53125 C 6.878906 -2.113281 7.171875 -2.816406 7.171875 -3.640625 Z M 7.921875 -3.640625 C 7.921875 -3.128906 7.820312 -2.644531 7.625 -2.1875 C 7.425781 -1.738281 7.160156 -1.347656 6.828125 -1.015625 C 6.492188 -0.671875 6.097656 -0.40625 5.640625 -0.21875 C 5.179688 -0.0195312 4.695312 0.078125 4.1875 0.078125 C 3.675781 0.078125 3.195312 -0.0195312 2.75 -0.21875 C 2.300781 -0.40625 1.910156 -0.671875 1.578125 -1.015625 C 1.234375 -1.347656 0.96875 -1.738281 0.78125 -2.1875 C 0.582031 -2.644531 0.484375 -3.128906 0.484375 -3.640625 C 0.484375 -4.148438 0.582031 -4.632812 0.78125 -5.09375 C 0.96875 -5.539062 1.234375 -5.929688 1.578125 -6.265625 C 1.910156 -6.597656 2.300781 -6.863281 2.75 -7.0625 C 3.195312 -7.257812 3.675781 -7.359375 4.1875 -7.359375 C 4.695312 -7.359375 5.179688 -7.257812 5.640625 -7.0625 C 6.097656 -6.863281 6.492188 -6.597656 6.828125 -6.265625 C 7.160156 -5.929688 7.425781 -5.539062 7.625 -5.09375 C 7.820312 -4.632812 7.921875 -4.148438 7.921875 -3.640625 Z M 7.921875 -3.640625 "/></g></g></g><g fill="#000000" fill-opacity="1"><g transform="translate(148.085089, 273.212824)"><g><path d="M 1.546875 -5.328125 L 1.546875 0 L 0.796875 0 L 0.796875 -7.6875 L 4.859375 -1.921875 L 4.859375 -7.234375 L 5.609375 -7.234375 L 5.609375 0.453125 Z M 1.546875 -5.328125 "/></g></g></g><g fill="#000000" fill-opacity="1"><g transform="translate(159.133135, 273.212824)"><g><path d="M 7.9375 -3.390625 L 7.859375 -2.9375 C 7.703125 -2.0625 7.273438 -1.335938 6.578125 -0.765625 C 5.867188 -0.203125 5.078125 0.078125 4.203125 0.078125 C 3.691406 0.078125 3.207031 -0.0195312 2.75 -0.21875 C 2.300781 -0.40625 1.910156 -0.671875 1.578125 -1.015625 C 1.234375 -1.347656 0.96875 -1.738281 0.78125 -2.1875 C 0.582031 -2.644531 0.484375 -3.132812 0.484375 -3.65625 C 0.484375 -4.164062 0.582031 -4.644531 0.78125 -5.09375 C 0.96875 -5.550781 1.234375 -5.945312 1.578125 -6.28125 C 1.910156 -6.613281 2.300781 -6.882812 2.75 -7.09375 C 3.207031 -7.28125 3.664062 -7.375 4.125 -7.375 C 4.988281 -7.375 5.753906 -7.128906 6.421875 -6.640625 C 7.085938 -6.148438 7.539062 -5.503906 7.78125 -4.703125 L 6.984375 -4.703125 C 6.765625 -5.296875 6.398438 -5.765625 5.890625 -6.109375 C 5.378906 -6.453125 4.816406 -6.625 4.203125 -6.625 C 3.378906 -6.625 2.675781 -6.332031 2.09375 -5.75 C 1.507812 -5.175781 1.21875 -4.476562 1.21875 -3.65625 C 1.21875 -2.832031 1.507812 -2.128906 2.09375 -1.546875 C 2.664062 -0.953125 3.367188 -0.65625 4.203125 -0.65625 C 4.859375 -0.65625 5.453125 -0.84375 5.984375 -1.21875 C 6.515625 -1.601562 6.890625 -2.109375 7.109375 -2.734375 L 4.171875 -2.734375 L 4.171875 -3.390625 Z M 7.9375 -3.390625 "/></g></g></g><g fill="#000000" fill-opacity="1"><g transform="translate(172.192261, 273.212824)"><g><path d="M 1.546875 -0.75 L 4.125 -0.75 L 4.125 0 L 0.796875 0 L 0.796875 -7.234375 L 1.546875 -7.234375 Z M 1.546875 -0.75 "/></g></g></g><g fill="#000000" fill-opacity="1"><g transform="translate(181.17601, 273.212824)"><g><path d="M 5.09375 0 L 0.796875 0 L 0.796875 -7.234375 L 5.09375 -7.234375 L 5.09375 -6.546875 L 1.546875 -6.546875 L 1.546875 -3.96875 L 4.984375 -3.96875 L 4.984375 -3.265625 L 1.546875 -3.265625 L 1.546875 -0.6875 L 5.09375 -0.6875 Z M 5.09375 0 "/></g></g></g><g fill="#000000" fill-opacity="1"><g transform="translate(191.713294, 273.212824)"><g><path d="M 2.8125 -3.421875 C 1.332031 -3.753906 0.59375 -4.382812 0.59375 -5.3125 C 0.59375 -5.988281 0.832031 -6.5 1.3125 -6.84375 C 1.78125 -7.175781 2.335938 -7.34375 2.984375 -7.34375 C 4.390625 -7.34375 5.222656 -6.816406 5.484375 -5.765625 L 4.6875 -5.765625 C 4.539062 -6.390625 3.972656 -6.703125 2.984375 -6.703125 C 2.285156 -6.703125 1.796875 -6.5 1.515625 -6.09375 C 1.410156 -5.9375 1.359375 -5.738281 1.359375 -5.5 C 1.359375 -5.050781 1.597656 -4.707031 2.078125 -4.46875 C 2.304688 -4.34375 2.789062 -4.1875 3.53125 -4 C 4.269531 -3.8125 4.804688 -3.597656 5.140625 -3.359375 C 5.597656 -3.035156 5.828125 -2.578125 5.828125 -1.984375 C 5.828125 -1.253906 5.539062 -0.703125 4.96875 -0.328125 C 4.488281 -0.015625 3.894531 0.140625 3.1875 0.140625 C 1.582031 0.140625 0.648438 -0.46875 0.390625 -1.6875 L 1.28125 -1.6875 C 1.414062 -0.925781 2.050781 -0.546875 3.1875 -0.546875 C 3.988281 -0.546875 4.550781 -0.769531 4.875 -1.21875 C 5 -1.394531 5.0625 -1.632812 5.0625 -1.9375 C 5.0625 -2.238281 4.945312 -2.484375 4.71875 -2.671875 C 4.382812 -2.941406 3.75 -3.191406 2.8125 -3.421875 Z M 2.8125 -3.421875 "/></g></g></g><g fill="#000000" fill-opacity="1"><g transform="translate(202.463393, 273.212824)"><g/></g></g><g fill="#000000" fill-opacity="1"><g transform="translate(209.978727, 273.212824)"><g><path d="M 6.03125 -2.390625 C 6.03125 -1.609375 5.773438 -0.992188 5.265625 -0.546875 C 4.785156 -0.117188 4.144531 0.09375 3.34375 0.09375 C 2.53125 0.09375 1.882812 -0.117188 1.40625 -0.546875 C 0.894531 -0.992188 0.640625 -1.609375 0.640625 -2.390625 L 0.640625 -7.234375 L 1.390625 -7.234375 L 1.390625 -2.28125 C 1.390625 -1.738281 1.585938 -1.320312 1.984375 -1.03125 C 2.316406 -0.78125 2.769531 -0.65625 3.34375 -0.65625 C 4.226562 -0.65625 4.820312 -0.953125 5.125 -1.546875 C 5.226562 -1.742188 5.28125 -1.988281 5.28125 -2.28125 L 5.28125 -7.234375 L 6.03125 -7.234375 Z M 6.03125 -2.390625 "/></g></g></g><g fill="#000000" fill-opacity="1"><g transform="translate(221.29279, 273.212824)"><g><path d="M 1.546875 -5.328125 L 1.546875 0 L 0.796875 0 L 0.796875 -7.6875 L 4.859375 -1.921875 L 4.859375 -7.234375 L 5.609375 -7.234375 L 5.609375 0.453125 Z M 1.546875 -5.328125 "/></g></g></g><g fill="#000000" fill-opacity="1"><g transform="translate(232.340836, 273.212824)"><g><path d="M 1.546875 0 L 0.796875 0 L 0.796875 -7.234375 L 1.546875 -7.234375 Z M 1.546875 0 "/></g></g></g><g fill="#000000" fill-opacity="1"><g transform="translate(239.324135, 273.212824)"><g><path d="M 7.921875 -3.609375 C 7.921875 -3.097656 7.820312 -2.617188 7.625 -2.171875 C 7.425781 -1.710938 7.160156 -1.316406 6.828125 -0.984375 C 6.609375 -0.765625 6.363281 -0.578125 6.09375 -0.421875 C 6.394531 -0.484375 6.675781 -0.546875 6.9375 -0.609375 L 8.015625 -0.609375 L 8.015625 0 L 5.09375 0 C 4.800781 0.0703125 4.5 0.109375 4.1875 0.109375 C 3.675781 0.109375 3.195312 0.0078125 2.75 -0.1875 C 2.300781 -0.382812 1.910156 -0.648438 1.578125 -0.984375 C 1.234375 -1.316406 0.96875 -1.710938 0.78125 -2.171875 C 0.582031 -2.617188 0.484375 -3.097656 0.484375 -3.609375 C 0.484375 -4.117188 0.582031 -4.597656 0.78125 -5.046875 C 0.96875 -5.503906 1.234375 -5.90625 1.578125 -6.25 C 1.910156 -6.582031 2.300781 -6.847656 2.75 -7.046875 C 3.195312 -7.234375 3.675781 -7.328125 4.1875 -7.328125 C 4.695312 -7.328125 5.179688 -7.234375 5.640625 -7.046875 C 6.097656 -6.847656 6.492188 -6.582031 6.828125 -6.25 C 7.160156 -5.90625 7.425781 -5.503906 7.625 -5.046875 C 7.820312 -4.597656 7.921875 -4.117188 7.921875 -3.609375 Z M 7.171875 -3.609375 C 7.171875 -4.429688 6.878906 -5.132812 6.296875 -5.71875 C 5.710938 -6.300781 5.007812 -6.59375 4.1875 -6.59375 C 3.375 -6.59375 2.675781 -6.300781 2.09375 -5.71875 C 1.507812 -5.132812 1.21875 -4.429688 1.21875 -3.609375 C 1.21875 -2.796875 1.507812 -2.097656 2.09375 -1.515625 C 2.675781 -0.929688 3.375 -0.640625 4.1875 -0.640625 C 5.007812 -0.640625 5.710938 -0.929688 6.296875 -1.515625 C 6.878906 -2.097656 7.171875 -2.796875 7.171875 -3.609375 Z M 7.171875 -3.609375 "/></g></g></g><g fill="#000000" fill-opacity="1"><g transform="translate(252.308783, 273.212824)"><g><path d="M 6.03125 -2.390625 C 6.03125 -1.609375 5.773438 -0.992188 5.265625 -0.546875 C 4.785156 -0.117188 4.144531 0.09375 3.34375 0.09375 C 2.53125 0.09375 1.882812 -0.117188 1.40625 -0.546875 C 0.894531 -0.992188 0.640625 -1.609375 0.640625 -2.390625 L 0.640625 -7.234375 L 1.390625 -7.234375 L 1.390625 -2.28125 C 1.390625 -1.738281 1.585938 -1.320312 1.984375 -1.03125 C 2.316406 -0.78125 2.769531 -0.65625 3.34375 -0.65625 C 4.226562 -0.65625 4.820312 -0.953125 5.125 -1.546875 C 5.226562 -1.742188 5.28125 -1.988281 5.28125 -2.28125 L 5.28125 -7.234375 L 6.03125 -7.234375 Z M 6.03125 -2.390625 "/></g></g></g><g fill="#000000" fill-opacity="1"><g transform="translate(263.622847, 273.212824)"><g><path d="M 5.09375 0 L 0.796875 0 L 0.796875 -7.234375 L 5.09375 -7.234375 L 5.09375 -6.546875 L 1.546875 -6.546875 L 1.546875 -3.96875 L 4.984375 -3.96875 L 4.984375 -3.265625 L 1.546875 -3.265625 L 1.546875 -0.6875 L 5.09375 -0.6875 Z M 5.09375 0 "/></g></g></g><g fill="#000000" fill-opacity="1"><g transform="translate(274.160131, 273.212824)"><g><path d="M 2.8125 -3.421875 C 1.332031 -3.753906 0.59375 -4.382812 0.59375 -5.3125 C 0.59375 -5.988281 0.832031 -6.5 1.3125 -6.84375 C 1.78125 -7.175781 2.335938 -7.34375 2.984375 -7.34375 C 4.390625 -7.34375 5.222656 -6.816406 5.484375 -5.765625 L 4.6875 -5.765625 C 4.539062 -6.390625 3.972656 -6.703125 2.984375 -6.703125 C 2.285156 -6.703125 1.796875 -6.5 1.515625 -6.09375 C 1.410156 -5.9375 1.359375 -5.738281 1.359375 -5.5 C 1.359375 -5.050781 1.597656 -4.707031 2.078125 -4.46875 C 2.304688 -4.34375 2.789062 -4.1875 3.53125 -4 C 4.269531 -3.8125 4.804688 -3.597656 5.140625 -3.359375 C 5.597656 -3.035156 5.828125 -2.578125 5.828125 -1.984375 C 5.828125 -1.253906 5.539062 -0.703125 4.96875 -0.328125 C 4.488281 -0.015625 3.894531 0.140625 3.1875 0.140625 C 1.582031 0.140625 0.648438 -0.46875 0.390625 -1.6875 L 1.28125 -1.6875 C 1.414062 -0.925781 2.050781 -0.546875 3.1875 -0.546875 C 3.988281 -0.546875 4.550781 -0.769531 4.875 -1.21875 C 5 -1.394531 5.0625 -1.632812 5.0625 -1.9375 C 5.0625 -2.238281 4.945312 -2.484375 4.71875 -2.671875 C 4.382812 -2.941406 3.75 -3.191406 2.8125 -3.421875 Z M 2.8125 -3.421875 "/></g></g></g><path stroke-linecap="butt" transform="matrix(0.75, -0.000000000000000279, 0.000000000000000279, 0.75, 122.77816, 258.527589)" fill="none" stroke-linejoin="miter" d="M -0.00108785 0.499672 L 173.077049 0.499672 " stroke="#000000" stroke-width="1" stroke-opacity="1" stroke-miterlimit="4"/></svg>