<svg xmlns="http://www.w3.org/2000/svg" xmlns:xlink="http://www.w3.org/1999/xlink" width="500" zoomAndPan="magnify" viewBox="0 0 375 374.999991" height="500" preserveAspectRatio="xMidYMid meet" version="1.0"><defs><g/><clipPath id="ee8ba9aeb1"><path d="M 147.15625 62.355469 L 179.371094 62.355469 L 179.371094 125.945312 L 147.15625 125.945312 Z M 147.15625 62.355469 " clip-rule="nonzero"/></clipPath><clipPath id="e15a1e587c"><path d="M 178.5625 5.800781 L 209.945312 5.800781 L 209.945312 69.550781 L 178.5625 69.550781 Z M 178.5625 5.800781 " clip-rule="nonzero"/></clipPath></defs><g fill="#000000" fill-opacity="1"><g transform="translate(121.057336, 59.999996)"><g><path d="M 43.21875 0 L 1.765625 0 L 38.734375 -58.453125 L 21.90625 -58.453125 C 18.519531 -58.453125 15.507812 -58.128906 12.875 -57.484375 C 10.238281 -56.835938 8.171875 -55.976562 6.671875 -54.90625 C 5.171875 -53.84375 4.421875 -52.644531 4.421875 -51.3125 L 4.421875 -51.078125 L 3.84375 -51.078125 L 3.84375 -59.046875 L 44.8125 -59.046875 L 7.859375 -0.59375 L 16.296875 -0.59375 C 17.242188 -0.59375 18.53125 -0.617188 20.15625 -0.671875 C 21.789062 -0.734375 23.601562 -0.863281 25.59375 -1.0625 C 27.582031 -1.257812 29.570312 -1.5625 31.5625 -1.96875 C 33.550781 -2.382812 35.378906 -2.925781 37.046875 -3.59375 C 38.722656 -4.269531 40.070312 -5.109375 41.09375 -6.109375 C 42.113281 -7.109375 42.625 -8.320312 42.625 -9.75 L 43.21875 -9.75 Z M 43.21875 0 "/></g></g></g><g fill="#000000" fill-opacity="1"><g transform="translate(173.362184, 130.690443)"><g><path d="M 1.765625 -59.046875 L 12.109375 -59.046875 L 45.171875 -8.625 L 45.171875 -34.359375 C 45.171875 -40.109375 44.695312 -44.742188 43.75 -48.265625 C 42.8125 -51.796875 41.582031 -54.375 40.0625 -56 C 38.550781 -57.632812 36.945312 -58.453125 35.25 -58.453125 L 35.25 -59.046875 L 51.1875 -59.046875 L 51.1875 -58.453125 C 49.5 -58.453125 48.269531 -57.941406 47.5 -56.921875 C 46.738281 -55.898438 46.257812 -54.238281 46.0625 -51.9375 C 45.863281 -49.632812 45.765625 -46.53125 45.765625 -42.625 L 45.765625 1.1875 L 45.171875 1.1875 L 7.796875 -55.734375 L 7.796875 -24.6875 C 7.796875 -18.976562 8.265625 -14.347656 9.203125 -10.796875 C 10.148438 -7.253906 11.378906 -4.664062 12.890625 -3.03125 C 14.410156 -1.40625 16.019531 -0.59375 17.71875 -0.59375 L 17.71875 0 L 1.765625 0 L 1.765625 -0.59375 C 3.460938 -0.59375 4.691406 -1.101562 5.453125 -2.125 C 6.222656 -3.144531 6.707031 -4.816406 6.90625 -7.140625 C 7.101562 -9.460938 7.203125 -12.554688 7.203125 -16.421875 L 7.203125 -42.625 C 7.203125 -46.53125 7.101562 -49.632812 6.90625 -51.9375 C 6.707031 -54.238281 6.222656 -55.898438 5.453125 -56.921875 C 4.691406 -57.941406 3.460938 -58.453125 1.765625 -58.453125 Z M 1.765625 -59.046875 "/></g></g></g><path stroke-linecap="butt" transform="matrix(0, -0.75, 0.75, 0, 177.810725, 119.999992)" fill="none" stroke-linejoin="miter" d="M -0.0000105067 1.002367 L 160 1.002367 " stroke="#000000" stroke-width="2" stroke-opacity="1" stroke-miterlimit="4"/><g clip-path="url(#ee8ba9aeb1)"><path fill="#100f0d" d="M 196.566406 104.066406 C 196.84375 104.066406 197.070312 103.839844 197.070312 103.5625 C 197.070312 103.28125 196.84375 103.054688 196.566406 103.054688 C 196.292969 103.054688 196.066406 103.28125 196.066406 103.5625 C 196.066406 103.839844 196.292969 104.066406 196.566406 104.066406 Z M 199.691406 101.503906 C 199.96875 101.503906 200.191406 101.277344 200.191406 101 C 200.191406 100.722656 199.96875 100.496094 199.691406 100.496094 C 199.414062 100.496094 199.191406 100.722656 199.191406 101 C 199.191406 101.277344 199.414062 101.503906 199.691406 101.503906 Z M 199.4375 93.59375 C 199.164062 93.59375 198.9375 93.820312 198.9375 94.097656 C 198.9375 94.375 199.164062 94.601562 199.4375 94.601562 C 199.714844 94.601562 199.941406 94.375 199.941406 94.097656 C 199.941406 93.820312 199.714844 93.59375 199.4375 93.59375 Z M 197.070312 74.765625 C 197.34375 74.765625 197.570312 74.539062 197.570312 74.261719 C 197.570312 73.984375 197.34375 73.757812 197.070312 73.757812 C 196.792969 73.757812 196.566406 73.984375 196.566406 74.261719 C 196.566406 74.539062 196.792969 74.765625 197.070312 74.765625 Z M 198.097656 86.832031 C 197.820312 86.832031 197.597656 87.058594 197.597656 87.339844 C 197.597656 87.617188 197.820312 87.84375 198.097656 87.84375 C 198.375 87.84375 198.597656 87.617188 198.597656 87.339844 C 198.597656 87.058594 198.375 86.832031 198.097656 86.832031 Z M 201.585938 88.894531 C 201.308594 88.894531 201.082031 89.121094 201.082031 89.398438 C 201.082031 89.679688 201.308594 89.90625 201.585938 89.90625 C 201.859375 89.90625 202.085938 89.679688 202.085938 89.398438 C 202.085938 89.121094 201.859375 88.894531 201.585938 88.894531 Z M 197.890625 121.453125 C 197.800781 121.902344 197.519531 122.28125 197.066406 122.28125 C 196.613281 122.28125 196.242188 121.910156 196.242188 121.453125 C 196.242188 120.992188 196.613281 120.621094 197.066406 120.621094 C 197.066406 120.621094 196.011719 120.402344 195.894531 121.535156 C 195.828125 122.210938 196.636719 122.421875 197.070312 122.421875 C 197.503906 122.421875 199.035156 122.332031 198.703125 119.578125 C 198.292969 116.214844 194.910156 110.503906 179.042969 100.191406 C 180.066406 100.859375 199.460938 113.671875 197.890625 121.453125 Z M 179 117.828125 L 179 118.949219 C 182.152344 118.949219 183.011719 111.433594 179 100.164062 C 184.199219 118.117188 179 117.828125 179 117.828125 Z M 179.011719 100.171875 C 179.023438 100.179688 179.035156 100.183594 179.042969 100.191406 C 179.03125 100.183594 179.019531 100.175781 179.011719 100.171875 C 179.003906 100.167969 179 100.164062 179 100.164062 C 179 100.164062 179.105469 100.253906 179.292969 100.414062 C 179.144531 100.28125 179.046875 100.195312 179.011719 100.171875 Z M 186.121094 110.972656 C 183.710938 113.351562 180.441406 104.796875 180.441406 104.796875 C 180.441406 104.796875 183.300781 114.265625 186.5625 111.914062 C 189.667969 109.675781 181.011719 101.910156 179.292969 100.414062 C 180.867188 101.835938 188.210938 108.910156 186.121094 110.972656 Z M 179.714844 61.914062 C 179.273438 61.589844 179.011719 61.445312 179.011719 61.445312 C 179.25 61.597656 179.484375 61.753906 179.714844 61.914062 Z M 210.480469 80.910156 C 199.691406 81.785156 188.839844 87.605469 186.457031 88.953125 C 186.390625 89.527344 186.292969 90.078125 186.171875 90.609375 C 191.773438 88.109375 195.511719 88.109375 195.511719 88.109375 C 191.800781 88.84375 187.386719 90.933594 185.875 91.714844 C 185.554688 92.734375 185.140625 93.648438 184.675781 94.46875 C 194.730469 91.875 200.191406 89.683594 200.191406 89.683594 C 195.59375 92.664062 184.941406 95.410156 183.804688 95.832031 C 183.21875 96.648438 182.59375 97.339844 182 97.917969 C 192.6875 97.496094 196.941406 96.019531 196.941406 96.019531 C 191.828125 99.054688 181.351562 98.984375 180.78125 98.980469 C 180.066406 99.542969 179.480469 99.898438 179.199219 100.058594 L 179.726562 99.816406 C 179.726562 99.816406 181.066406 99.429688 185.785156 99.515625 C 190.375 99.59375 195.375 98.535156 200.554688 96.105469 C 210.5625 91.410156 210.480469 80.910156 210.480469 80.910156 Z M 190.636719 80.117188 C 191.824219 78.242188 193.503906 77.042969 193.503906 77.042969 C 192.203125 78.355469 191.316406 80.101562 190.820312 81.265625 C 191.070312 82.992188 191.128906 84.328125 191.140625 85.023438 C 192.777344 81.484375 196.066406 76.320312 196.066406 76.320312 C 194.878906 80.375 193.351562 83.519531 192.625 84.898438 C 193.289062 84.625 194 84.347656 194.761719 84.070312 C 196.410156 81.402344 196.816406 78.652344 196.816406 78.652344 C 196.875 81.011719 196.3125 82.757812 195.925781 83.660156 C 196.824219 83.351562 197.777344 83.050781 198.789062 82.761719 L 198.683594 82.789062 C 201.929688 75.898438 199.234375 69.046875 199.234375 69.046875 C 194.304688 70.691406 190.847656 75.246094 189.847656 76.6875 C 190.195312 77.910156 190.453125 79.066406 190.636719 80.117188 Z M 179 100.152344 C 178.996094 100.152344 178.996094 100.152344 178.992188 100.148438 C 178.992188 100.152344 178.992188 100.152344 178.988281 100.152344 L 178.992188 100.15625 Z M 178.789062 100.058594 C 178.503906 99.898438 177.921875 99.542969 177.207031 98.980469 C 176.636719 98.984375 166.160156 99.054688 161.046875 96.019531 C 161.046875 96.019531 165.300781 97.496094 175.988281 97.917969 C 175.394531 97.339844 174.769531 96.648438 174.183594 95.832031 C 173.046875 95.410156 162.394531 92.664062 157.796875 89.683594 C 157.796875 89.683594 163.257812 91.875 173.3125 94.46875 C 172.847656 93.648438 172.433594 92.734375 172.113281 91.714844 C 170.601562 90.933594 166.1875 88.84375 162.476562 88.109375 C 162.476562 88.109375 166.214844 88.109375 171.816406 90.609375 C 171.695312 90.078125 171.597656 89.527344 171.53125 88.953125 C 169.148438 87.605469 158.296875 81.785156 147.507812 80.910156 C 147.507812 80.910156 147.425781 91.410156 157.433594 96.105469 C 162.613281 98.535156 167.613281 99.59375 172.199219 99.515625 C 176.921875 99.429688 178.261719 99.816406 178.261719 99.816406 Z M 159.304688 82.789062 L 159.199219 82.761719 C 160.207031 83.050781 161.164062 83.351562 162.058594 83.660156 C 161.675781 82.757812 161.113281 81.011719 161.171875 78.652344 C 161.171875 78.652344 161.578125 81.402344 163.226562 84.070312 C 163.988281 84.347656 164.699219 84.625 165.363281 84.898438 C 164.636719 83.519531 163.109375 80.375 161.921875 76.320312 C 161.921875 76.320312 165.210938 81.484375 166.847656 85.023438 C 166.859375 84.328125 166.917969 82.992188 167.164062 81.265625 C 166.671875 80.101562 165.785156 78.355469 164.484375 77.042969 C 164.484375 77.042969 166.164062 78.242188 167.347656 80.117188 C 167.535156 79.066406 167.792969 77.910156 168.136719 76.6875 C 167.140625 75.246094 163.683594 70.691406 158.753906 69.046875 C 158.753906 69.046875 156.058594 75.898438 159.304688 82.789062 Z M 195.054688 105.941406 C 185.019531 104.785156 184.734375 101.609375 179 100.164062 C 183.59375 100.652344 185.726562 103.933594 195.242188 105.03125 C 203.925781 106.035156 209.355469 102.726562 209.355469 102.726562 C 207.632812 99.085938 203.03125 97.621094 201.332031 97.191406 C 197.980469 99.011719 194.332031 99.691406 190.882812 99.921875 C 192.074219 100.332031 194.222656 101 196.300781 101.246094 C 196.300781 101.246094 191.476562 100.925781 188.871094 100.011719 C 187.429688 100.046875 186.046875 100.023438 184.757812 100 C 185.347656 100.25 186.445312 100.738281 187.230469 101.1875 C 188.347656 101.832031 191.503906 102.996094 193.496094 103.054688 C 193.707031 103.0625 189.21875 103.027344 186.5625 101.503906 C 184.941406 100.574219 183.789062 100.15625 183.136719 99.96875 C 181.523438 99.949219 180.117188 99.964844 179.015625 100.160156 C 179.015625 100.160156 179.011719 100.164062 179.011719 100.164062 C 179.011719 100.164062 179.015625 100.160156 179.015625 100.160156 C 179.011719 100.160156 179.011719 100.160156 179.007812 100.160156 C 179.007812 100.160156 179.011719 100.164062 179.011719 100.164062 C 179.011719 100.164062 179.007812 100.160156 179.007812 100.160156 L 179.011719 100.164062 L 178.976562 100.164062 L 178.980469 100.160156 C 178.976562 100.160156 178.976562 100.164062 178.976562 100.164062 C 178.976562 100.164062 178.976562 100.160156 178.980469 100.160156 C 178.976562 100.160156 178.976562 100.160156 178.972656 100.160156 C 178.972656 100.160156 178.976562 100.164062 178.976562 100.164062 C 178.976562 100.164062 178.972656 100.160156 178.972656 100.160156 C 177.871094 99.964844 176.464844 99.949219 174.851562 99.96875 C 174.199219 100.15625 173.046875 100.574219 171.425781 101.503906 C 168.769531 103.027344 164.28125 103.0625 164.492188 103.054688 C 166.484375 102.996094 169.640625 101.832031 170.757812 101.1875 C 171.542969 100.738281 172.640625 100.25 173.230469 100 C 171.941406 100.023438 170.558594 100.046875 169.117188 100.011719 C 166.507812 100.925781 161.6875 101.246094 161.6875 101.246094 C 163.765625 101 165.914062 100.332031 167.105469 99.921875 C 163.65625 99.691406 160.007812 99.011719 156.65625 97.191406 C 154.953125 97.621094 150.351562 99.085938 148.632812 102.726562 C 148.632812 102.726562 154.0625 106.035156 162.746094 105.03125 C 172.261719 103.933594 174.390625 100.652344 178.988281 100.164062 C 173.253906 101.609375 172.96875 104.785156 162.933594 105.941406 C 153.78125 106.996094 148.3125 102.765625 148.3125 102.765625 C 150.035156 98.140625 155.765625 96.695312 156.167969 96.917969 C 155.742188 96.671875 155.320312 96.40625 154.90625 96.117188 C 146.59375 90.335938 147.167969 80.511719 147.167969 80.511719 C 151.316406 80.898438 155.003906 81.625 158.183594 82.480469 L 157.945312 82.414062 C 157.945312 82.414062 155.195312 76.175781 158.632812 68.660156 C 158.632812 68.660156 164.855469 70.761719 168.488281 75.539062 C 169.984375 70.933594 172.839844 65.675781 178.273438 61.914062 C 176.023438 63.574219 169.066406 69.953125 167.949219 86.042969 C 169.746094 86.898438 170.929688 87.601562 171.445312 87.925781 C 171.433594 87.65625 171.425781 87.378906 171.425781 87.101562 C 171.425781 77.625 176.398438 73.792969 178.976562 72.347656 C 178.976562 72.347656 172.332031 76.316406 172.332031 87.28125 C 172.332031 95.820312 177.925781 99.53125 178.847656 100.085938 L 178.988281 100.152344 C 178.992188 100.152344 178.992188 100.152344 178.992188 100.148438 C 178.980469 100.136719 178.953125 100.121094 178.917969 100.09375 C 178.945312 100.113281 178.96875 100.128906 178.992188 100.148438 C 179.019531 100.128906 179.042969 100.113281 179.070312 100.09375 C 179.035156 100.121094 179.007812 100.136719 178.996094 100.148438 C 178.996094 100.152344 178.996094 100.152344 179 100.152344 L 179.140625 100.085938 C 180.0625 99.53125 185.65625 95.820312 185.65625 87.28125 C 185.65625 76.316406 179.011719 72.347656 179.011719 72.347656 C 181.589844 73.792969 186.5625 77.625 186.5625 87.101562 C 186.5625 87.378906 186.554688 87.65625 186.542969 87.925781 C 187.058594 87.601562 188.242188 86.898438 190.039062 86.042969 C 188.921875 69.953125 181.964844 63.574219 179.714844 61.914062 C 185.148438 65.675781 188.003906 70.933594 189.5 75.539062 C 193.132812 70.761719 199.355469 68.660156 199.355469 68.660156 C 202.792969 76.175781 200.042969 82.414062 200.042969 82.414062 L 199.804688 82.480469 C 202.984375 81.625 206.671875 80.898438 210.820312 80.511719 C 210.820312 80.511719 211.394531 90.335938 203.082031 96.117188 C 202.667969 96.40625 202.246094 96.671875 201.820312 96.917969 C 202.21875 96.695312 207.953125 98.140625 209.675781 102.765625 C 209.675781 102.765625 204.207031 106.996094 195.054688 105.941406 Z M 179.34375 120.859375 C 179.34375 120.582031 179.121094 120.355469 178.84375 120.355469 C 178.570312 120.355469 178.34375 120.582031 178.34375 120.859375 C 178.34375 121.136719 178.570312 121.363281 178.84375 121.363281 C 179.121094 121.363281 179.34375 121.136719 179.34375 120.859375 Z M 197.570312 123.601562 C 197.292969 123.601562 197.070312 123.828125 197.070312 124.105469 C 197.070312 124.386719 197.292969 124.613281 197.570312 124.613281 C 197.847656 124.613281 198.070312 124.386719 198.070312 124.105469 C 198.070312 123.828125 197.847656 123.601562 197.570312 123.601562 Z M 161.167969 123.601562 C 160.890625 123.601562 160.664062 123.828125 160.664062 124.105469 C 160.664062 124.386719 160.890625 124.613281 161.167969 124.613281 C 161.441406 124.613281 161.667969 124.386719 161.667969 124.105469 C 161.667969 123.828125 161.441406 123.601562 161.167969 123.601562 Z M 161.417969 103.054688 C 161.144531 103.054688 160.917969 103.28125 160.917969 103.5625 C 160.917969 103.839844 161.144531 104.066406 161.417969 104.066406 C 161.695312 104.066406 161.921875 103.839844 161.921875 103.5625 C 161.921875 103.28125 161.695312 103.054688 161.417969 103.054688 Z M 158.296875 100.496094 C 158.019531 100.496094 157.796875 100.722656 157.796875 101 C 157.796875 101.277344 158.019531 101.503906 158.296875 101.503906 C 158.574219 101.503906 158.796875 101.277344 158.796875 101 C 158.796875 100.722656 158.574219 100.496094 158.296875 100.496094 Z M 158.546875 93.59375 C 158.273438 93.59375 158.046875 93.820312 158.046875 94.097656 C 158.046875 94.375 158.273438 94.601562 158.546875 94.601562 C 158.824219 94.601562 159.050781 94.375 159.050781 94.097656 C 159.050781 93.820312 158.824219 93.59375 158.546875 93.59375 Z M 160.917969 74.765625 C 161.195312 74.765625 161.417969 74.539062 161.417969 74.261719 C 161.417969 73.984375 161.195312 73.757812 160.917969 73.757812 C 160.644531 73.757812 160.417969 73.984375 160.417969 74.261719 C 160.417969 74.539062 160.644531 74.765625 160.917969 74.765625 Z M 178.492188 78.148438 C 178.492188 78.425781 178.714844 78.652344 178.992188 78.652344 C 179.269531 78.652344 179.492188 78.425781 179.492188 78.148438 C 179.492188 77.871094 179.269531 77.644531 178.992188 77.644531 C 178.714844 77.644531 178.492188 77.871094 178.492188 78.148438 Z M 183.253906 83.589844 C 183.253906 83.308594 183.03125 83.082031 182.753906 83.082031 C 182.476562 83.082031 182.253906 83.308594 182.253906 83.589844 C 182.253906 83.867188 182.476562 84.09375 182.753906 84.09375 C 183.03125 84.09375 183.253906 83.867188 183.253906 83.589844 Z M 174.230469 83.589844 C 174.230469 83.867188 174.457031 84.09375 174.730469 84.09375 C 175.007812 84.09375 175.234375 83.867188 175.234375 83.589844 C 175.234375 83.308594 175.007812 83.082031 174.730469 83.082031 C 174.457031 83.082031 174.230469 83.308594 174.230469 83.589844 Z M 159.851562 87.84375 C 160.128906 87.84375 160.351562 87.617188 160.351562 87.339844 C 160.351562 87.058594 160.128906 86.832031 159.851562 86.832031 C 159.574219 86.832031 159.351562 87.058594 159.351562 87.339844 C 159.351562 87.617188 159.574219 87.84375 159.851562 87.84375 Z M 156.402344 88.894531 C 156.125 88.894531 155.902344 89.121094 155.902344 89.398438 C 155.902344 89.679688 156.125 89.90625 156.402344 89.90625 C 156.679688 89.90625 156.902344 89.679688 156.902344 89.398438 C 156.902344 89.121094 156.679688 88.894531 156.402344 88.894531 Z M 178.84375 123.136719 C 179.4375 123.136719 179.914062 123.765625 179.914062 124.539062 C 179.914062 125.316406 179.4375 125.945312 178.84375 125.945312 C 179.613281 125.945312 180.238281 125.316406 180.238281 124.539062 C 180.238281 123.765625 179.613281 123.136719 178.84375 123.136719 Z M 177.773438 124.539062 C 177.773438 123.765625 178.253906 123.136719 178.84375 123.136719 C 178.074219 123.136719 177.453125 123.765625 177.453125 124.539062 C 177.453125 125.316406 178.074219 125.945312 178.84375 125.945312 C 178.253906 125.945312 177.773438 125.316406 177.773438 124.539062 Z M 180.195312 67.21875 C 180.195312 68.199219 179.589844 68.992188 178.84375 68.992188 C 179.816406 68.992188 180.601562 68.199219 180.601562 67.21875 C 180.601562 66.242188 179.816406 65.449219 178.84375 65.449219 C 179.589844 65.449219 180.195312 66.242188 180.195312 67.21875 Z M 177.085938 67.21875 C 177.085938 68.199219 177.875 68.992188 178.84375 68.992188 C 178.097656 68.992188 177.496094 68.199219 177.496094 67.21875 C 177.496094 66.242188 178.097656 65.449219 178.84375 65.449219 C 177.875 65.449219 177.085938 66.242188 177.085938 67.21875 Z M 175.4375 96.179688 C 173.265625 92.773438 175.921875 90.410156 177.300781 90.691406 C 178.714844 90.976562 178.976562 92.675781 178.976562 92.675781 C 178.976562 92.628906 178.972656 92.585938 178.96875 92.539062 L 179.011719 92.675781 L 179.15625 92.160156 C 179.351562 91.636719 179.78125 90.875 180.683594 90.691406 C 182.066406 90.410156 184.722656 92.773438 182.550781 96.179688 C 181.144531 98.382812 179.472656 99.773438 179.070312 100.09375 C 183.746094 96.511719 184.179688 94.117188 183.945312 92.695312 C 183.898438 92.414062 183.828125 92.152344 183.738281 91.90625 C 183.875 90.835938 184.117188 87.964844 183.242188 85.433594 C 183.242188 85.433594 183.566406 88.355469 182.960938 90.734375 C 182.570312 90.394531 182.078125 90.199219 181.488281 90.199219 C 180.589844 90.195312 179.800781 90.675781 179.367188 91.402344 C 179.367188 88.832031 179.011719 82.507812 179.011719 82.507812 C 178.558594 85.332031 178.621094 91.402344 178.621094 91.402344 C 178.1875 90.679688 177.398438 90.195312 176.5 90.199219 C 175.894531 90.199219 175.394531 90.40625 175 90.757812 C 174.382812 88.375 174.714844 85.433594 174.714844 85.433594 C 173.816406 88.023438 174.089844 90.96875 174.222656 91.980469 C 174.144531 92.203125 174.085938 92.441406 174.042969 92.695312 C 173.804688 94.117188 174.238281 96.511719 178.917969 100.09375 C 178.515625 99.773438 176.84375 98.382812 175.4375 96.179688 Z M 178.945312 100.191406 C 178.953125 100.183594 178.964844 100.179688 178.976562 100.171875 C 178.941406 100.195312 178.84375 100.28125 178.695312 100.414062 C 178.882812 100.253906 178.988281 100.164062 178.988281 100.164062 C 178.988281 100.164062 178.980469 100.167969 178.976562 100.171875 C 178.96875 100.175781 178.957031 100.183594 178.945312 100.191406 Z M 159.285156 119.578125 C 158.953125 122.332031 160.484375 122.421875 160.917969 122.421875 C 161.351562 122.421875 162.160156 122.210938 162.09375 121.535156 C 161.976562 120.402344 160.921875 120.621094 160.921875 120.621094 C 161.375 120.621094 161.746094 120.992188 161.746094 121.453125 C 161.746094 121.910156 161.375 122.28125 160.921875 122.28125 C 160.464844 122.28125 160.1875 121.902344 160.097656 121.453125 C 158.527344 113.671875 177.921875 100.859375 178.945312 100.191406 C 163.078125 110.503906 159.695312 116.214844 159.285156 119.578125 Z M 178.988281 118.949219 L 178.988281 117.828125 C 178.988281 117.828125 173.789062 118.117188 178.988281 100.164062 C 174.976562 111.433594 175.835938 118.949219 178.988281 118.949219 Z M 171.425781 111.914062 C 174.6875 114.265625 177.546875 104.796875 177.546875 104.796875 C 177.546875 104.796875 174.277344 113.351562 171.867188 110.972656 C 169.777344 108.910156 177.117188 101.835938 178.695312 100.414062 C 176.972656 101.910156 168.320312 109.675781 171.425781 111.914062 Z M 178.976562 61.445312 C 178.738281 61.597656 178.503906 61.753906 178.273438 61.914062 C 178.714844 61.589844 178.976562 61.445312 178.976562 61.445312 " fill-opacity="1" fill-rule="nonzero"/></g><g clip-path="url(#e15a1e587c)"><path fill="#100f0d" d="M 195.847656 47.925781 C 196.121094 47.925781 196.34375 47.703125 196.34375 47.429688 C 196.34375 47.152344 196.121094 46.929688 195.847656 46.929688 C 195.574219 46.929688 195.355469 47.152344 195.355469 47.429688 C 195.355469 47.703125 195.574219 47.925781 195.847656 47.925781 Z M 198.9375 45.394531 C 199.210938 45.394531 199.429688 45.171875 199.429688 44.894531 C 199.429688 44.621094 199.210938 44.398438 198.9375 44.398438 C 198.664062 44.398438 198.441406 44.621094 198.441406 44.894531 C 198.441406 45.171875 198.664062 45.394531 198.9375 45.394531 Z M 198.6875 37.574219 C 198.414062 37.574219 198.191406 37.796875 198.191406 38.074219 C 198.191406 38.347656 198.414062 38.574219 198.6875 38.574219 C 198.960938 38.574219 199.183594 38.347656 199.183594 38.074219 C 199.183594 37.796875 198.960938 37.574219 198.6875 37.574219 Z M 196.34375 18.96875 C 196.617188 18.96875 196.839844 18.746094 196.839844 18.46875 C 196.839844 18.191406 196.617188 17.96875 196.34375 17.96875 C 196.070312 17.96875 195.847656 18.191406 195.847656 18.46875 C 195.847656 18.746094 196.070312 18.96875 196.34375 18.96875 Z M 197.363281 30.894531 C 197.089844 30.894531 196.867188 31.117188 196.867188 31.394531 C 196.867188 31.667969 197.089844 31.894531 197.363281 31.894531 C 197.636719 31.894531 197.855469 31.667969 197.855469 31.394531 C 197.855469 31.117188 197.636719 30.894531 197.363281 30.894531 Z M 200.808594 32.933594 C 200.535156 32.933594 200.3125 33.15625 200.3125 33.429688 C 200.3125 33.707031 200.535156 33.929688 200.808594 33.929688 C 201.082031 33.929688 201.304688 33.707031 201.304688 33.429688 C 201.304688 33.15625 201.082031 32.933594 200.808594 32.933594 Z M 197.15625 65.109375 C 197.066406 65.554688 196.792969 65.933594 196.34375 65.933594 C 195.894531 65.933594 195.527344 65.5625 195.527344 65.109375 C 195.527344 64.65625 195.894531 64.289062 196.34375 64.289062 C 196.34375 64.289062 195.296875 64.074219 195.183594 65.191406 C 195.117188 65.863281 195.917969 66.066406 196.347656 66.066406 C 196.773438 66.066406 198.289062 65.980469 197.960938 63.257812 C 197.554688 59.933594 194.210938 54.289062 178.527344 44.097656 C 179.535156 44.757812 198.710938 57.421875 197.15625 65.109375 Z M 178.484375 61.527344 L 178.484375 62.636719 C 181.601562 62.636719 182.449219 55.210938 178.484375 44.070312 C 183.625 61.816406 178.484375 61.527344 178.484375 61.527344 Z M 178.496094 44.078125 C 178.507812 44.085938 178.515625 44.089844 178.527344 44.097656 C 178.515625 44.089844 178.503906 44.082031 178.496094 44.078125 C 178.488281 44.074219 178.484375 44.070312 178.484375 44.070312 C 178.484375 44.070312 178.589844 44.15625 178.773438 44.316406 C 178.628906 44.1875 178.53125 44.101562 178.496094 44.078125 Z M 185.523438 54.75 C 183.140625 57.105469 179.90625 48.648438 179.90625 48.648438 C 179.90625 48.648438 182.734375 58.007812 185.960938 55.683594 C 189.027344 53.46875 180.472656 45.796875 178.773438 44.316406 C 180.332031 45.722656 187.589844 52.714844 185.523438 54.75 Z M 179.191406 6.265625 C 178.753906 5.945312 178.496094 5.800781 178.496094 5.800781 C 178.730469 5.953125 178.960938 6.109375 179.191406 6.265625 Z M 209.601562 25.042969 C 198.9375 25.90625 188.207031 31.660156 185.851562 32.988281 C 185.789062 33.558594 185.691406 34.101562 185.570312 34.625 C 191.109375 32.15625 194.804688 32.15625 194.804688 32.15625 C 191.136719 32.882812 186.773438 34.949219 185.277344 35.71875 C 184.960938 36.726562 184.550781 37.628906 184.09375 38.441406 C 194.03125 35.878906 199.429688 33.710938 199.429688 33.710938 C 194.886719 36.65625 184.359375 39.371094 183.234375 39.789062 C 182.652344 40.59375 182.039062 41.277344 181.449219 41.847656 C 192.011719 41.433594 196.21875 39.972656 196.21875 39.972656 C 191.164062 42.976562 180.808594 42.90625 180.246094 42.898438 C 179.535156 43.457031 178.960938 43.808594 178.679688 43.96875 L 179.199219 43.726562 C 179.199219 43.726562 180.527344 43.347656 185.191406 43.425781 C 189.726562 43.507812 194.671875 42.460938 199.789062 40.058594 C 209.683594 35.421875 209.601562 25.042969 209.601562 25.042969 Z M 189.988281 24.257812 C 191.160156 22.40625 192.820312 21.21875 192.820312 21.21875 C 191.535156 22.515625 190.660156 24.242188 190.171875 25.390625 C 190.414062 27.097656 190.472656 28.417969 190.484375 29.105469 C 192.101562 25.609375 195.355469 20.503906 195.355469 20.503906 C 194.179688 24.511719 192.667969 27.617188 191.953125 28.980469 C 192.605469 28.710938 193.3125 28.4375 194.0625 28.164062 C 195.691406 25.527344 196.097656 22.808594 196.097656 22.808594 C 196.152344 25.140625 195.597656 26.863281 195.214844 27.757812 C 196.101562 27.453125 197.046875 27.15625 198.046875 26.867188 L 197.941406 26.898438 C 201.148438 20.085938 198.484375 13.3125 198.484375 13.3125 C 193.613281 14.941406 190.195312 19.441406 189.207031 20.867188 C 189.550781 22.074219 189.804688 23.21875 189.988281 24.257812 Z M 178.480469 44.058594 C 178.480469 44.058594 178.480469 44.058594 178.476562 44.058594 C 178.476562 44.058594 178.476562 44.058594 178.472656 44.058594 L 178.476562 44.0625 Z M 178.277344 43.96875 C 177.996094 43.808594 177.421875 43.457031 176.710938 42.898438 C 176.148438 42.90625 165.792969 42.976562 160.738281 39.972656 C 160.738281 39.972656 164.945312 41.433594 175.507812 41.847656 C 174.917969 41.277344 174.304688 40.59375 173.722656 39.789062 C 172.597656 39.371094 162.070312 36.65625 157.523438 33.710938 C 157.523438 33.710938 162.925781 35.878906 172.863281 38.441406 C 172.402344 37.628906 171.996094 36.726562 171.679688 35.71875 C 170.183594 34.949219 165.820312 32.882812 162.152344 32.15625 C 162.152344 32.15625 165.847656 32.15625 171.382812 34.625 C 171.265625 34.101562 171.167969 33.558594 171.101562 32.988281 C 168.746094 31.660156 158.019531 25.90625 147.355469 25.042969 C 147.355469 25.042969 147.273438 35.421875 157.164062 40.058594 C 162.285156 42.460938 167.230469 43.507812 171.761719 43.425781 C 176.429688 43.347656 177.753906 43.726562 177.753906 43.726562 Z M 159.015625 26.898438 L 158.910156 26.867188 C 159.910156 27.15625 160.851562 27.453125 161.738281 27.757812 C 161.359375 26.863281 160.800781 25.140625 160.859375 22.808594 C 160.859375 22.808594 161.261719 25.527344 162.894531 28.164062 C 163.644531 28.4375 164.347656 28.710938 165.003906 28.980469 C 164.289062 27.617188 162.777344 24.511719 161.601562 20.503906 C 161.601562 20.503906 164.855469 25.609375 166.472656 29.105469 C 166.484375 28.417969 166.542969 27.097656 166.785156 25.390625 C 166.296875 24.242188 165.417969 22.515625 164.136719 21.21875 C 164.136719 21.21875 165.796875 22.40625 166.96875 24.257812 C 167.152344 23.21875 167.40625 22.074219 167.746094 20.867188 C 166.761719 19.441406 163.34375 14.941406 158.472656 13.3125 C 158.472656 13.3125 155.808594 20.085938 159.015625 26.898438 Z M 194.351562 49.78125 C 184.433594 48.640625 184.152344 45.496094 178.484375 44.070312 C 183.027344 44.554688 185.132812 47.796875 194.539062 48.878906 C 203.121094 49.871094 208.488281 46.601562 208.488281 46.601562 C 206.789062 43.007812 202.238281 41.554688 200.558594 41.132812 C 197.246094 42.929688 193.636719 43.601562 190.230469 43.832031 C 191.410156 44.238281 193.53125 44.894531 195.582031 45.140625 C 195.582031 45.140625 190.816406 44.824219 188.242188 43.917969 C 186.816406 43.953125 185.449219 43.929688 184.175781 43.90625 C 184.757812 44.15625 185.84375 44.636719 186.617188 45.082031 C 187.726562 45.71875 190.84375 46.867188 192.8125 46.929688 C 193.019531 46.933594 188.585938 46.898438 185.960938 45.394531 C 184.355469 44.476562 183.21875 44.0625 182.574219 43.878906 C 180.980469 43.855469 179.589844 43.875 178.5 44.066406 C 178.5 44.066406 178.496094 44.070312 178.496094 44.070312 C 178.496094 44.070312 178.5 44.066406 178.5 44.066406 C 178.496094 44.066406 178.496094 44.066406 178.492188 44.066406 C 178.492188 44.066406 178.496094 44.070312 178.496094 44.070312 C 178.496094 44.070312 178.492188 44.066406 178.492188 44.066406 L 178.496094 44.070312 L 178.460938 44.070312 L 178.464844 44.066406 C 178.460938 44.066406 178.460938 44.070312 178.460938 44.070312 C 178.460938 44.070312 178.460938 44.066406 178.464844 44.066406 C 178.460938 44.066406 178.460938 44.066406 178.457031 44.066406 C 178.457031 44.066406 178.460938 44.070312 178.460938 44.070312 C 178.460938 44.070312 178.457031 44.066406 178.457031 44.066406 C 177.367188 43.875 175.976562 43.855469 174.382812 43.878906 C 173.738281 44.0625 172.597656 44.476562 170.996094 45.394531 C 168.371094 46.898438 163.933594 46.933594 164.140625 46.929688 C 166.113281 46.867188 169.230469 45.71875 170.335938 45.082031 C 171.113281 44.636719 172.199219 44.15625 172.78125 43.90625 C 171.507812 43.929688 170.136719 43.953125 168.714844 43.917969 C 166.136719 44.824219 161.371094 45.140625 161.371094 45.140625 C 163.425781 44.894531 165.546875 44.238281 166.726562 43.832031 C 163.320312 43.601562 159.710938 42.929688 156.398438 41.132812 C 154.714844 41.554688 150.167969 43.007812 148.46875 46.601562 C 148.46875 46.601562 153.835938 49.871094 162.417969 48.878906 C 171.824219 47.796875 173.929688 44.554688 178.472656 44.070312 C 172.804688 45.496094 172.523438 48.640625 162.601562 49.78125 C 153.554688 50.824219 148.152344 46.640625 148.152344 46.640625 C 149.851562 42.070312 155.519531 40.640625 155.917969 40.863281 C 155.496094 40.617188 155.078125 40.355469 154.667969 40.070312 C 146.449219 34.355469 147.019531 24.644531 147.019531 24.644531 C 151.117188 25.027344 154.765625 25.746094 157.90625 26.589844 L 157.671875 26.527344 C 157.671875 26.527344 154.953125 20.359375 158.351562 12.933594 C 158.351562 12.933594 164.5 15.011719 168.09375 19.734375 C 169.574219 15.179688 172.394531 9.980469 177.765625 6.265625 C 175.539062 7.90625 168.664062 14.210938 167.558594 30.113281 C 169.335938 30.960938 170.507812 31.65625 171.015625 31.972656 C 171.003906 31.707031 170.996094 31.433594 170.996094 31.160156 C 170.996094 21.792969 175.910156 18.007812 178.460938 16.578125 C 178.460938 16.578125 171.894531 20.5 171.894531 31.339844 C 171.894531 39.777344 177.421875 43.445312 178.332031 43.992188 L 178.472656 44.058594 C 178.476562 44.058594 178.476562 44.058594 178.476562 44.054688 C 178.464844 44.042969 178.4375 44.027344 178.40625 44 C 178.429688 44.019531 178.453125 44.035156 178.476562 44.054688 C 178.503906 44.035156 178.527344 44.019531 178.550781 44 C 178.515625 44.027344 178.492188 44.042969 178.476562 44.054688 C 178.480469 44.058594 178.480469 44.058594 178.480469 44.058594 L 178.625 43.992188 C 179.535156 43.445312 185.0625 39.777344 185.0625 31.339844 C 185.0625 20.5 178.496094 16.578125 178.496094 16.578125 C 181.046875 18.007812 185.960938 21.792969 185.960938 31.160156 C 185.960938 31.433594 185.953125 31.707031 185.941406 31.972656 C 186.449219 31.65625 187.621094 30.960938 189.394531 30.113281 C 188.292969 14.210938 181.414062 7.90625 179.191406 6.265625 C 184.5625 9.980469 187.382812 15.179688 188.863281 19.734375 C 192.457031 15.011719 198.601562 12.933594 198.601562 12.933594 C 202.003906 20.359375 199.28125 26.527344 199.28125 26.527344 L 199.050781 26.589844 C 202.191406 25.746094 205.839844 25.027344 209.9375 24.644531 C 209.9375 24.644531 210.503906 34.355469 202.289062 40.070312 C 201.878906 40.355469 201.460938 40.617188 201.039062 40.863281 C 201.4375 40.640625 207.105469 42.070312 208.804688 46.640625 C 208.804688 46.640625 203.402344 50.824219 194.351562 49.78125 Z M 178.824219 64.527344 C 178.824219 64.25 178.605469 64.027344 178.332031 64.027344 C 178.058594 64.027344 177.835938 64.25 177.835938 64.527344 C 177.835938 64.800781 178.058594 65.023438 178.332031 65.023438 C 178.605469 65.023438 178.824219 64.800781 178.824219 64.527344 Z M 196.839844 67.234375 C 196.566406 67.234375 196.34375 67.460938 196.34375 67.734375 C 196.34375 68.011719 196.566406 68.234375 196.839844 68.234375 C 197.113281 68.234375 197.335938 68.011719 197.335938 67.734375 C 197.335938 67.460938 197.113281 67.234375 196.839844 67.234375 Z M 160.855469 67.234375 C 160.582031 67.234375 160.359375 67.460938 160.359375 67.734375 C 160.359375 68.011719 160.582031 68.234375 160.855469 68.234375 C 161.128906 68.234375 161.351562 68.011719 161.351562 67.734375 C 161.351562 67.460938 161.128906 67.234375 160.855469 67.234375 Z M 161.105469 46.929688 C 160.832031 46.929688 160.613281 47.152344 160.613281 47.429688 C 160.613281 47.703125 160.832031 47.925781 161.105469 47.925781 C 161.378906 47.925781 161.601562 47.703125 161.601562 47.429688 C 161.601562 47.152344 161.378906 46.929688 161.105469 46.929688 Z M 158.019531 44.398438 C 157.746094 44.398438 157.523438 44.621094 157.523438 44.894531 C 157.523438 45.171875 157.746094 45.394531 158.019531 45.394531 C 158.292969 45.394531 158.515625 45.171875 158.515625 44.894531 C 158.515625 44.621094 158.292969 44.398438 158.019531 44.398438 Z M 158.269531 37.574219 C 157.996094 37.574219 157.773438 37.796875 157.773438 38.074219 C 157.773438 38.347656 157.996094 38.574219 158.269531 38.574219 C 158.542969 38.574219 158.761719 38.347656 158.761719 38.074219 C 158.761719 37.796875 158.542969 37.574219 158.269531 37.574219 Z M 160.613281 18.96875 C 160.886719 18.96875 161.105469 18.746094 161.105469 18.46875 C 161.105469 18.191406 160.886719 17.96875 160.613281 17.96875 C 160.339844 17.96875 160.117188 18.191406 160.117188 18.46875 C 160.117188 18.746094 160.339844 18.96875 160.613281 18.96875 Z M 177.980469 22.3125 C 177.980469 22.585938 178.203125 22.808594 178.476562 22.808594 C 178.75 22.808594 178.972656 22.585938 178.972656 22.3125 C 178.972656 22.035156 178.75 21.8125 178.476562 21.8125 C 178.203125 21.8125 177.980469 22.035156 177.980469 22.3125 Z M 182.6875 27.6875 C 182.6875 27.410156 182.46875 27.1875 182.195312 27.1875 C 181.921875 27.1875 181.699219 27.410156 181.699219 27.6875 C 181.699219 27.960938 181.921875 28.183594 182.195312 28.183594 C 182.46875 28.183594 182.6875 27.960938 182.6875 27.6875 Z M 173.769531 27.6875 C 173.769531 27.960938 173.992188 28.183594 174.265625 28.183594 C 174.539062 28.183594 174.761719 27.960938 174.761719 27.6875 C 174.761719 27.410156 174.539062 27.1875 174.265625 27.1875 C 173.992188 27.1875 173.769531 27.410156 173.769531 27.6875 Z M 159.554688 31.894531 C 159.828125 31.894531 160.050781 31.667969 160.050781 31.394531 C 160.050781 31.117188 159.828125 30.894531 159.554688 30.894531 C 159.28125 30.894531 159.0625 31.117188 159.0625 31.394531 C 159.0625 31.667969 159.28125 31.894531 159.554688 31.894531 Z M 156.148438 32.933594 C 155.875 32.933594 155.652344 33.15625 155.652344 33.429688 C 155.652344 33.707031 155.875 33.929688 156.148438 33.929688 C 156.421875 33.929688 156.644531 33.707031 156.644531 33.429688 C 156.644531 33.15625 156.421875 32.933594 156.148438 32.933594 Z M 178.332031 66.777344 C 178.914062 66.777344 179.386719 67.398438 179.386719 68.164062 C 179.386719 68.929688 178.914062 69.550781 178.332031 69.550781 C 179.089844 69.550781 179.707031 68.929688 179.707031 68.164062 C 179.707031 67.398438 179.089844 66.777344 178.332031 66.777344 Z M 177.273438 68.164062 C 177.273438 67.398438 177.746094 66.777344 178.332031 66.777344 C 177.570312 66.777344 176.953125 67.398438 176.953125 68.164062 C 176.953125 68.929688 177.570312 69.550781 178.332031 69.550781 C 177.746094 69.550781 177.273438 68.929688 177.273438 68.164062 Z M 179.664062 11.511719 C 179.664062 12.476562 179.066406 13.261719 178.332031 13.261719 C 179.289062 13.261719 180.070312 12.476562 180.070312 11.511719 C 180.070312 10.542969 179.289062 9.757812 178.332031 9.757812 C 179.066406 9.757812 179.664062 10.542969 179.664062 11.511719 Z M 176.59375 11.511719 C 176.59375 12.476562 177.371094 13.261719 178.332031 13.261719 C 177.59375 13.261719 176.996094 12.476562 176.996094 11.511719 C 176.996094 10.542969 177.59375 9.757812 178.332031 9.757812 C 177.371094 9.757812 176.59375 10.542969 176.59375 11.511719 Z M 174.960938 40.132812 C 172.8125 36.765625 175.441406 34.429688 176.804688 34.707031 C 178.203125 34.992188 178.460938 36.667969 178.460938 36.667969 C 178.460938 36.621094 178.457031 36.578125 178.453125 36.535156 L 178.496094 36.667969 L 178.636719 36.160156 C 178.828125 35.640625 179.257812 34.890625 180.148438 34.707031 C 181.515625 34.429688 184.140625 36.765625 181.996094 40.132812 C 180.605469 42.3125 178.953125 43.683594 178.550781 44 C 183.175781 40.460938 183.605469 38.09375 183.371094 36.6875 C 183.328125 36.414062 183.257812 36.152344 183.167969 35.910156 C 183.304688 34.851562 183.542969 32.015625 182.675781 29.511719 C 182.675781 29.511719 183 32.398438 182.398438 34.75 C 182.015625 34.414062 181.527344 34.222656 180.945312 34.21875 C 180.054688 34.214844 179.277344 34.695312 178.847656 35.410156 C 178.847656 32.867188 178.496094 26.617188 178.496094 26.617188 C 178.046875 29.410156 178.109375 35.410156 178.109375 35.410156 C 177.679688 34.695312 176.902344 34.214844 176.011719 34.21875 C 175.414062 34.222656 174.917969 34.425781 174.527344 34.773438 C 173.921875 32.417969 174.246094 29.511719 174.246094 29.511719 C 173.359375 32.070312 173.628906 34.980469 173.765625 35.980469 C 173.6875 36.203125 173.625 36.4375 173.582031 36.6875 C 173.351562 38.09375 173.777344 40.460938 178.40625 44 C 178.003906 43.683594 176.351562 42.3125 174.960938 40.132812 Z M 178.429688 44.097656 C 178.4375 44.089844 178.449219 44.085938 178.460938 44.078125 C 178.425781 44.101562 178.328125 44.1875 178.183594 44.316406 C 178.367188 44.15625 178.472656 44.070312 178.472656 44.070312 C 178.472656 44.070312 178.464844 44.074219 178.460938 44.078125 C 178.453125 44.082031 178.441406 44.089844 178.429688 44.097656 Z M 158.996094 63.257812 C 158.667969 65.980469 160.183594 66.066406 160.609375 66.066406 C 161.039062 66.066406 161.839844 65.863281 161.769531 65.191406 C 161.65625 64.074219 160.613281 64.289062 160.613281 64.289062 C 161.0625 64.289062 161.429688 64.65625 161.429688 65.109375 C 161.429688 65.5625 161.0625 65.933594 160.613281 65.933594 C 160.164062 65.933594 159.890625 65.554688 159.800781 65.109375 C 158.246094 57.421875 177.417969 44.757812 178.429688 44.097656 C 162.746094 54.289062 159.402344 59.933594 158.996094 63.257812 Z M 178.472656 62.636719 L 178.472656 61.527344 C 178.472656 61.527344 173.332031 61.816406 178.472656 44.070312 C 174.503906 55.210938 175.355469 62.636719 178.472656 62.636719 Z M 170.996094 55.683594 C 174.21875 58.007812 177.046875 48.648438 177.046875 48.648438 C 177.046875 48.648438 173.816406 57.105469 171.433594 54.75 C 169.367188 52.714844 176.625 45.722656 178.183594 44.316406 C 176.480469 45.796875 167.925781 53.46875 170.996094 55.683594 Z M 178.460938 5.800781 C 178.222656 5.953125 177.992188 6.109375 177.765625 6.265625 C 178.203125 5.945312 178.460938 5.800781 178.460938 5.800781 " fill-opacity="1" fill-rule="nonzero"/></g><g fill="#000000" fill-opacity="1"><g transform="translate(103.307861, 149.160665)"><g><path d="M 8.84375 -2.265625 L 8.84375 0 L 0.328125 0 L 5.046875 -9.046875 L 0.671875 -9.046875 L 0.671875 -11.3125 L 9.109375 -11.3125 L 4.390625 -2.265625 Z M 8.84375 -2.265625 "/></g></g></g><g fill="#000000" fill-opacity="1"><g transform="translate(114.659212, 149.160665)"><g><path d="M 3.484375 0 L 1 0 L 1 -11.3125 L 3.484375 -11.3125 Z M 3.484375 0 "/></g></g></g><g fill="#000000" fill-opacity="1"><g transform="translate(121.058637, 149.160665)"><g><path d="M 6.453125 -3.3125 C 6.453125 -3.675781 6.316406 -3.992188 6.046875 -4.265625 C 5.773438 -4.535156 5.453125 -4.671875 5.078125 -4.671875 L 3.484375 -4.671875 L 3.484375 -1.9375 L 5.078125 -1.9375 C 5.453125 -1.9375 5.773438 -2.070312 6.046875 -2.34375 C 6.316406 -2.613281 6.453125 -2.9375 6.453125 -3.3125 Z M 5.671875 -8.03125 C 5.671875 -8.394531 5.539062 -8.703125 5.28125 -8.953125 C 5.019531 -9.210938 4.710938 -9.34375 4.359375 -9.34375 L 3.484375 -9.34375 L 3.484375 -6.71875 L 4.359375 -6.71875 C 4.710938 -6.71875 5.019531 -6.847656 5.28125 -7.109375 C 5.539062 -7.367188 5.671875 -7.675781 5.671875 -8.03125 Z M 9 -3.234375 C 9 -2.265625 8.695312 -1.484375 8.09375 -0.890625 C 7.5 -0.296875 6.65625 0 5.5625 0 L 1 0 L 1 -11.3125 L 4.890625 -11.3125 C 5.535156 -11.3125 6.09375 -11.179688 6.5625 -10.921875 C 7.03125 -10.671875 7.394531 -10.332031 7.65625 -9.90625 C 7.914062 -9.476562 8.046875 -9.003906 8.046875 -8.484375 C 8.046875 -7.898438 7.925781 -7.398438 7.6875 -6.984375 C 7.445312 -6.578125 7.117188 -6.273438 6.703125 -6.078125 C 7.328125 -5.941406 7.863281 -5.625 8.3125 -5.125 C 8.769531 -4.632812 9 -4.003906 9 -3.234375 Z M 9 -3.234375 "/></g></g></g><g fill="#000000" fill-opacity="1"><g transform="translate(132.127492, 149.160665)"><g><path d="M 9.71875 -5.671875 C 9.71875 -6.253906 9.5625 -6.796875 9.25 -7.296875 C 8.945312 -7.804688 8.539062 -8.21875 8.03125 -8.53125 C 7.53125 -8.84375 6.988281 -9 6.40625 -9 C 5.820312 -9 5.273438 -8.84375 4.765625 -8.53125 C 4.253906 -8.21875 3.84375 -7.804688 3.53125 -7.296875 C 3.226562 -6.796875 3.078125 -6.253906 3.078125 -5.671875 C 3.078125 -5.085938 3.226562 -4.539062 3.53125 -4.03125 C 3.84375 -3.53125 4.253906 -3.117188 4.765625 -2.796875 C 5.273438 -2.484375 5.820312 -2.328125 6.40625 -2.328125 C 6.988281 -2.328125 7.53125 -2.484375 8.03125 -2.796875 C 8.539062 -3.117188 8.945312 -3.53125 9.25 -4.03125 C 9.5625 -4.539062 9.71875 -5.085938 9.71875 -5.671875 Z M 12.21875 -5.65625 C 12.21875 -4.875 12.0625 -4.128906 11.75 -3.421875 C 11.4375 -2.722656 11.007812 -2.101562 10.46875 -1.5625 C 9.9375 -1.03125 9.320312 -0.609375 8.625 -0.296875 C 7.925781 0.015625 7.1875 0.171875 6.40625 0.171875 C 5.625 0.171875 4.878906 0.015625 4.171875 -0.296875 C 3.472656 -0.609375 2.851562 -1.03125 2.3125 -1.5625 C 1.78125 -2.101562 1.359375 -2.722656 1.046875 -3.421875 C 0.734375 -4.128906 0.578125 -4.875 0.578125 -5.65625 C 0.578125 -6.4375 0.734375 -7.175781 1.046875 -7.875 C 1.359375 -8.570312 1.78125 -9.191406 2.3125 -9.734375 C 2.851562 -10.273438 3.472656 -10.695312 4.171875 -11 C 4.878906 -11.3125 5.625 -11.46875 6.40625 -11.46875 C 7.1875 -11.46875 7.925781 -11.3125 8.625 -11 C 9.320312 -10.695312 9.9375 -10.273438 10.46875 -9.734375 C 11.007812 -9.191406 11.4375 -8.570312 11.75 -7.875 C 12.0625 -7.175781 12.21875 -6.4375 12.21875 -5.65625 Z M 12.21875 -5.65625 "/></g></g></g><g fill="#000000" fill-opacity="1"><g transform="translate(146.835513, 149.160665)"><g><path d="M 7.59375 -11.3125 L 10.09375 -11.3125 L 10.09375 -4.40625 C 10.09375 -2.894531 9.679688 -1.753906 8.859375 -0.984375 C 8.035156 -0.210938 6.890625 0.171875 5.421875 0.171875 C 3.941406 0.171875 2.789062 -0.210938 1.96875 -0.984375 C 1.15625 -1.753906 0.75 -2.894531 0.75 -4.40625 L 0.75 -11.3125 L 3.234375 -11.3125 L 3.234375 -4.765625 C 3.234375 -3.992188 3.382812 -3.394531 3.6875 -2.96875 C 4 -2.539062 4.578125 -2.328125 5.421875 -2.328125 C 6.273438 -2.328125 6.847656 -2.539062 7.140625 -2.96875 C 7.441406 -3.394531 7.59375 -3.992188 7.59375 -4.765625 Z M 7.59375 -11.3125 "/></g></g></g><g fill="#000000" fill-opacity="1"><g transform="translate(159.582702, 149.160665)"><g><path d="M 1 0 L 1 -11.3125 L 3.484375 -11.3125 L 3.484375 -2.265625 L 7.546875 -2.265625 L 7.546875 0 Z M 1 0 "/></g></g></g><g fill="#000000" fill-opacity="1"><g transform="translate(169.621293, 149.160665)"><g><path d="M 7.546875 -2.265625 L 7.546875 0 L 1 0 L 1 -11.3125 L 7.546875 -11.3125 L 7.546875 -9.046875 L 3.484375 -9.046875 L 3.484375 -6.796875 L 7.375 -6.796875 L 7.375 -4.53125 L 3.484375 -4.53125 L 3.484375 -2.265625 Z M 7.546875 -2.265625 "/></g></g></g><g fill="#000000" fill-opacity="1"><g transform="translate(180.075316, 149.160665)"><g><path d="M 5.796875 -9.046875 L 5.796875 0 L 3.3125 0 L 3.3125 -9.046875 L 0.078125 -9.046875 L 0.078125 -11.3125 L 9.03125 -11.3125 L 9.03125 -9.046875 Z M 5.796875 -9.046875 "/></g></g></g><g fill="#000000" fill-opacity="1"><g transform="translate(191.094322, 149.160665)"><g><path d="M 5.796875 -9.046875 L 5.796875 0 L 3.3125 0 L 3.3125 -9.046875 L 0.078125 -9.046875 L 0.078125 -11.3125 L 9.03125 -11.3125 L 9.03125 -9.046875 Z M 5.796875 -9.046875 "/></g></g></g><g fill="#000000" fill-opacity="1"><g transform="translate(202.113328, 149.160665)"><g><path d="M 7.546875 -2.265625 L 7.546875 0 L 1 0 L 1 -11.3125 L 7.546875 -11.3125 L 7.546875 -9.046875 L 3.484375 -9.046875 L 3.484375 -6.796875 L 7.375 -6.796875 L 7.375 -4.53125 L 3.484375 -4.53125 L 3.484375 -2.265625 Z M 7.546875 -2.265625 "/></g></g></g><g fill="#000000" fill-opacity="1"><g transform="translate(212.567345, 149.160665)"><g/></g></g><g fill="#000000" fill-opacity="1"><g transform="translate(218.634429, 149.160665)"><g><path d="M 9.875 0 L 7.375 0 L 3.484375 -7.046875 L 3.484375 0 L 1 0 L 1 -11.3125 L 3.484375 -11.3125 L 7.375 -4.25 L 7.375 -11.3125 L 9.875 -11.3125 Z M 9.875 0 "/></g></g></g><g fill="#000000" fill-opacity="1"><g transform="translate(231.414847, 149.160665)"><g><path d="M 7.15625 -4.328125 L 5.71875 -8.34375 L 4.296875 -4.328125 Z M 11.375 0 L 8.6875 0 L 7.875 -2.28125 L 3.578125 -2.28125 L 2.765625 0 L 0.078125 0 L 4.671875 -11.3125 L 6.78125 -11.3125 Z M 11.375 0 "/></g></g></g><g fill="#000000" fill-opacity="1"><g transform="translate(244.776876, 149.160665)"><g><path d="M 3.484375 0 L 1 0 L 1 -11.3125 L 3.484375 -11.3125 Z M 3.484375 0 "/></g></g></g><g fill="#000000" fill-opacity="1"><g transform="translate(251.176298, 149.160665)"><g><path d="M 1 0 L 1 -11.3125 L 3.484375 -11.3125 L 3.484375 -2.265625 L 7.546875 -2.265625 L 7.546875 0 Z M 1 0 "/></g></g></g><g fill="#000000" fill-opacity="1"><g transform="translate(261.214883, 149.160665)"><g><path d="M 5.390625 -1.765625 C 5.648438 -1.765625 5.9375 -1.804688 6.25 -1.890625 C 6.5625 -1.972656 6.828125 -2.109375 7.046875 -2.296875 C 7.273438 -2.492188 7.390625 -2.757812 7.390625 -3.09375 C 7.390625 -3.40625 7.269531 -3.65625 7.03125 -3.84375 C 6.800781 -4.03125 6.488281 -4.179688 6.09375 -4.296875 C 5.707031 -4.421875 5.285156 -4.535156 4.828125 -4.640625 C 4.367188 -4.742188 3.90625 -4.867188 3.4375 -5.015625 C 2.976562 -5.171875 2.550781 -5.367188 2.15625 -5.609375 C 1.769531 -5.859375 1.457031 -6.175781 1.21875 -6.5625 C 0.976562 -6.957031 0.859375 -7.453125 0.859375 -8.046875 C 0.859375 -8.628906 0.976562 -9.132812 1.21875 -9.5625 C 1.46875 -9.988281 1.796875 -10.34375 2.203125 -10.625 C 2.609375 -10.914062 3.0625 -11.128906 3.5625 -11.265625 C 4.070312 -11.398438 4.582031 -11.46875 5.09375 -11.46875 C 5.863281 -11.46875 6.585938 -11.34375 7.265625 -11.09375 C 7.941406 -10.851562 8.492188 -10.46875 8.921875 -9.9375 C 9.347656 -9.414062 9.570312 -8.722656 9.59375 -7.859375 L 7.1875 -7.859375 C 7.113281 -8.453125 6.90625 -8.859375 6.5625 -9.078125 C 6.21875 -9.304688 5.738281 -9.421875 5.125 -9.421875 C 4.882812 -9.421875 4.632812 -9.378906 4.375 -9.296875 C 4.113281 -9.222656 3.890625 -9.097656 3.703125 -8.921875 C 3.523438 -8.753906 3.4375 -8.53125 3.4375 -8.25 C 3.4375 -7.957031 3.554688 -7.726562 3.796875 -7.5625 C 4.035156 -7.394531 4.347656 -7.253906 4.734375 -7.140625 C 5.117188 -7.035156 5.546875 -6.929688 6.015625 -6.828125 C 6.484375 -6.734375 6.945312 -6.613281 7.40625 -6.46875 C 7.863281 -6.320312 8.285156 -6.125 8.671875 -5.875 C 9.066406 -5.625 9.378906 -5.300781 9.609375 -4.90625 C 9.847656 -4.507812 9.96875 -4 9.96875 -3.375 C 9.96875 -2.707031 9.832031 -2.140625 9.5625 -1.671875 C 9.300781 -1.210938 8.945312 -0.84375 8.5 -0.5625 C 8.050781 -0.28125 7.546875 -0.0703125 6.984375 0.0625 C 6.429688 0.195312 5.863281 0.265625 5.28125 0.265625 C 4.457031 0.265625 3.679688 0.125 2.953125 -0.15625 C 2.222656 -0.4375 1.632812 -0.867188 1.1875 -1.453125 C 0.738281 -2.046875 0.507812 -2.800781 0.5 -3.71875 L 3.03125 -3.71875 C 3.0625 -3.039062 3.304688 -2.546875 3.765625 -2.234375 C 4.234375 -1.921875 4.773438 -1.765625 5.390625 -1.765625 Z M 5.390625 -1.765625 "/></g></g></g><g fill="#000000" fill-opacity="1"><g transform="translate(101.557937, 174.932612)"><g><path d="M 6.421875 -3.625 C 6.421875 -3.09375 6.320312 -2.609375 6.125 -2.171875 C 5.925781 -1.722656 5.660156 -1.335938 5.328125 -1.015625 C 4.992188 -0.703125 4.601562 -0.457031 4.15625 -0.28125 C 3.695312 -0.09375 3.207031 0 2.6875 0 L 0.796875 0 L 0.796875 -7.234375 L 2.6875 -7.234375 C 3.207031 -7.234375 3.695312 -7.144531 4.15625 -6.96875 C 4.601562 -6.78125 4.992188 -6.53125 5.328125 -6.21875 C 5.660156 -5.894531 5.925781 -5.515625 6.125 -5.078125 C 6.320312 -4.628906 6.421875 -4.144531 6.421875 -3.625 Z M 5.6875 -3.625 C 5.6875 -4.445312 5.394531 -5.132812 4.8125 -5.6875 C 4.25 -6.21875 3.550781 -6.484375 2.71875 -6.484375 L 1.546875 -6.484375 L 1.546875 -0.75 L 2.71875 -0.75 C 3.550781 -0.75 4.25 -1.015625 4.8125 -1.546875 C 5.394531 -2.109375 5.6875 -2.800781 5.6875 -3.625 Z M 5.6875 -3.625 "/></g></g></g><g fill="#000000" fill-opacity="1"><g transform="translate(113.095447, 174.932612)"><g><path d="M 5.09375 0 L 0.796875 0 L 0.796875 -7.234375 L 5.09375 -7.234375 L 5.09375 -6.546875 L 1.546875 -6.546875 L 1.546875 -3.96875 L 4.984375 -3.96875 L 4.984375 -3.265625 L 1.546875 -3.265625 L 1.546875 -0.6875 L 5.09375 -0.6875 Z M 5.09375 0 "/></g></g></g><g fill="#000000" fill-opacity="1"><g transform="translate(123.632731, 174.932612)"><g><path d="M 2.8125 -3.421875 C 1.332031 -3.753906 0.59375 -4.382812 0.59375 -5.3125 C 0.59375 -5.988281 0.832031 -6.5 1.3125 -6.84375 C 1.78125 -7.175781 2.335938 -7.34375 2.984375 -7.34375 C 4.390625 -7.34375 5.222656 -6.816406 5.484375 -5.765625 L 4.6875 -5.765625 C 4.539062 -6.390625 3.972656 -6.703125 2.984375 -6.703125 C 2.285156 -6.703125 1.796875 -6.5 1.515625 -6.09375 C 1.410156 -5.9375 1.359375 -5.738281 1.359375 -5.5 C 1.359375 -5.050781 1.597656 -4.707031 2.078125 -4.46875 C 2.304688 -4.34375 2.789062 -4.1875 3.53125 -4 C 4.269531 -3.8125 4.804688 -3.597656 5.140625 -3.359375 C 5.597656 -3.035156 5.828125 -2.578125 5.828125 -1.984375 C 5.828125 -1.253906 5.539062 -0.703125 4.96875 -0.328125 C 4.488281 -0.015625 3.894531 0.140625 3.1875 0.140625 C 1.582031 0.140625 0.648438 -0.46875 0.390625 -1.6875 L 1.28125 -1.6875 C 1.414062 -0.925781 2.050781 -0.546875 3.1875 -0.546875 C 3.988281 -0.546875 4.550781 -0.769531 4.875 -1.21875 C 5 -1.394531 5.0625 -1.632812 5.0625 -1.9375 C 5.0625 -2.238281 4.945312 -2.484375 4.71875 -2.671875 C 4.382812 -2.941406 3.75 -3.191406 2.8125 -3.421875 Z M 2.8125 -3.421875 "/></g></g></g><g fill="#000000" fill-opacity="1"><g transform="translate(134.382831, 174.932612)"><g/></g></g><g fill="#000000" fill-opacity="1"><g transform="translate(141.898166, 174.932612)"><g><path d="M 7.171875 -3.640625 C 7.171875 -4.453125 6.878906 -5.148438 6.296875 -5.734375 C 5.710938 -6.316406 5.007812 -6.609375 4.1875 -6.609375 C 3.375 -6.609375 2.675781 -6.316406 2.09375 -5.734375 C 1.507812 -5.148438 1.21875 -4.453125 1.21875 -3.640625 C 1.21875 -2.816406 1.507812 -2.113281 2.09375 -1.53125 C 2.675781 -0.945312 3.375 -0.65625 4.1875 -0.65625 C 5.007812 -0.65625 5.710938 -0.945312 6.296875 -1.53125 C 6.878906 -2.113281 7.171875 -2.816406 7.171875 -3.640625 Z M 7.921875 -3.640625 C 7.921875 -3.128906 7.820312 -2.644531 7.625 -2.1875 C 7.425781 -1.738281 7.160156 -1.347656 6.828125 -1.015625 C 6.492188 -0.671875 6.097656 -0.40625 5.640625 -0.21875 C 5.179688 -0.0195312 4.695312 0.078125 4.1875 0.078125 C 3.675781 0.078125 3.195312 -0.0195312 2.75 -0.21875 C 2.300781 -0.40625 1.910156 -0.671875 1.578125 -1.015625 C 1.234375 -1.347656 0.96875 -1.738281 0.78125 -2.1875 C 0.582031 -2.644531 0.484375 -3.128906 0.484375 -3.640625 C 0.484375 -4.148438 0.582031 -4.632812 0.78125 -5.09375 C 0.96875 -5.539062 1.234375 -5.929688 1.578125 -6.265625 C 1.910156 -6.597656 2.300781 -6.863281 2.75 -7.0625 C 3.195312 -7.257812 3.675781 -7.359375 4.1875 -7.359375 C 4.695312 -7.359375 5.179688 -7.257812 5.640625 -7.0625 C 6.097656 -6.863281 6.492188 -6.597656 6.828125 -6.265625 C 7.160156 -5.929688 7.425781 -5.539062 7.625 -5.09375 C 7.820312 -4.632812 7.921875 -4.148438 7.921875 -3.640625 Z M 7.921875 -3.640625 "/></g></g></g><g fill="#000000" fill-opacity="1"><g transform="translate(154.936016, 174.932612)"><g><path d="M 1.546875 -5.328125 L 1.546875 0 L 0.796875 0 L 0.796875 -7.6875 L 4.859375 -1.921875 L 4.859375 -7.234375 L 5.609375 -7.234375 L 5.609375 0.453125 Z M 1.546875 -5.328125 "/></g></g></g><g fill="#000000" fill-opacity="1"><g transform="translate(165.984061, 174.932612)"><g><path d="M 7.9375 -3.390625 L 7.859375 -2.9375 C 7.703125 -2.0625 7.273438 -1.335938 6.578125 -0.765625 C 5.867188 -0.203125 5.078125 0.078125 4.203125 0.078125 C 3.691406 0.078125 3.207031 -0.0195312 2.75 -0.21875 C 2.300781 -0.40625 1.910156 -0.671875 1.578125 -1.015625 C 1.234375 -1.347656 0.96875 -1.738281 0.78125 -2.1875 C 0.582031 -2.644531 0.484375 -3.132812 0.484375 -3.65625 C 0.484375 -4.164062 0.582031 -4.644531 0.78125 -5.09375 C 0.96875 -5.550781 1.234375 -5.945312 1.578125 -6.28125 C 1.910156 -6.613281 2.300781 -6.882812 2.75 -7.09375 C 3.207031 -7.28125 3.664062 -7.375 4.125 -7.375 C 4.988281 -7.375 5.753906 -7.128906 6.421875 -6.640625 C 7.085938 -6.148438 7.539062 -5.503906 7.78125 -4.703125 L 6.984375 -4.703125 C 6.765625 -5.296875 6.398438 -5.765625 5.890625 -6.109375 C 5.378906 -6.453125 4.816406 -6.625 4.203125 -6.625 C 3.378906 -6.625 2.675781 -6.332031 2.09375 -5.75 C 1.507812 -5.175781 1.21875 -4.476562 1.21875 -3.65625 C 1.21875 -2.832031 1.507812 -2.128906 2.09375 -1.546875 C 2.664062 -0.953125 3.367188 -0.65625 4.203125 -0.65625 C 4.859375 -0.65625 5.453125 -0.84375 5.984375 -1.21875 C 6.515625 -1.601562 6.890625 -2.109375 7.109375 -2.734375 L 4.171875 -2.734375 L 4.171875 -3.390625 Z M 7.9375 -3.390625 "/></g></g></g><g fill="#000000" fill-opacity="1"><g transform="translate(179.043188, 174.932612)"><g><path d="M 1.546875 -0.75 L 4.125 -0.75 L 4.125 0 L 0.796875 0 L 0.796875 -7.234375 L 1.546875 -7.234375 Z M 1.546875 -0.75 "/></g></g></g><g fill="#000000" fill-opacity="1"><g transform="translate(188.026937, 174.932612)"><g><path d="M 5.09375 0 L 0.796875 0 L 0.796875 -7.234375 L 5.09375 -7.234375 L 5.09375 -6.546875 L 1.546875 -6.546875 L 1.546875 -3.96875 L 4.984375 -3.96875 L 4.984375 -3.265625 L 1.546875 -3.265625 L 1.546875 -0.6875 L 5.09375 -0.6875 Z M 5.09375 0 "/></g></g></g><g fill="#000000" fill-opacity="1"><g transform="translate(198.564221, 174.932612)"><g><path d="M 2.8125 -3.421875 C 1.332031 -3.753906 0.59375 -4.382812 0.59375 -5.3125 C 0.59375 -5.988281 0.832031 -6.5 1.3125 -6.84375 C 1.78125 -7.175781 2.335938 -7.34375 2.984375 -7.34375 C 4.390625 -7.34375 5.222656 -6.816406 5.484375 -5.765625 L 4.6875 -5.765625 C 4.539062 -6.390625 3.972656 -6.703125 2.984375 -6.703125 C 2.285156 -6.703125 1.796875 -6.5 1.515625 -6.09375 C 1.410156 -5.9375 1.359375 -5.738281 1.359375 -5.5 C 1.359375 -5.050781 1.597656 -4.707031 2.078125 -4.46875 C 2.304688 -4.34375 2.789062 -4.1875 3.53125 -4 C 4.269531 -3.8125 4.804688 -3.597656 5.140625 -3.359375 C 5.597656 -3.035156 5.828125 -2.578125 5.828125 -1.984375 C 5.828125 -1.253906 5.539062 -0.703125 4.96875 -0.328125 C 4.488281 -0.015625 3.894531 0.140625 3.1875 0.140625 C 1.582031 0.140625 0.648438 -0.46875 0.390625 -1.6875 L 1.28125 -1.6875 C 1.414062 -0.925781 2.050781 -0.546875 3.1875 -0.546875 C 3.988281 -0.546875 4.550781 -0.769531 4.875 -1.21875 C 5 -1.394531 5.0625 -1.632812 5.0625 -1.9375 C 5.0625 -2.238281 4.945312 -2.484375 4.71875 -2.671875 C 4.382812 -2.941406 3.75 -3.191406 2.8125 -3.421875 Z M 2.8125 -3.421875 "/></g></g></g><g fill="#000000" fill-opacity="1"><g transform="translate(209.314319, 174.932612)"><g/></g></g><g fill="#000000" fill-opacity="1"><g transform="translate(216.829654, 174.932612)"><g><path d="M 6.03125 -2.390625 C 6.03125 -1.609375 5.773438 -0.992188 5.265625 -0.546875 C 4.785156 -0.117188 4.144531 0.09375 3.34375 0.09375 C 2.53125 0.09375 1.882812 -0.117188 1.40625 -0.546875 C 0.894531 -0.992188 0.640625 -1.609375 0.640625 -2.390625 L 0.640625 -7.234375 L 1.390625 -7.234375 L 1.390625 -2.28125 C 1.390625 -1.738281 1.585938 -1.320312 1.984375 -1.03125 C 2.316406 -0.78125 2.769531 -0.65625 3.34375 -0.65625 C 4.226562 -0.65625 4.820312 -0.953125 5.125 -1.546875 C 5.226562 -1.742188 5.28125 -1.988281 5.28125 -2.28125 L 5.28125 -7.234375 L 6.03125 -7.234375 Z M 6.03125 -2.390625 "/></g></g></g><g fill="#000000" fill-opacity="1"><g transform="translate(228.143717, 174.932612)"><g><path d="M 1.546875 -5.328125 L 1.546875 0 L 0.796875 0 L 0.796875 -7.6875 L 4.859375 -1.921875 L 4.859375 -7.234375 L 5.609375 -7.234375 L 5.609375 0.453125 Z M 1.546875 -5.328125 "/></g></g></g><g fill="#000000" fill-opacity="1"><g transform="translate(239.191763, 174.932612)"><g><path d="M 1.546875 0 L 0.796875 0 L 0.796875 -7.234375 L 1.546875 -7.234375 Z M 1.546875 0 "/></g></g></g><g fill="#000000" fill-opacity="1"><g transform="translate(246.175061, 174.932612)"><g><path d="M 7.921875 -3.609375 C 7.921875 -3.097656 7.820312 -2.617188 7.625 -2.171875 C 7.425781 -1.710938 7.160156 -1.316406 6.828125 -0.984375 C 6.609375 -0.765625 6.363281 -0.578125 6.09375 -0.421875 C 6.394531 -0.484375 6.675781 -0.546875 6.9375 -0.609375 L 8.015625 -0.609375 L 8.015625 0 L 5.09375 0 C 4.800781 0.0703125 4.5 0.109375 4.1875 0.109375 C 3.675781 0.109375 3.195312 0.0078125 2.75 -0.1875 C 2.300781 -0.382812 1.910156 -0.648438 1.578125 -0.984375 C 1.234375 -1.316406 0.96875 -1.710938 0.78125 -2.171875 C 0.582031 -2.617188 0.484375 -3.097656 0.484375 -3.609375 C 0.484375 -4.117188 0.582031 -4.597656 0.78125 -5.046875 C 0.96875 -5.503906 1.234375 -5.90625 1.578125 -6.25 C 1.910156 -6.582031 2.300781 -6.847656 2.75 -7.046875 C 3.195312 -7.234375 3.675781 -7.328125 4.1875 -7.328125 C 4.695312 -7.328125 5.179688 -7.234375 5.640625 -7.046875 C 6.097656 -6.847656 6.492188 -6.582031 6.828125 -6.25 C 7.160156 -5.90625 7.425781 -5.503906 7.625 -5.046875 C 7.820312 -4.597656 7.921875 -4.117188 7.921875 -3.609375 Z M 7.171875 -3.609375 C 7.171875 -4.429688 6.878906 -5.132812 6.296875 -5.71875 C 5.710938 -6.300781 5.007812 -6.59375 4.1875 -6.59375 C 3.375 -6.59375 2.675781 -6.300781 2.09375 -5.71875 C 1.507812 -5.132812 1.21875 -4.429688 1.21875 -3.609375 C 1.21875 -2.796875 1.507812 -2.097656 2.09375 -1.515625 C 2.675781 -0.929688 3.375 -0.640625 4.1875 -0.640625 C 5.007812 -0.640625 5.710938 -0.929688 6.296875 -1.515625 C 6.878906 -2.097656 7.171875 -2.796875 7.171875 -3.609375 Z M 7.171875 -3.609375 "/></g></g></g><g fill="#000000" fill-opacity="1"><g transform="translate(259.15971, 174.932612)"><g><path d="M 6.03125 -2.390625 C 6.03125 -1.609375 5.773438 -0.992188 5.265625 -0.546875 C 4.785156 -0.117188 4.144531 0.09375 3.34375 0.09375 C 2.53125 0.09375 1.882812 -0.117188 1.40625 -0.546875 C 0.894531 -0.992188 0.640625 -1.609375 0.640625 -2.390625 L 0.640625 -7.234375 L 1.390625 -7.234375 L 1.390625 -2.28125 C 1.390625 -1.738281 1.585938 -1.320312 1.984375 -1.03125 C 2.316406 -0.78125 2.769531 -0.65625 3.34375 -0.65625 C 4.226562 -0.65625 4.820312 -0.953125 5.125 -1.546875 C 5.226562 -1.742188 5.28125 -1.988281 5.28125 -2.28125 L 5.28125 -7.234375 L 6.03125 -7.234375 Z M 6.03125 -2.390625 "/></g></g></g><g fill="#000000" fill-opacity="1"><g transform="translate(270.473773, 174.932612)"><g><path d="M 5.09375 0 L 0.796875 0 L 0.796875 -7.234375 L 5.09375 -7.234375 L 5.09375 -6.546875 L 1.546875 -6.546875 L 1.546875 -3.96875 L 4.984375 -3.96875 L 4.984375 -3.265625 L 1.546875 -3.265625 L 1.546875 -0.6875 L 5.09375 -0.6875 Z M 5.09375 0 "/></g></g></g><g fill="#000000" fill-opacity="1"><g transform="translate(281.011057, 174.932612)"><g><path d="M 2.8125 -3.421875 C 1.332031 -3.753906 0.59375 -4.382812 0.59375 -5.3125 C 0.59375 -5.988281 0.832031 -6.5 1.3125 -6.84375 C 1.78125 -7.175781 2.335938 -7.34375 2.984375 -7.34375 C 4.390625 -7.34375 5.222656 -6.816406 5.484375 -5.765625 L 4.6875 -5.765625 C 4.539062 -6.390625 3.972656 -6.703125 2.984375 -6.703125 C 2.285156 -6.703125 1.796875 -6.5 1.515625 -6.09375 C 1.410156 -5.9375 1.359375 -5.738281 1.359375 -5.5 C 1.359375 -5.050781 1.597656 -4.707031 2.078125 -4.46875 C 2.304688 -4.34375 2.789062 -4.1875 3.53125 -4 C 4.269531 -3.8125 4.804688 -3.597656 5.140625 -3.359375 C 5.597656 -3.035156 5.828125 -2.578125 5.828125 -1.984375 C 5.828125 -1.253906 5.539062 -0.703125 4.96875 -0.328125 C 4.488281 -0.015625 3.894531 0.140625 3.1875 0.140625 C 1.582031 0.140625 0.648438 -0.46875 0.390625 -1.6875 L 1.28125 -1.6875 C 1.414062 -0.925781 2.050781 -0.546875 3.1875 -0.546875 C 3.988281 -0.546875 4.550781 -0.769531 4.875 -1.21875 C 5 -1.394531 5.0625 -1.632812 5.0625 -1.9375 C 5.0625 -2.238281 4.945312 -2.484375 4.71875 -2.671875 C 4.382812 -2.941406 3.75 -3.191406 2.8125 -3.421875 Z M 2.8125 -3.421875 "/></g></g></g><path stroke-linecap="butt" transform="matrix(0.75, -0.000000000000000279, 0.000000000000000279, 0.75, 122.595246, 160.997377)" fill="none" stroke-linejoin="miter" d="M -0.00199473 0.498288 L 173.08135 0.498288 " stroke="#000000" stroke-width="1" stroke-opacity="1" stroke-miterlimit="4"/></svg>