<?xml version="1.0" encoding="UTF-8" standalone="no"?>
<svg
   width="245.97917"
   zoomAndPan="magnify"
   viewBox="0 0 184.48438 163.87319"
   height="218.49759"
   preserveAspectRatio="xMidYMid"
   version="1.0"
   id="svg112"
   xmlns="http://www.w3.org/2000/svg"
   xmlns:svg="http://www.w3.org/2000/svg">
  <defs
     id="defs2">
    <clipPath
       id="c1d02026a6">
      <path
         d="m 147.16016,58.175781 h 32.21093 v 63.390629 h -32.21093 z m 0,0"
         clip-rule="nonzero"
         id="path1" />
    </clipPath>
    <clipPath
       id="d704952efa">
      <path
         d="m 186.75,5.695312 h 31.41797 V 69.09375 H 186.75 Z m 0,0"
         clip-rule="nonzero"
         id="path2" />
    </clipPath>
  </defs>
  <g
     fill="#ffffff"
     fill-opacity="1"
     id="g5"
     transform="translate(-102.35481,-1.5742108)">
    <g
       transform="translate(141.22571,49.899044)"
       id="g4">
      <g
         id="g3">
        <path
           d="M 33.703125,0 H 1.375 l 28.828125,-45.59375 h -13.125 c -2.636719,0 -4.984375,0.257812 -7.046875,0.765625 -2.054688,0.511719 -3.664062,1.183594 -4.828125,2.015625 -1.167969,0.824219 -1.75,1.757812 -1.75,2.796875 v 0.1875 H 3 v -6.21875 H 34.953125 L 6.125,-0.453125 h 6.578125 c 0.738281,0 1.742187,-0.019531 3.015625,-0.0625 1.28125,-0.050781 2.691406,-0.15625 4.234375,-0.3125 1.550781,-0.15625 3.101563,-0.394531 4.65625,-0.71875 1.550781,-0.320313 2.976563,-0.742187 4.28125,-1.265625 1.300781,-0.519531 2.351563,-1.171875 3.15625,-1.953125 C 32.847656,-5.546875 33.25,-6.488281 33.25,-7.59375 h 0.453125 z m 0,0"
           id="path3" />
      </g>
    </g>
  </g>
  <g
     fill="#ffffff"
     fill-opacity="1"
     id="g8"
     transform="translate(-102.35481,-1.5742108)">
    <g
       transform="translate(187.75511,113.24041)"
       id="g7">
      <g
         id="g6">
        <path
           d="M 1.375,-46.046875 H 9.4375 L 35.21875,-6.71875 v -20.078125 c 0,-4.476563 -0.371094,-8.09375 -1.109375,-10.84375 -0.730469,-2.75 -1.6875,-4.757813 -2.875,-6.03125 -1.179687,-1.28125 -2.429687,-1.921875 -3.75,-1.921875 v -0.453125 h 12.4375 v 0.453125 c -1.324219,0 -2.289063,0.402344 -2.890625,1.203125 -0.59375,0.804687 -0.96875,2.105469 -1.125,3.90625 -0.148438,1.792969 -0.21875,4.203125 -0.21875,7.234375 V 0.921875 H 35.21875 L 6.078125,-43.46875 V -19.25 c 0,4.449219 0.363281,8.058594 1.09375,10.828125 0.738281,2.761719 1.695313,4.78125 2.875,6.0625 1.1875,1.273437 2.441406,1.90625 3.765625,1.90625 V 0 H 1.375 v -0.453125 c 1.320312,0 2.28125,-0.398437 2.875,-1.203125 C 4.851562,-2.457031 5.234375,-3.757812 5.390625,-5.5625 5.546875,-7.375 5.625,-9.785156 5.625,-12.796875 V -33.25 c 0,-3.03125 -0.078125,-5.441406 -0.234375,-7.234375 C 5.234375,-42.285156 4.851562,-43.585938 4.25,-44.390625 3.65625,-45.191406 2.695312,-45.59375 1.375,-45.59375 Z m 0,0"
           id="path5" />
      </g>
    </g>
  </g>
  <path
     stroke-linecap="butt"
     fill="none"
     stroke-linejoin="miter"
     d="M 80.676439,120.00001 V 6.7181319e-6"
     stroke="#ffffff"
     stroke-width="1.5"
     stroke-opacity="1"
     stroke-miterlimit="4"
     id="path8" />
  <g
     clip-path="url(#c1d02026a6)"
     id="g9"
     transform="translate(-102.35481,-1.5742108)">
    <path
       fill="#ffffff"
       d="m 196.8125,99.753906 c 0.27734,0 0.50391,-0.226562 0.50391,-0.503906 0,-0.277344 -0.22657,-0.503906 -0.50391,-0.503906 -0.27734,0 -0.50391,0.226562 -0.50391,0.503906 0,0.277344 0.22657,0.503906 0.50391,0.503906 z m 3.14062,-2.554687 c 0.27735,0 0.50391,-0.222657 0.50391,-0.5 0,-0.28125 -0.22656,-0.503907 -0.50391,-0.503907 -0.27734,0 -0.5039,0.222657 -0.5039,0.503907 0,0.277343 0.22656,0.5 0.5039,0.5 z m -0.2539,-7.886719 c -0.27735,0 -0.50391,0.226562 -0.50391,0.503906 0,0.277344 0.22656,0.503906 0.50391,0.503906 0.27734,0 0.5039,-0.226562 0.5039,-0.503906 0,-0.277344 -0.22656,-0.503906 -0.5039,-0.503906 z m -2.38281,-18.765625 c 0.27734,0 0.5039,-0.226563 0.5039,-0.503906 0,-0.277344 -0.22656,-0.503907 -0.5039,-0.503907 -0.27735,0 -0.50391,0.226563 -0.50391,0.503907 0,0.277343 0.22656,0.503906 0.50391,0.503906 z m 1.03515,12.027344 c -0.27734,0 -0.5039,0.226562 -0.5039,0.503906 0,0.277344 0.22656,0.503906 0.5039,0.503906 0.27735,0 0.50391,-0.226562 0.50391,-0.503906 0,-0.277344 -0.22656,-0.503906 -0.50391,-0.503906 z m 3.50391,2.054687 c -0.27735,0 -0.50391,0.226563 -0.50391,0.503906 0,0.277344 0.22656,0.503907 0.50391,0.503907 0.27734,0 0.5039,-0.226563 0.5039,-0.503907 0,-0.277343 -0.22656,-0.503906 -0.5039,-0.503906 z m -3.71485,32.457034 c -0.0898,0.44922 -0.36718,0.82812 -0.82812,0.82812 -0.45703,0 -0.82422,-0.37109 -0.82422,-0.82812 0,-0.45703 0.36719,-0.82813 0.82422,-0.82813 0,0 -1.05859,-0.21875 -1.17578,0.91016 -0.0664,0.67578 0.74609,0.88281 1.18359,0.88281 0.4336,0 1.97266,-0.0859 1.63672,-2.83203 -0.41016,-3.35547 -3.80859,-9.04687 -19.75391,-19.324219 1.02344,0.664063 20.51563,13.437499 18.9375,21.191409 z m -18.98437,-3.61328 v 1.11718 c 3.17187,0 4.03516,-7.49218 0,-18.726559 5.22656,17.902349 0,17.609379 0,17.609379 z m 0.0156,-17.601566 c 0.008,0.0078 0.0195,0.01563 0.0312,0.02344 -0.0156,-0.01172 -0.0273,-0.01953 -0.0312,-0.02344 -0.008,-0.0039 -0.0117,-0.0078 -0.0156,-0.0078 0,0 0.10937,0.08984 0.29687,0.25 -0.14843,-0.132812 -0.24609,-0.214843 -0.28125,-0.242187 z m 7.14454,10.765626 c -2.42579,2.375 -5.71094,-6.15234 -5.71094,-6.15234 0,0 2.875,9.4375 6.15234,7.09375 3.1211,-2.23047 -5.57812,-9.972661 -7.30469,-11.464849 1.58204,1.417969 8.96094,8.468749 6.86329,10.523439 z M 179.875,57.734375 c -0.44141,-0.324219 -0.70703,-0.46875 -0.70703,-0.46875 0.24219,0.152344 0.47656,0.308594 0.70703,0.46875 z m 30.92187,18.9375 c -10.84375,0.871094 -21.75,6.675781 -24.14453,8.015625 -0.0703,0.574219 -0.16797,1.125 -0.28906,1.652344 5.63281,-2.492188 9.38672,-2.492188 9.38672,-2.492188 -3.72656,0.730469 -8.16406,2.816406 -9.68359,3.59375 -0.32422,1.015625 -0.73829,1.925782 -1.20704,2.746094 10.10547,-2.585938 15.59766,-4.769531 15.59766,-4.769531 -4.625,2.96875 -15.32812,5.707031 -16.46875,6.128906 -0.58984,0.8125 -1.21875,1.503906 -1.81641,2.078125 10.74219,-0.421875 15.01563,-1.890625 15.01563,-1.890625 -5.13672,3.027344 -15.66406,2.957031 -16.23828,2.949219 -0.72266,0.5625 -1.30469,0.917968 -1.58985,1.078125 l 0.52735,-0.242188 c 0,0 1.34765,-0.386719 6.09375,-0.304687 4.60937,0.08203 9.63672,-0.972656 14.83984,-3.394532 10.0586,-4.679687 9.97656,-15.148437 9.97656,-15.148437 z m -19.9414,-0.792969 c 1.1875,-1.867187 2.8789,-3.0625 2.8789,-3.0625 -1.30468,1.304688 -2.19921,3.046875 -2.69531,4.207032 0.25,1.722656 0.3086,3.054687 0.32031,3.75 1.64454,-3.53125 4.94922,-8.679688 4.94922,-8.679688 -1.19531,4.042969 -2.73047,7.175781 -3.45703,8.550781 0.66406,-0.269531 1.38281,-0.546875 2.14453,-0.824219 1.66016,-2.660156 2.06641,-5.398437 2.06641,-5.398437 0.0586,2.347656 -0.50781,4.089844 -0.89453,4.988281 0.90234,-0.304687 1.86328,-0.605468 2.8789,-0.894531 l -0.10546,0.02734 c 3.25781,-6.867188 0.55078,-13.699219 0.55078,-13.699219 -4.95313,1.640625 -8.42578,6.179688 -9.42969,7.617188 0.34766,1.214843 0.60547,2.371093 0.79297,3.417968 z m -11.69922,19.972656 c 0,0 -0.004,0 -0.004,0 0,0 -0.004,0 -0.004,0 l 0.004,0.0039 z m -0.21094,-0.08984 c -0.28515,-0.160157 -0.86719,-0.515625 -1.58984,-1.078125 -0.57422,0.0078 -11.10156,0.07813 -16.23828,-2.949219 0,0 4.27343,1.46875 15.01562,1.890625 -0.60156,-0.574219 -1.22656,-1.265625 -1.8164,-2.078125 -1.14063,-0.421875 -11.84375,-3.160156 -16.46875,-6.128906 0,0 5.49218,2.183593 15.59375,4.769531 -0.46485,-0.820312 -0.87891,-1.730469 -1.20313,-2.746094 -1.51953,-0.777344 -5.95703,-2.863281 -9.68359,-3.59375 0,0 3.7539,0 9.38672,2.492188 -0.125,-0.527344 -0.21875,-1.078125 -0.28907,-1.652344 -2.39453,-1.339844 -13.30078,-7.144531 -24.14453,-8.015625 0,0 -0.082,10.46875 9.97656,15.148437 5.20313,2.421876 10.23047,3.476563 14.83985,3.394532 4.74609,-0.08203 6.09375,0.304687 6.09375,0.304687 z m -19.58203,-17.21875 -0.10547,-0.02734 c 1.01563,0.289063 1.97656,0.589844 2.875,0.894531 -0.38281,-0.898437 -0.95312,-2.640625 -0.89062,-4.988281 0,0 0.40625,2.738281 2.0664,5.398437 0.76172,0.277344 1.48047,0.554688 2.14453,0.824219 -0.72656,-1.375 -2.26562,-4.507812 -3.45703,-8.550781 0,0 3.30469,5.148438 4.94922,8.679688 0.0117,-0.695313 0.0703,-2.027344 0.32031,-3.75 -0.49609,-1.160157 -1.39062,-2.902344 -2.69531,-4.207032 0,0 1.69141,1.195313 2.87891,3.0625 0.1875,-1.046875 0.44531,-2.203125 0.79297,-3.417968 -1.00391,-1.4375 -4.47657,-5.976563 -9.42969,-7.617188 0,0 -2.70703,6.832031 0.55078,13.699219 z M 195.29297,101.625 c -10.08594,-1.15234 -10.3711,-4.320312 -16.13672,-5.761719 4.62109,0.488281 6.76172,3.757813 16.32422,4.851559 8.72656,1 14.18359,-2.296871 14.18359,-2.296871 -1.73047,-3.625 -6.35547,-5.089844 -8.0625,-5.515625 -3.36719,1.8125 -7.03515,2.488281 -10.5,2.71875 1.19531,0.414062 3.35156,1.074218 5.44141,1.324218 0,0 -4.84375,-0.320312 -7.46485,-1.234374 -1.44531,0.03516 -2.83984,0.01172 -4.13281,-0.01172 0.58985,0.25 1.69531,0.734375 2.48438,1.183593 1.125,0.644532 4.29297,1.804688 6.29687,1.863282 0.21094,0.0078 -4.30078,-0.02734 -6.96875,-1.546875 -1.6289,-0.925781 -2.78515,-1.34375 -3.4414,-1.527344 -1.6211,-0.02344 -3.03516,-0.0039 -4.14063,0.1875 -0.004,0 -0.008,0.0039 -0.008,0.0039 0,0 0.004,0 0.004,-0.0039 0,0 -0.004,0.0039 -0.004,0.0039 h -0.0312 c 0,0 -0.004,-0.0039 -0.008,-0.0039 0.004,0.0039 0.008,0.0039 0.008,0.0039 0,0 -0.004,-0.0039 -0.008,-0.0039 -1.10547,-0.191406 -2.51954,-0.210937 -4.14063,-0.1875 -0.65625,0.183594 -1.8125,0.601563 -3.44141,1.527344 -2.66796,1.519531 -7.17968,1.554687 -6.96875,1.546875 2.00391,-0.05859 5.17188,-1.21875 6.29688,-1.863282 0.78906,-0.449218 1.89453,-0.933593 2.48437,-1.183593 -1.29296,0.02344 -2.6875,0.04687 -4.13281,0.01172 -2.62109,0.914062 -7.46484,1.234374 -7.46484,1.234374 2.08594,-0.25 4.24219,-0.910156 5.4414,-1.324218 -3.46484,-0.230469 -7.13281,-0.90625 -10.5,-2.71875 -1.71093,0.425781 -6.33203,1.890625 -8.0625,5.515625 0,0 5.45704,3.296871 14.1836,2.296871 9.5625,-1.093746 11.70312,-4.363278 16.32031,-4.851559 -5.76172,1.441407 -6.04687,4.609379 -16.13281,5.761719 -9.19922,1.05078 -14.69141,-3.167969 -14.69141,-3.167969 1.72656,-4.609375 7.48828,-6.050781 7.89453,-5.828125 -0.42968,-0.246094 -0.85156,-0.511718 -1.26953,-0.800781 -8.35547,-5.761719 -7.77734,-15.554687 -7.77734,-15.554687 4.16797,0.382812 7.875,1.109374 11.07031,1.960937 L 158,78.167969 c 0,0 -2.76563,-6.21875 0.69141,-13.707031 0,0 6.25,2.09375 9.90234,6.855468 1.50391,-4.589844 4.375,-9.835937 9.83594,-13.582031 -2.26563,1.652344 -9.25391,8.011719 -10.37891,24.054687 1.80469,0.851563 2.99609,1.550782 3.51563,1.875 -0.0117,-0.269531 -0.0195,-0.542968 -0.0195,-0.824218 0,-9.445313 4.9961,-13.265625 7.58985,-14.703125 0,0 -6.67969,3.953125 -6.67969,14.886719 0,8.511718 5.62109,12.210937 6.54688,12.765624 l 0.14453,0.0625 c 0,0 0.004,0 0.004,0 -0.0156,-0.01172 -0.0391,-0.03125 -0.0742,-0.05859 0.0234,0.01953 0.0469,0.03906 0.0742,0.05859 0.0273,-0.01953 0.0508,-0.03906 0.0742,-0.05859 -0.0352,0.02734 -0.0586,0.04687 -0.0742,0.05859 0,0 0.004,0 0.004,0 l 0.14453,-0.0625 c 0.92578,-0.554687 6.54688,-4.253906 6.54688,-12.765624 0,-10.933594 -6.67969,-14.886719 -6.67969,-14.886719 2.59375,1.4375 7.58984,5.257812 7.58984,14.703125 0,0.28125 -0.008,0.554687 -0.0195,0.824218 0.51953,-0.324218 1.71094,-1.023437 3.51172,-1.875 -1.12109,-16.042968 -8.10938,-22.402343 -10.375,-24.054687 5.46094,3.746094 8.33203,8.992187 9.83594,13.582031 3.65234,-4.761718 9.90234,-6.855468 9.90234,-6.855468 3.45703,7.488281 0.69141,13.707031 0.69141,13.707031 l -0.23828,0.06641 c 3.19531,-0.851563 6.90234,-1.578125 11.07031,-1.960937 0,0 0.57812,9.792968 -7.77735,15.554687 -0.41796,0.289063 -0.83984,0.554687 -1.26953,0.800781 0.40625,-0.222656 6.16797,1.21875 7.89453,5.828125 0,0 -5.49218,4.218745 -14.6914,3.167965 z m -15.78906,14.87109 c 0,-0.27734 -0.22266,-0.5039 -0.5,-0.5039 -0.28125,0 -0.50391,0.22656 -0.50391,0.5039 0,0.27735 0.22266,0.50391 0.50391,0.50391 0.27734,0 0.5,-0.22656 0.5,-0.50391 z m 18.3164,2.73438 c -0.27734,0 -0.5039,0.22656 -0.5039,0.50391 0,0.27734 0.22656,0.5039 0.5039,0.5039 0.27735,0 0.50391,-0.22656 0.50391,-0.5039 0,-0.27735 -0.22656,-0.50391 -0.50391,-0.50391 z m -36.58594,0 c -0.27734,0 -0.5,0.22656 -0.5,0.50391 0,0.27734 0.22266,0.5039 0.5,0.5039 0.28125,0 0.50391,-0.22656 0.50391,-0.5039 0,-0.27735 -0.22266,-0.50391 -0.50391,-0.50391 z m 0.25782,-20.484376 c -0.27735,0 -0.50391,0.226562 -0.50391,0.503906 0,0.277344 0.22656,0.503906 0.50391,0.503906 0.27734,0 0.5039,-0.226562 0.5039,-0.503906 0,-0.277344 -0.22656,-0.503906 -0.5039,-0.503906 z m -3.14063,-2.550782 c -0.27734,0 -0.5039,0.222657 -0.5039,0.503907 0,0.277343 0.22656,0.5 0.5039,0.5 0.27735,0 0.50391,-0.222657 0.50391,-0.5 0,-0.28125 -0.22656,-0.503907 -0.50391,-0.503907 z m 0.25391,-6.882812 c -0.27735,0 -0.50391,0.226562 -0.50391,0.503906 0,0.277344 0.22656,0.503906 0.50391,0.503906 0.27734,0 0.5039,-0.226562 0.5039,-0.503906 0,-0.277344 -0.22656,-0.503906 -0.5039,-0.503906 z m 2.38281,-18.765625 c 0.27734,0 0.50391,-0.226563 0.50391,-0.503906 0,-0.277344 -0.22657,-0.503907 -0.50391,-0.503907 -0.27734,0 -0.50391,0.226563 -0.50391,0.503907 0,0.277343 0.22657,0.503906 0.50391,0.503906 z m 17.66016,3.371094 c 0,0.277343 0.22656,0.503906 0.5039,0.503906 0.27735,0 0.50391,-0.226563 0.50391,-0.503906 0,-0.277344 -0.22656,-0.503907 -0.50391,-0.503907 -0.27734,0 -0.5039,0.226563 -0.5039,0.503907 z m 4.78515,5.421875 c 0,-0.277344 -0.22656,-0.503906 -0.5039,-0.503906 -0.27735,0 -0.50391,0.226562 -0.50391,0.503906 0,0.277344 0.22656,0.503906 0.50391,0.503906 0.27734,0 0.5039,-0.226562 0.5039,-0.503906 z m -9.0664,0 c 0,0.277344 0.22265,0.503906 0.5,0.503906 0.28125,0 0.5039,-0.226562 0.5039,-0.503906 0,-0.277344 -0.22265,-0.503906 -0.5039,-0.503906 -0.27735,0 -0.5,0.226562 -0.5,0.503906 z m -14.45313,4.242187 c 0.27735,0 0.50391,-0.226562 0.50391,-0.503906 0,-0.277344 -0.22656,-0.503906 -0.50391,-0.503906 -0.27734,0 -0.5039,0.226562 -0.5039,0.503906 0,0.277344 0.22656,0.503906 0.5039,0.503906 z m -3.46484,1.046875 c -0.27735,0 -0.50391,0.226563 -0.50391,0.503906 0,0.277344 0.22656,0.503907 0.50391,0.503907 0.27734,0 0.5039,-0.226563 0.5039,-0.503907 0,-0.277343 -0.22656,-0.503906 -0.5039,-0.503906 z m 22.55469,34.136724 c 0.59375,0 1.07421,0.6289 1.07421,1.39843 0,0.77344 -0.48046,1.40235 -1.07421,1.40235 0.76953,0 1.39843,-0.62891 1.39843,-1.40235 0,-0.76953 -0.6289,-1.39843 -1.39843,-1.39843 z m -1.07813,1.39843 c 0,-0.76953 0.48438,-1.39843 1.07813,-1.39843 -0.77344,0 -1.40235,0.6289 -1.40235,1.39843 0,0.77344 0.62891,1.40235 1.40235,1.40235 -0.59375,0 -1.07813,-0.62891 -1.07813,-1.40235 z m 2.43359,-57.140622 c 0,0.976562 -0.60937,1.765624 -1.35546,1.765624 0.97265,0 1.76562,-0.789062 1.76562,-1.765624 0,-0.976563 -0.79297,-1.765626 -1.76562,-1.765626 0.74609,0 1.35546,0.789063 1.35546,1.765626 z m -3.125,0 c 0,0.976562 0.79297,1.765624 1.76954,1.765624 -0.75,0 -1.35938,-0.789062 -1.35938,-1.765624 0,-0.976563 0.60938,-1.765626 1.35938,-1.765626 -0.97657,0 -1.76954,0.789063 -1.76954,1.765626 z m -1.65625,28.867187 c -2.18359,-3.394531 0.48438,-5.75 1.875,-5.46875 1.41797,0.285156 1.6836,1.976563 1.6836,1.976563 0,-0.04688 -0.008,-0.08984 -0.008,-0.132813 l 0.0391,0.132813 0.14453,-0.515626 c 0.19531,-0.519531 0.62891,-1.277343 1.53906,-1.460937 1.39063,-0.28125 4.0586,2.074219 1.875,5.46875 -1.41406,2.199219 -3.09375,3.585937 -3.5,3.902344 4.70313,-3.570313 5.13672,-5.957031 4.90235,-7.375 -0.0469,-0.277344 -0.11719,-0.539063 -0.20704,-0.785157 0.13672,-1.066406 0.37891,-3.929687 -0.5,-6.453124 0,0 0.32813,2.914062 -0.28125,5.285156 -0.39453,-0.339844 -0.88671,-0.535156 -1.48046,-0.535156 -0.90625,-0.0039 -1.69532,0.476562 -2.13282,1.199218 0,-2.5625 -0.35937,-8.867187 -0.35937,-8.867187 -0.45313,2.816406 -0.39063,8.867187 -0.39063,8.867187 v 0.0039 c -0.4375,-0.722656 -1.22656,-1.207031 -2.13281,-1.203124 -0.60547,0.0039 -1.11328,0.207031 -1.50781,0.558593 -0.61719,-2.375 -0.28516,-5.308593 -0.28516,-5.308593 -0.90234,2.582031 -0.6289,5.515624 -0.49219,6.523437 -0.0781,0.226563 -0.14062,0.464844 -0.18359,0.714844 -0.23828,1.417969 0.19922,3.804687 4.90234,7.375 -0.40625,-0.316407 -2.08593,-1.703125 -3.5,-3.902344 z m 3.52344,4.003906 c 0.0117,-0.0078 0.0195,-0.01563 0.0312,-0.02344 -0.0352,0.02734 -0.13281,0.109375 -0.28125,0.242187 0.1875,-0.160156 0.29297,-0.25 0.29297,-0.25 0,0 -0.004,0.0039 -0.0117,0.0078 -0.008,0.0039 -0.0195,0.01172 -0.0312,0.02344 z m -19.7539,19.324219 c -0.33594,2.74609 1.20312,2.83203 1.63671,2.83203 0.4375,0 1.25,-0.20703 1.1836,-0.88281 -0.11719,-1.12891 -1.17969,-0.91016 -1.17969,-0.91016 0.45703,0 0.82813,0.3711 0.82813,0.82813 0,0.45703 -0.3711,0.82812 -0.82813,0.82812 -0.45703,0 -0.73437,-0.3789 -0.82812,-0.82812 -1.57813,-7.75391 17.91406,-20.527346 18.9414,-21.191409 -15.94531,10.277349 -19.34375,15.968749 -19.7539,19.324219 z m 19.79687,-0.62891 v -1.11718 c 0,0 -5.22266,0.29297 0,-17.609379 -4.03125,11.234379 -3.16797,18.726559 0,18.726559 z m -7.59766,-7.01171 c 3.27735,2.34375 6.15235,-7.09375 6.15235,-7.09375 0,0 -3.28516,8.52734 -5.71094,6.15234 -2.09766,-2.05469 5.28125,-9.10547 6.86328,-10.523439 -1.73047,1.492188 -10.42578,9.234379 -7.30469,11.464849 z m 7.58985,-50.312505 c -0.24219,0.152344 -0.47656,0.308594 -0.70703,0.46875 0.4414,-0.324219 0.70703,-0.46875 0.70703,-0.46875"
       fill-opacity="1"
       fill-rule="nonzero"
       id="path9" />
  </g>
  <g
     clip-path="url(#d704952efa)"
     id="g10"
     transform="translate(-102.35481,-1.5742108)">
    <path
       fill="#ffffff"
       d="m 204.15625,47.589844 c 0.27344,0 0.49609,-0.222656 0.49609,-0.496094 0,-0.273438 -0.22265,-0.496094 -0.49609,-0.496094 -0.27344,0 -0.49609,0.222656 -0.49609,0.496094 0,0.273438 0.22265,0.496094 0.49609,0.496094 z M 207.25,45.074219 c 0.27734,0 0.49609,-0.222657 0.49609,-0.496094 0,-0.277344 -0.21875,-0.496094 -0.49609,-0.496094 -0.27344,0 -0.49609,0.21875 -0.49609,0.496094 0,0.273437 0.22265,0.496094 0.49609,0.496094 z m -0.24609,-7.777344 c -0.27735,0 -0.4961,0.222656 -0.4961,0.496094 0,0.273437 0.21875,0.496093 0.4961,0.496093 0.27343,0 0.49218,-0.222656 0.49218,-0.496093 0,-0.273438 -0.21875,-0.496094 -0.49218,-0.496094 z m -2.35157,-18.507813 c 0.27344,0 0.4961,-0.21875 0.4961,-0.496093 0,-0.273438 -0.22266,-0.492188 -0.4961,-0.492188 -0.27343,0 -0.49609,0.21875 -0.49609,0.492188 0,0.277343 0.22266,0.496093 0.49609,0.496093 z m 1.01953,11.863282 c -0.27343,0 -0.49609,0.222656 -0.49609,0.496094 0,0.273437 0.22266,0.496093 0.49609,0.496093 0.27344,0 0.4961,-0.222656 0.4961,-0.496093 0,-0.273438 -0.22266,-0.496094 -0.4961,-0.496094 z m 3.45704,2.027344 c -0.27344,0 -0.4961,0.222656 -0.4961,0.496093 0,0.273438 0.22266,0.496094 0.4961,0.496094 0.27343,0 0.49609,-0.222656 0.49609,-0.496094 0,-0.273437 -0.22266,-0.496093 -0.49609,-0.496093 z m -3.66016,32 c -0.0898,0.441406 -0.36719,0.816406 -0.81641,0.816406 -0.45312,0 -0.8164,-0.367188 -0.8164,-0.816406 0,-0.449219 0.36328,-0.816407 0.8164,-0.816407 0,0 -1.04687,-0.214843 -1.16015,0.898438 -0.0703,0.664062 0.73437,0.871093 1.16406,0.871093 0.42578,0 1.94531,-0.08984 1.61719,-2.792968 -0.40625,-3.308594 -3.75782,-8.921875 -19.48047,-19.058594 1.01172,0.660156 20.23047,13.25 18.67578,20.898438 z M 186.75,61.117188 v 1.101562 c 3.125,0 3.97656,-7.386719 0,-18.464844 5.15234,17.648438 0,17.363282 0,17.363282 z m 0.0117,-17.355469 c 0.0117,0.0078 0.0195,0.01563 0.0312,0.01953 -0.0117,-0.0078 -0.0234,-0.01563 -0.0312,-0.01953 -0.008,-0.0039 -0.0117,-0.0078 -0.0117,-0.0078 0,0 0.10547,0.08984 0.28906,0.246094 -0.14453,-0.128906 -0.24219,-0.210938 -0.27734,-0.238281 z m 7.04297,10.617187 c -2.38672,2.339844 -5.62891,-6.070312 -5.62891,-6.070312 0,0 2.83594,9.308594 6.06641,6.996094 3.07812,-2.203126 -5.4961,-9.832032 -7.20313,-11.304688 1.5625,1.398438 8.83594,8.351562 6.76563,10.378906 z m -6.34766,-48.21875 c -0.4375,-0.320312 -0.69531,-0.464844 -0.69531,-0.464844 0.23437,0.152344 0.46875,0.308594 0.69531,0.464844 z m 30.48438,18.671875 c -10.69141,0.859375 -21.44532,6.582031 -23.80469,7.902344 -0.0664,0.566406 -0.16016,1.109375 -0.28125,1.628906 5.55078,-2.457031 9.2539,-2.457031 9.2539,-2.457031 -3.67578,0.722656 -8.05078,2.777344 -9.55078,3.546875 -0.3164,1 -0.72656,1.898437 -1.1875,2.703125 9.96485,-2.546875 15.375,-4.703125 15.375,-4.703125 -4.55468,2.929687 -15.10937,5.628906 -16.23437,6.042969 -0.58203,0.804687 -1.19922,1.484375 -1.78906,2.050781 10.58984,-0.414063 14.80468,-1.867187 14.80468,-1.867187 -5.0664,2.988281 -15.44922,2.917968 -16.01172,2.910156 -0.71093,0.554687 -1.28906,0.90625 -1.57031,1.0625 l 0.52344,-0.238282 c 0,0 1.32812,-0.378906 6.00391,-0.296874 4.54687,0.07812 9.5039,-0.964844 14.63671,-3.351563 9.91407,-4.613281 9.83204,-14.933594 9.83204,-14.933594 z m -19.66016,-0.78125 c 1.17187,-1.839843 2.83984,-3.019531 2.83984,-3.019531 -1.28906,1.289062 -2.16797,3.003906 -2.65625,4.148438 0.24219,1.695312 0.30078,3.011718 0.3125,3.695312 1.6211,-3.480469 4.88282,-8.554688 4.88282,-8.554688 -1.17579,3.984376 -2.69141,7.074219 -3.41016,8.429688 0.65625,-0.269531 1.36328,-0.542969 2.11719,-0.8125 1.63281,-2.625 2.03515,-5.324219 2.03515,-5.324219 0.0586,2.316407 -0.5,4.03125 -0.8789,4.917969 0.88672,-0.300781 1.83203,-0.597656 2.83593,-0.882812 l -0.10546,0.02734 c 3.21484,-6.769531 0.54296,-13.507812 0.54296,-13.507812 -4.88281,1.617187 -8.30859,6.09375 -9.29687,7.511719 0.34375,1.199218 0.59766,2.335937 0.78125,3.371093 z m -11.53516,19.695313 c 0,-0.0039 0,-0.0039 -0.004,-0.0039 0,0 0,0 -0.004,0.0039 z m -0.20703,-0.09375 c -0.28125,-0.15625 -0.85547,-0.507813 -1.5664,-1.0625 -0.56641,0.0078 -10.94532,0.07813 -16.01172,-2.910156 0,0 4.21484,1.453124 14.80468,1.867187 -0.58984,-0.566406 -1.20703,-1.246094 -1.78906,-2.050781 -1.125,-0.414063 -11.67969,-3.113282 -16.23828,-6.042969 0,0 5.41406,2.15625 15.375,4.703125 -0.45703,-0.804688 -0.86719,-1.703125 -1.1875,-2.703125 -1.49609,-0.769531 -5.87109,-2.824219 -9.54687,-3.546875 0,0 3.70312,0 9.2539,2.457031 -0.12109,-0.519531 -0.21484,-1.0625 -0.28125,-1.628906 -2.36328,-1.320313 -13.11328,-7.042969 -23.80859,-7.902344 0,0 -0.0781,10.320313 9.83594,14.933594 5.13281,2.386719 10.08984,3.429687 14.63281,3.351563 4.67969,-0.08203 6.00781,0.296874 6.00781,0.296874 z m -19.30469,-16.976563 -0.10546,-0.02734 c 1,0.285156 1.94531,0.582031 2.83593,0.882812 -0.3789,-0.886719 -0.9414,-2.601562 -0.88281,-4.917969 0,0 0.40625,2.699219 2.03906,5.324219 0.75391,0.269531 1.46094,0.542969 2.11719,0.8125 -0.71875,-1.355469 -2.23437,-4.445312 -3.41016,-8.429688 0,0 3.25782,5.074219 4.87891,8.554688 0.0117,-0.683594 0.0703,-2 0.31641,-3.695312 -0.48828,-1.144532 -1.3711,-2.859376 -2.65625,-4.148438 0,0 1.66406,1.179688 2.83984,3.019531 0.18359,-1.035156 0.4375,-2.171875 0.78125,-3.371093 -0.99219,-1.417969 -4.41797,-5.894532 -9.30078,-7.511719 0,0 -2.66797,6.738281 0.54687,13.507812 z m 35.42188,22.757813 c -9.94141,-1.132813 -10.22656,-4.257813 -15.90625,-5.679688 4.55078,0.480469 6.66406,3.707032 16.09375,4.785156 8.60156,0.984376 13.98047,-2.265624 13.98047,-2.265624 -1.70313,-3.578126 -6.26172,-5.019532 -7.94531,-5.441407 -3.32032,1.789063 -6.9375,2.457031 -10.35547,2.683594 1.18359,0.40625 3.30859,1.058594 5.36718,1.304687 0,0 -4.77734,-0.316406 -7.35937,-1.214843 -1.42578,0.03516 -2.80078,0.01172 -4.07422,-0.01172 0.58203,0.246094 1.66797,0.722656 2.44531,1.167969 1.10938,0.632812 4.23438,1.777343 6.21094,1.835937 0.20703,0.0078 -4.23828,-0.02734 -6.87109,-1.523437 -1.60547,-0.914063 -2.7461,-1.328125 -3.39453,-1.511719 -1.59766,-0.01953 -2.99219,0 -4.08204,0.1875 0,0 -0.004,0.0039 -0.004,0.0039 0,0 0.004,0 0.004,-0.0039 -0.004,0 -0.004,0.0039 -0.008,0.0039 0,0 0,0 0.004,0 0,0 -0.004,0 -0.004,0 h 0.004 -0.0352 0.004 c -0.004,0 -0.004,0 -0.004,0 0,0 0,0 0.004,0 -0.004,0 -0.008,-0.0039 -0.008,-0.0039 0,0.0039 0.004,0.0039 0.004,0.0039 0,0 -0.004,-0.0039 -0.004,-0.0039 -1.09375,-0.1875 -2.48829,-0.207031 -4.08594,-0.1875 -0.64453,0.183594 -1.78516,0.597656 -3.39453,1.511719 -2.62891,1.496093 -7.07813,1.53125 -6.86719,1.523437 1.97266,-0.05859 5.09766,-1.203125 6.20703,-1.835937 0.77734,-0.445313 1.86719,-0.921875 2.44922,-1.167969 -1.27734,0.02344 -2.64844,0.04687 -4.07422,0.01172 -2.58203,0.898437 -7.35937,1.214843 -7.35937,1.214843 2.05859,-0.246093 4.18359,-0.898437 5.36718,-1.304687 -3.41797,-0.226563 -7.03515,-0.894531 -10.35547,-2.683594 -1.68359,0.421875 -6.24609,1.863281 -7.94921,5.441407 0,0 5.3789,3.25 13.98437,2.265624 9.42969,-1.078124 11.53906,-4.304687 16.09375,-4.785156 -5.67969,1.421875 -5.96484,4.546875 -15.90625,5.679688 -9.07422,1.039062 -14.48828,-3.121094 -14.48828,-3.121094 1.70312,-4.546875 7.38672,-5.96875 7.78516,-5.746094 -0.42579,-0.246094 -0.83985,-0.503906 -1.25391,-0.789062 -8.23438,-5.679688 -7.66797,-15.339844 -7.66797,-15.339844 4.10938,0.378906 7.76563,1.09375 10.91406,1.933594 l -0.23047,-0.0625 c 0,0 -2.73046,-6.132813 0.67969,-13.519532 0,0 6.16406,2.066407 9.76172,6.761719 1.48438,-4.527343 4.3125,-9.695312 9.69922,-13.390625 -2.23047,1.628906 -9.125,7.902344 -10.23047,23.714844 1.77734,0.84375 2.95313,1.53125 3.46484,1.851562 -0.0156,-0.265624 -0.0234,-0.535156 -0.0234,-0.8125 0,-9.3125 4.92968,-13.078124 7.48437,-14.5 0,0 -6.58203,3.898438 -6.58203,14.679688 0,8.390625 5.53906,12.042969 6.45313,12.585938 l 0.14062,0.06641 c 0.004,-0.0039 0.004,-0.0039 0.004,-0.0039 -0.0117,-0.01172 -0.0391,-0.03125 -0.0742,-0.05859 0.0273,0.01953 0.0508,0.03906 0.0742,0.05859 0.0273,-0.01953 0.0508,-0.03906 0.0742,-0.05859 -0.0352,0.02734 -0.0586,0.04687 -0.0742,0.05859 0.004,0 0.004,0 0.004,0.0039 l 0.14453,-0.06641 c 0.91016,-0.542969 6.45313,-4.195313 6.45313,-12.585938 0,-10.78125 -6.58203,-14.679688 -6.58203,-14.679688 2.55469,1.421876 7.48047,5.1875 7.48047,14.5 0,0.277344 -0.008,0.546876 -0.0195,0.8125 0.51171,-0.320312 1.6875,-1.007812 3.46484,-1.851562 -1.10547,-15.8125 -8,-22.085938 -10.23047,-23.714844 5.38672,3.695313 8.21484,8.863282 9.69531,13.390625 3.60157,-4.695312 9.76563,-6.761719 9.76563,-6.761719 3.40625,7.386719 0.67969,13.519532 0.67969,13.519532 l -0.23438,0.0625 c 3.15234,-0.839844 6.80469,-1.554688 10.91797,-1.933594 0,0 0.56641,9.660156 -7.67188,15.339844 -0.41015,0.285156 -0.82812,0.542968 -1.25,0.789062 0.39844,-0.222656 6.08204,1.199219 7.78516,5.746094 0,0 -5.41797,4.160156 -14.48828,3.121094 z m -15.5625,14.664062 c 0,-0.273437 -0.22266,-0.496094 -0.49609,-0.496094 -0.27735,0 -0.5,0.222657 -0.5,0.496094 0,0.273438 0.22265,0.496094 0.5,0.496094 0.27343,0 0.49609,-0.222656 0.49609,-0.496094 z m 18.05469,2.695313 c -0.27344,0 -0.4961,0.222656 -0.4961,0.496093 0,0.273438 0.22266,0.496094 0.4961,0.496094 0.27343,0 0.49609,-0.222656 0.49609,-0.496094 0,-0.273437 -0.22266,-0.496093 -0.49609,-0.496093 z m -36.07032,0 c -0.27343,0 -0.49609,0.222656 -0.49609,0.496093 0,0.273438 0.22266,0.496094 0.49609,0.496094 0.27344,0 0.4961,-0.222656 0.4961,-0.496094 0,-0.273437 -0.22266,-0.496093 -0.4961,-0.496093 z m 0.25391,-20.195313 c -0.27734,0 -0.5,0.222656 -0.5,0.496094 0,0.273438 0.22266,0.496094 0.5,0.496094 0.27344,0 0.49609,-0.222656 0.49609,-0.496094 0,-0.273438 -0.22265,-0.496094 -0.49609,-0.496094 z m -3.09766,-2.515625 c -0.27343,0 -0.49609,0.21875 -0.49609,0.496094 0,0.273437 0.22266,0.496094 0.49609,0.496094 0.27735,0 0.4961,-0.222657 0.4961,-0.496094 0,-0.277344 -0.21875,-0.496094 -0.4961,-0.496094 z m 0.25,-6.785156 c -0.27343,0 -0.49609,0.222656 -0.49609,0.496094 0,0.273437 0.22266,0.496093 0.49609,0.496093 0.27344,0 0.4961,-0.222656 0.4961,-0.496093 0,-0.273438 -0.22266,-0.496094 -0.4961,-0.496094 z m 2.34766,-18.507813 c 0.27734,0 0.5,-0.21875 0.5,-0.496093 0,-0.273438 -0.22266,-0.492188 -0.5,-0.492188 -0.27344,0 -0.49609,0.21875 -0.49609,0.492188 0,0.277343 0.22265,0.496093 0.49609,0.496093 z m 17.41406,3.328126 c 0,0.273437 0.22266,0.496093 0.4961,0.496093 0.27343,0 0.49609,-0.222656 0.49609,-0.496093 0,-0.277344 -0.22266,-0.496094 -0.49609,-0.496094 -0.27344,0 -0.4961,0.21875 -0.4961,0.496094 z m 4.71875,5.34375 c 0,-0.273438 -0.22265,-0.496094 -0.49609,-0.496094 -0.27344,0 -0.49609,0.222656 -0.49609,0.496094 0,0.273437 0.22265,0.496093 0.49609,0.496093 0.27344,0 0.49609,-0.222656 0.49609,-0.496093 z m -8.9414,0 c 0,0.273437 0.22265,0.496093 0.49609,0.496093 0.27344,0 0.49609,-0.222656 0.49609,-0.496093 0,-0.273438 -0.22265,-0.496094 -0.49609,-0.496094 -0.27344,0 -0.49609,0.222656 -0.49609,0.496094 z m -14.2461,4.183593 c 0.27344,0 0.4961,-0.222656 0.4961,-0.496093 0,-0.273438 -0.22266,-0.496094 -0.4961,-0.496094 -0.27343,0 -0.49609,0.222656 -0.49609,0.496094 0,0.273437 0.22266,0.496093 0.49609,0.496093 z m -3.41797,1.035157 c -0.27343,0 -0.49609,0.222656 -0.49609,0.496093 0,0.273438 0.22266,0.496094 0.49609,0.496094 0.27344,0 0.4961,-0.222656 0.4961,-0.496094 0,-0.273437 -0.22266,-0.496093 -0.4961,-0.496093 z m 22.23829,33.65625 c 0.58203,0 1.05859,0.617187 1.05859,1.378906 0,0.761718 -0.47656,1.378906 -1.05859,1.378906 0.76171,0 1.3789,-0.617188 1.3789,-1.378906 0,-0.761719 -0.61719,-1.378906 -1.3789,-1.378906 z m -1.0625,1.378906 c 0,-0.761719 0.47656,-1.378906 1.0625,-1.378906 -0.76172,0 -1.38282,0.617187 -1.38282,1.378906 0,0.761718 0.6211,1.378906 1.38282,1.378906 -0.58594,0 -1.0625,-0.617188 -1.0625,-1.378906 z M 187.93359,11.375 c 0,0.960938 -0.59765,1.742188 -1.33593,1.742188 0.96093,0 1.74218,-0.78125 1.74218,-1.742188 0,-0.960938 -0.78125,-1.742188 -1.74218,-1.742188 0.73828,0 1.33593,0.78125 1.33593,1.742188 z m -3.07812,0 c 0,0.960938 0.77734,1.742188 1.74219,1.742188 -0.74219,0 -1.33985,-0.78125 -1.33985,-1.742188 0,-0.960938 0.59766,-1.742188 1.33985,-1.742188 -0.96485,0 -1.74219,0.78125 -1.74219,1.742188 z m -1.63672,28.460938 c -2.15234,-3.34375 0.48047,-5.667969 1.84766,-5.390626 1.39843,0.28125 1.66015,1.949219 1.66015,1.949219 0,-0.04687 -0.004,-0.08984 -0.008,-0.132812 l 0.043,0.132812 0.14062,-0.507812 c 0.19532,-0.515625 0.6211,-1.261719 1.51563,-1.441407 1.37109,-0.277343 4.0039,2.046876 1.85156,5.390626 -1.39453,2.167968 -3.05078,3.535156 -3.45312,3.847656 4.63671,-3.519532 5.0664,-5.871094 4.83203,-7.269532 -0.043,-0.273437 -0.11328,-0.535156 -0.20313,-0.773437 0.13672,-1.054687 0.375,-3.875 -0.49219,-6.363281 0,0 0.32422,2.871094 -0.27734,5.207031 -0.38672,-0.332031 -0.875,-0.523437 -1.46094,-0.523437 -0.89062,-0.0039 -1.67187,0.46875 -2.10156,1.179687 0,-2.527344 -0.35156,-8.742187 -0.35156,-8.742187 -0.44922,2.777343 -0.38672,8.742187 -0.38672,8.742187 v 0.0039 c -0.42969,-0.714843 -1.21094,-1.1875 -2.10547,-1.183593 -0.59766,0 -1.09375,0.203124 -1.48437,0.546874 -0.60922,-2.339837 -0.285,-5.230462 -0.285,-5.230462 -0.88672,2.542968 -0.61719,5.4375 -0.48047,6.433594 -0.0781,0.21875 -0.14062,0.453124 -0.18359,0.703124 -0.23047,1.398438 0.19531,3.75 4.83203,7.269532 -0.39844,-0.3125 -2.05469,-1.679688 -3.44922,-3.847656 z m 3.47656,3.945312 c 0.008,-0.0039 0.0195,-0.01172 0.0312,-0.01953 -0.0352,0.02734 -0.13281,0.109375 -0.27734,0.238281 0.18359,-0.15625 0.28906,-0.246094 0.28906,-0.246094 0,0 -0.008,0.0039 -0.0117,0.0078 -0.008,0.0039 -0.0195,0.01172 -0.0312,0.01953 z m -19.48047,19.058594 c -0.32812,2.703125 1.1875,2.792968 1.61719,2.792968 0.42969,0 1.23047,-0.207031 1.16406,-0.871093 -0.11328,-1.113281 -1.16015,-0.898438 -1.16015,-0.898438 0.44922,0 0.8164,0.367188 0.8164,0.816407 0,0.449218 -0.36718,0.816406 -0.8164,0.816406 -0.44922,0 -0.72657,-0.375 -0.81641,-0.816406 -1.55469,-7.648438 17.66406,-20.238282 18.67578,-20.898438 -15.72265,10.136719 -19.07422,15.75 -19.48047,19.058594 z m 19.52344,-0.621094 v -1.101562 c 0,0 -5.15234,0.285156 0,-17.363282 -3.97656,11.078125 -3.125,18.464844 0,18.464844 z m -7.49609,-6.914062 c 3.23437,2.3125 6.0664,-6.996094 6.0664,-6.996094 0,0 -3.23828,8.410156 -5.6289,6.070312 -2.07032,-2.027344 5.20703,-8.980468 6.76953,-10.378906 -1.70703,1.472656 -10.28125,9.101562 -7.20703,11.304688 z m 7.48437,-49.609376 c -0.23828,0.152344 -0.46875,0.308594 -0.69531,0.464844 0.4375,-0.320312 0.69531,-0.464844 0.69531,-0.464844"
       fill-opacity="1"
       fill-rule="nonzero"
       id="path10" />
  </g>
  <g
     fill="#ffffff"
     fill-opacity="1"
     id="g13"
     transform="translate(-102.35481,-1.5742108)">
    <g
       transform="translate(103.30786,139.22232)"
       id="g12">
      <g
         id="g11">
        <path
           d="M 8.84375,-2.265625 V 0 H 0.328125 l 4.71875,-9.046875 h -4.375 V -11.3125 h 8.4375 l -4.71875,9.046875 z m 0,0"
           id="path11" />
      </g>
    </g>
  </g>
  <g
     fill="#ffffff"
     fill-opacity="1"
     id="g16"
     transform="translate(-102.35481,-1.5742108)">
    <g
       transform="translate(114.65921,139.22232)"
       id="g15">
      <g
         id="g14">
        <path
           d="M 3.484375,0 H 1 v -11.3125 h 2.484375 z m 0,0"
           id="path13" />
      </g>
    </g>
  </g>
  <g
     fill="#ffffff"
     fill-opacity="1"
     id="g19"
     transform="translate(-102.35481,-1.5742108)">
    <g
       transform="translate(121.05864,139.22232)"
       id="g18">
      <g
         id="g17">
        <path
           d="m 6.453125,-3.3125 c 0,-0.363281 -0.136719,-0.679688 -0.40625,-0.953125 -0.273437,-0.269531 -0.59375,-0.40625 -0.96875,-0.40625 H 3.484375 V -1.9375 h 1.59375 c 0.375,0 0.695313,-0.132812 0.96875,-0.40625 0.269531,-0.269531 0.40625,-0.59375 0.40625,-0.96875 z m -0.78125,-4.71875 c 0,-0.363281 -0.132813,-0.671875 -0.390625,-0.921875 C 5.019531,-9.210938 4.710938,-9.34375 4.359375,-9.34375 h -0.875 v 2.625 h 0.875 c 0.351563,0 0.660156,-0.128906 0.921875,-0.390625 0.257812,-0.257813 0.390625,-0.566406 0.390625,-0.921875 z M 9,-3.234375 c 0,0.96875 -0.304688,1.75 -0.90625,2.34375 C 7.5,-0.296875 6.65625,0 5.5625,0 H 1 v -11.3125 h 3.890625 c 0.644531,0 1.203125,0.132812 1.671875,0.390625 0.46875,0.25 0.832031,0.589844 1.09375,1.015625 0.257812,0.429688 0.390625,0.902344 0.390625,1.421875 0,0.585937 -0.121094,1.085937 -0.359375,1.5 -0.242188,0.40625 -0.570312,0.710937 -0.984375,0.90625 C 7.328125,-5.941406 7.863281,-5.625 8.3125,-5.125 8.769531,-4.632812 9,-4.003906 9,-3.234375 Z m 0,0"
           id="path16" />
      </g>
    </g>
  </g>
  <g
     fill="#ffffff"
     fill-opacity="1"
     id="g22"
     transform="translate(-102.35481,-1.5742108)">
    <g
       transform="translate(132.12749,139.22232)"
       id="g21">
      <g
         id="g20">
        <path
           d="m 9.71875,-5.671875 c 0,-0.582031 -0.15625,-1.125 -0.46875,-1.625 C 8.945312,-7.804688 8.539062,-8.21875 8.03125,-8.53125 7.53125,-8.84375 6.988281,-9 6.40625,-9 5.820312,-9 5.273438,-8.84375 4.765625,-8.53125 4.253906,-8.21875 3.84375,-7.804688 3.53125,-7.296875 c -0.304688,0.5 -0.453125,1.042969 -0.453125,1.625 0,0.585937 0.148437,1.132813 0.453125,1.640625 0.3125,0.5 0.722656,0.914062 1.234375,1.234375 0.507813,0.3125 1.054687,0.46875 1.640625,0.46875 0.582031,0 1.125,-0.15625 1.625,-0.46875 C 8.539062,-3.117188 8.945312,-3.53125 9.25,-4.03125 9.5625,-4.539062 9.71875,-5.085938 9.71875,-5.671875 Z m 2.5,0.015625 c 0,0.78125 -0.15625,1.527344 -0.46875,2.234375 -0.3125,0.699219 -0.742188,1.320313 -1.28125,1.859375 -0.53125,0.53125 -1.148438,0.953125 -1.84375,1.265625 -0.699219,0.3125 -1.4375,0.46875 -2.21875,0.46875 -0.78125,0 -1.527344,-0.15625 -2.234375,-0.46875 C 3.472656,-0.609375 2.851562,-1.03125 2.3125,-1.5625 1.78125,-2.101562 1.359375,-2.722656 1.046875,-3.421875 0.734375,-4.128906 0.578125,-4.875 0.578125,-5.65625 c 0,-0.78125 0.15625,-1.519531 0.46875,-2.21875 C 1.359375,-8.570312 1.78125,-9.191406 2.3125,-9.734375 2.851562,-10.273438 3.472656,-10.695312 4.171875,-11 4.878906,-11.3125 5.625,-11.46875 6.40625,-11.46875 c 0.78125,0 1.519531,0.15625 2.21875,0.46875 0.695312,0.304688 1.3125,0.726562 1.84375,1.265625 0.539062,0.542969 0.96875,1.164063 1.28125,1.859375 0.3125,0.699219 0.46875,1.4375 0.46875,2.21875 z m 0,0"
           id="path19" />
      </g>
    </g>
  </g>
  <g
     fill="#ffffff"
     fill-opacity="1"
     id="g25"
     transform="translate(-102.35481,-1.5742108)">
    <g
       transform="translate(146.83551,139.22232)"
       id="g24">
      <g
         id="g23">
        <path
           d="m 7.59375,-11.3125 h 2.5 v 6.90625 c 0,1.511719 -0.414062,2.652344 -1.234375,3.421875 -0.824219,0.773437 -1.96875,1.15625 -3.4375,1.15625 -1.480469,0 -2.632813,-0.382813 -3.453125,-1.15625 C 1.15625,-1.753906 0.75,-2.894531 0.75,-4.40625 v -6.90625 h 2.484375 v 6.546875 c 0,0.773437 0.148437,1.371094 0.453125,1.796875 0.3125,0.429688 0.890625,0.640625 1.734375,0.640625 0.851563,0 1.425781,-0.210937 1.71875,-0.640625 0.300781,-0.425781 0.453125,-1.023438 0.453125,-1.796875 z m 0,0"
           id="path22" />
      </g>
    </g>
  </g>
  <g
     fill="#ffffff"
     fill-opacity="1"
     id="g28"
     transform="translate(-102.35481,-1.5742108)">
    <g
       transform="translate(159.5827,139.22232)"
       id="g27">
      <g
         id="g26">
        <path
           d="m 1,0 v -11.3125 h 2.484375 v 9.046875 h 4.0625 V 0 Z m 0,0"
           id="path25" />
      </g>
    </g>
  </g>
  <g
     fill="#ffffff"
     fill-opacity="1"
     id="g31"
     transform="translate(-102.35481,-1.5742108)">
    <g
       transform="translate(169.62129,139.22232)"
       id="g30">
      <g
         id="g29">
        <path
           d="M 7.546875,-2.265625 V 0 H 1 v -11.3125 h 6.546875 v 2.265625 h -4.0625 v 2.25 H 7.375 V -4.53125 H 3.484375 v 2.265625 z m 0,0"
           id="path28" />
      </g>
    </g>
  </g>
  <g
     fill="#ffffff"
     fill-opacity="1"
     id="g34"
     transform="translate(-102.35481,-1.5742108)">
    <g
       transform="translate(180.07532,139.22232)"
       id="g33">
      <g
         id="g32">
        <path
           d="M 5.796875,-9.046875 V 0 H 3.3125 V -9.046875 H 0.078125 V -11.3125 H 9.03125 v 2.265625 z m 0,0"
           id="path31" />
      </g>
    </g>
  </g>
  <g
     fill="#ffffff"
     fill-opacity="1"
     id="g37"
     transform="translate(-102.35481,-1.5742108)">
    <g
       transform="translate(191.09432,139.22232)"
       id="g36">
      <g
         id="g35">
        <path
           d="M 5.796875,-9.046875 V 0 H 3.3125 V -9.046875 H 0.078125 V -11.3125 H 9.03125 v 2.265625 z m 0,0"
           id="path34" />
      </g>
    </g>
  </g>
  <g
     fill="#ffffff"
     fill-opacity="1"
     id="g40"
     transform="translate(-102.35481,-1.5742108)">
    <g
       transform="translate(202.11333,139.22232)"
       id="g39">
      <g
         id="g38">
        <path
           d="M 7.546875,-2.265625 V 0 H 1 v -11.3125 h 6.546875 v 2.265625 h -4.0625 v 2.25 H 7.375 V -4.53125 H 3.484375 v 2.265625 z m 0,0"
           id="path37" />
      </g>
    </g>
  </g>
  <g
     fill="#ffffff"
     fill-opacity="1"
     id="g46"
     transform="translate(-102.35481,-1.5742108)">
    <g
       transform="translate(218.63443,139.22232)"
       id="g45">
      <g
         id="g44">
        <path
           d="m 9.875,0 h -2.5 L 3.484375,-7.046875 V 0 H 1 V -11.3125 H 3.484375 L 7.375,-4.25 v -7.0625 h 2.5 z m 0,0"
           id="path43" />
      </g>
    </g>
  </g>
  <g
     fill="#ffffff"
     fill-opacity="1"
     id="g49"
     transform="translate(-102.35481,-1.5742108)">
    <g
       transform="translate(231.41485,139.22232)"
       id="g48">
      <g
         id="g47">
        <path
           d="M 7.15625,-4.328125 5.71875,-8.34375 4.296875,-4.328125 Z M 11.375,0 H 8.6875 L 7.875,-2.28125 H 3.578125 L 2.765625,0 h -2.6875 l 4.59375,-11.3125 H 6.78125 Z m 0,0"
           id="path46" />
      </g>
    </g>
  </g>
  <g
     fill="#ffffff"
     fill-opacity="1"
     id="g52"
     transform="translate(-102.35481,-1.5742108)">
    <g
       transform="translate(244.77688,139.22232)"
       id="g51">
      <g
         id="g50">
        <path
           d="M 3.484375,0 H 1 v -11.3125 h 2.484375 z m 0,0"
           id="path49" />
      </g>
    </g>
  </g>
  <g
     fill="#ffffff"
     fill-opacity="1"
     id="g55"
     transform="translate(-102.35481,-1.5742108)">
    <g
       transform="translate(251.1763,139.22232)"
       id="g54">
      <g
         id="g53">
        <path
           d="m 1,0 v -11.3125 h 2.484375 v 9.046875 h 4.0625 V 0 Z m 0,0"
           id="path52" />
      </g>
    </g>
  </g>
  <g
     fill="#ffffff"
     fill-opacity="1"
     id="g58"
     transform="translate(-102.35481,-1.5742108)">
    <g
       transform="translate(261.21488,139.22232)"
       id="g57">
      <g
         id="g56">
        <path
           d="m 5.390625,-1.765625 c 0.257813,0 0.546875,-0.039063 0.859375,-0.125 0.3125,-0.082031 0.578125,-0.21875 0.796875,-0.40625 0.226563,-0.195313 0.34375,-0.460937 0.34375,-0.796875 0,-0.3125 -0.121094,-0.5625 -0.359375,-0.75 C 6.800781,-4.03125 6.488281,-4.179688 6.09375,-4.296875 5.707031,-4.421875 5.285156,-4.535156 4.828125,-4.640625 4.367188,-4.742188 3.90625,-4.867188 3.4375,-5.015625 2.976562,-5.171875 2.550781,-5.367188 2.15625,-5.609375 1.769531,-5.859375 1.457031,-6.175781 1.21875,-6.5625 0.976562,-6.957031 0.859375,-7.453125 0.859375,-8.046875 c 0,-0.582031 0.117187,-1.085937 0.359375,-1.515625 0.25,-0.425781 0.578125,-0.78125 0.984375,-1.0625 0.40625,-0.289062 0.859375,-0.503906 1.359375,-0.640625 0.507812,-0.132813 1.019531,-0.203125 1.53125,-0.203125 0.769531,0 1.492188,0.125 2.171875,0.375 0.675781,0.242188 1.226563,0.625 1.65625,1.15625 0.425781,0.523438 0.648437,1.214844 0.671875,2.078125 H 7.1875 c -0.074219,-0.59375 -0.28125,-1 -0.625,-1.21875 -0.34375,-0.226563 -0.824219,-0.34375 -1.4375,-0.34375 -0.242188,0 -0.492188,0.042969 -0.75,0.125 -0.261719,0.074219 -0.484375,0.199219 -0.671875,0.375 C 3.523438,-8.753906 3.4375,-8.53125 3.4375,-8.25 c 0,0.292969 0.117188,0.523438 0.359375,0.6875 0.238281,0.167969 0.550781,0.308594 0.9375,0.421875 0.382813,0.105469 0.8125,0.210937 1.28125,0.3125 0.46875,0.09375 0.929687,0.214844 1.390625,0.359375 0.457031,0.148438 0.878906,0.34375 1.265625,0.59375 0.394531,0.25 0.707031,0.574219 0.9375,0.96875 C 9.847656,-4.507812 9.96875,-4 9.96875,-3.375 c 0,0.667969 -0.136719,1.234375 -0.40625,1.703125 C 9.300781,-1.210938 8.945312,-0.84375 8.5,-0.5625 8.050781,-0.28125 7.546875,-0.0703125 6.984375,0.0625 6.429688,0.195312 5.863281,0.265625 5.28125,0.265625 4.457031,0.265625 3.679688,0.125 2.953125,-0.15625 2.222656,-0.4375 1.632812,-0.867188 1.1875,-1.453125 0.738281,-2.046875 0.507812,-2.800781 0.5,-3.71875 h 2.53125 c 0.03125,0.679688 0.273438,1.171875 0.734375,1.484375 0.46875,0.3125 1.007813,0.46875 1.625,0.46875 z m 0,0"
           id="path55" />
      </g>
    </g>
  </g>
  <g
     fill="#ffffff"
     fill-opacity="1"
     id="g61"
     transform="translate(-102.35481,-1.5742108)">
    <g
       transform="translate(101.55794,164.99426)"
       id="g60">
      <g
         id="g59">
        <path
           d="m 6.421875,-3.625 c 0,0.53125 -0.101563,1.015625 -0.296875,1.453125 -0.199219,0.449219 -0.464844,0.835937 -0.796875,1.15625 C 4.992188,-0.703125 4.601562,-0.457031 4.15625,-0.28125 3.695312,-0.09375 3.207031,0 2.6875,0 H 0.796875 V -7.234375 H 2.6875 c 0.519531,0 1.007812,0.089844 1.46875,0.265625 0.445312,0.1875 0.835938,0.4375 1.171875,0.75 0.332031,0.324219 0.597656,0.703125 0.796875,1.140625 0.195312,0.449219 0.296875,0.933594 0.296875,1.453125 z m -0.734375,0 c 0,-0.820312 -0.292969,-1.507812 -0.875,-2.0625 C 4.25,-6.21875 3.550781,-6.484375 2.71875,-6.484375 H 1.546875 V -0.75 H 2.71875 c 0.832031,0 1.53125,-0.265625 2.09375,-0.796875 0.582031,-0.5625 0.875,-1.253906 0.875,-2.078125 z m 0,0"
           id="path58" />
      </g>
    </g>
  </g>
  <g
     fill="#ffffff"
     fill-opacity="1"
     id="g64"
     transform="translate(-102.35481,-1.5742108)">
    <g
       transform="translate(113.09545,164.99426)"
       id="g63">
      <g
         id="g62">
        <path
           d="M 5.09375,0 H 0.796875 V -7.234375 H 5.09375 v 0.6875 H 1.546875 v 2.578125 h 3.4375 v 0.703125 h -3.4375 V -0.6875 H 5.09375 Z m 0,0"
           id="path61" />
      </g>
    </g>
  </g>
  <g
     fill="#ffffff"
     fill-opacity="1"
     id="g67"
     transform="translate(-102.35481,-1.5742108)">
    <g
       transform="translate(123.63273,164.99426)"
       id="g66">
      <g
         id="g65">
        <path
           d="M 2.8125,-3.421875 C 1.332031,-3.753906 0.59375,-4.382812 0.59375,-5.3125 c 0,-0.675781 0.238281,-1.1875 0.71875,-1.53125 0.46875,-0.332031 1.023438,-0.5 1.671875,-0.5 1.40625,0 2.238281,0.527344 2.5,1.578125 H 4.6875 c -0.148438,-0.625 -0.714844,-0.9375 -1.703125,-0.9375 -0.699219,0 -1.1875,0.203125 -1.46875,0.609375 -0.105469,0.15625 -0.15625,0.355469 -0.15625,0.59375 0,0.449219 0.238281,0.792969 0.71875,1.03125 0.226563,0.125 0.710937,0.28125 1.453125,0.46875 0.738281,0.1875 1.273438,0.402344 1.609375,0.640625 0.457031,0.324219 0.6875,0.78125 0.6875,1.375 0,0.730469 -0.289063,1.28125 -0.859375,1.65625 -0.480469,0.3125 -1.074219,0.46875 -1.78125,0.46875 -1.605469,0 -2.539062,-0.609375 -2.796875,-1.828125 H 1.28125 c 0.132812,0.761719 0.769531,1.140625 1.90625,1.140625 0.800781,0 1.363281,-0.222656 1.6875,-0.671875 C 5,-1.394531 5.0625,-1.632812 5.0625,-1.9375 5.0625,-2.238281 4.945312,-2.484375 4.71875,-2.671875 4.382812,-2.941406 3.75,-3.191406 2.8125,-3.421875 Z m 0,0"
           id="path64" />
      </g>
    </g>
  </g>
  <g
     fill="#ffffff"
     fill-opacity="1"
     id="g73"
     transform="translate(-102.35481,-1.5742108)">
    <g
       transform="translate(141.89817,164.99426)"
       id="g72">
      <g
         id="g71">
        <path
           d="m 7.171875,-3.640625 c 0,-0.8125 -0.292969,-1.507813 -0.875,-2.09375 -0.585937,-0.582031 -1.289063,-0.875 -2.109375,-0.875 -0.8125,0 -1.511719,0.292969 -2.09375,0.875 -0.585938,0.585937 -0.875,1.28125 -0.875,2.09375 0,0.824219 0.289062,1.527344 0.875,2.109375 0.582031,0.585938 1.28125,0.875 2.09375,0.875 0.820312,0 1.523438,-0.289062 2.109375,-0.875 0.582031,-0.582031 0.875,-1.285156 0.875,-2.109375 z m 0.75,0 c 0,0.511719 -0.101563,0.996094 -0.296875,1.453125 -0.199219,0.449219 -0.464844,0.839844 -0.796875,1.171875 -0.335937,0.34375 -0.730469,0.609375 -1.1875,0.796875 C 5.179688,-0.0195312 4.695312,0.078125 4.1875,0.078125 3.675781,0.078125 3.195312,-0.0195312 2.75,-0.21875 2.300781,-0.40625 1.910156,-0.671875 1.578125,-1.015625 1.234375,-1.347656 0.96875,-1.738281 0.78125,-2.1875 0.582031,-2.644531 0.484375,-3.128906 0.484375,-3.640625 c 0,-0.507813 0.097656,-0.992187 0.296875,-1.453125 0.1875,-0.445312 0.453125,-0.835938 0.796875,-1.171875 C 1.910156,-6.597656 2.300781,-6.863281 2.75,-7.0625 c 0.445312,-0.195312 0.925781,-0.296875 1.4375,-0.296875 0.507812,0 0.992188,0.101563 1.453125,0.296875 0.457031,0.199219 0.851563,0.464844 1.1875,0.796875 0.332031,0.335937 0.597656,0.726563 0.796875,1.171875 0.195312,0.460938 0.296875,0.945312 0.296875,1.453125 z m 0,0"
           id="path70" />
      </g>
    </g>
  </g>
  <g
     fill="#ffffff"
     fill-opacity="1"
     id="g76"
     transform="translate(-102.35481,-1.5742108)">
    <g
       transform="translate(154.93602,164.99426)"
       id="g75">
      <g
         id="g74">
        <path
           d="M 1.546875,-5.328125 V 0 h -0.75 v -7.6875 l 4.0625,5.765625 v -5.3125 h 0.75 v 7.6875 z m 0,0"
           id="path73" />
      </g>
    </g>
  </g>
  <g
     fill="#ffffff"
     fill-opacity="1"
     id="g79"
     transform="translate(-102.35481,-1.5742108)">
    <g
       transform="translate(165.98406,164.99426)"
       id="g78">
      <g
         id="g77">
        <path
           d="M 7.9375,-3.390625 7.859375,-2.9375 c -0.15625,0.875 -0.585937,1.601562 -1.28125,2.171875 -0.710937,0.5625 -1.5,0.84375 -2.375,0.84375 C 3.691406,0.078125 3.207031,-0.0195312 2.75,-0.21875 2.300781,-0.40625 1.910156,-0.671875 1.578125,-1.015625 1.234375,-1.347656 0.96875,-1.738281 0.78125,-2.1875 0.582031,-2.644531 0.484375,-3.132812 0.484375,-3.65625 c 0,-0.507812 0.097656,-0.988281 0.296875,-1.4375 0.1875,-0.457031 0.453125,-0.851562 0.796875,-1.1875 C 1.910156,-6.613281 2.300781,-6.882812 2.75,-7.09375 3.207031,-7.28125 3.664062,-7.375 4.125,-7.375 c 0.863281,0 1.628906,0.246094 2.296875,0.734375 0.664063,0.492187 1.117187,1.136719 1.359375,1.9375 H 6.984375 c -0.21875,-0.59375 -0.585937,-1.0625 -1.09375,-1.40625 C 5.378906,-6.453125 4.816406,-6.625 4.203125,-6.625 c -0.824219,0 -1.527344,0.292969 -2.109375,0.875 -0.585938,0.574219 -0.875,1.273438 -0.875,2.09375 0,0.824219 0.289062,1.527344 0.875,2.109375 0.570312,0.59375 1.273438,0.890625 2.109375,0.890625 0.65625,0 1.25,-0.1875 1.78125,-0.5625 0.53125,-0.382812 0.90625,-0.890625 1.125,-1.515625 h -2.9375 v -0.65625 z m 0,0"
           id="path76" />
      </g>
    </g>
  </g>
  <g
     fill="#ffffff"
     fill-opacity="1"
     id="g82"
     transform="translate(-102.35481,-1.5742108)">
    <g
       transform="translate(179.04319,164.99426)"
       id="g81">
      <g
         id="g80">
        <path
           d="M 1.546875,-0.75 H 4.125 V 0 H 0.796875 v -7.234375 h 0.75 z m 0,0"
           id="path79" />
      </g>
    </g>
  </g>
  <g
     fill="#ffffff"
     fill-opacity="1"
     id="g85"
     transform="translate(-102.35481,-1.5742108)">
    <g
       transform="translate(188.02694,164.99426)"
       id="g84">
      <g
         id="g83">
        <path
           d="M 5.09375,0 H 0.796875 V -7.234375 H 5.09375 v 0.6875 H 1.546875 v 2.578125 h 3.4375 v 0.703125 h -3.4375 V -0.6875 H 5.09375 Z m 0,0"
           id="path82" />
      </g>
    </g>
  </g>
  <g
     fill="#ffffff"
     fill-opacity="1"
     id="g88"
     transform="translate(-102.35481,-1.5742108)">
    <g
       transform="translate(198.56422,164.99426)"
       id="g87">
      <g
         id="g86">
        <path
           d="M 2.8125,-3.421875 C 1.332031,-3.753906 0.59375,-4.382812 0.59375,-5.3125 c 0,-0.675781 0.238281,-1.1875 0.71875,-1.53125 0.46875,-0.332031 1.023438,-0.5 1.671875,-0.5 1.40625,0 2.238281,0.527344 2.5,1.578125 H 4.6875 c -0.148438,-0.625 -0.714844,-0.9375 -1.703125,-0.9375 -0.699219,0 -1.1875,0.203125 -1.46875,0.609375 -0.105469,0.15625 -0.15625,0.355469 -0.15625,0.59375 0,0.449219 0.238281,0.792969 0.71875,1.03125 0.226563,0.125 0.710937,0.28125 1.453125,0.46875 0.738281,0.1875 1.273438,0.402344 1.609375,0.640625 0.457031,0.324219 0.6875,0.78125 0.6875,1.375 0,0.730469 -0.289063,1.28125 -0.859375,1.65625 -0.480469,0.3125 -1.074219,0.46875 -1.78125,0.46875 -1.605469,0 -2.539062,-0.609375 -2.796875,-1.828125 H 1.28125 c 0.132812,0.761719 0.769531,1.140625 1.90625,1.140625 0.800781,0 1.363281,-0.222656 1.6875,-0.671875 C 5,-1.394531 5.0625,-1.632812 5.0625,-1.9375 5.0625,-2.238281 4.945312,-2.484375 4.71875,-2.671875 4.382812,-2.941406 3.75,-3.191406 2.8125,-3.421875 Z m 0,0"
           id="path85" />
      </g>
    </g>
  </g>
  <g
     fill="#ffffff"
     fill-opacity="1"
     id="g94"
     transform="translate(-102.35481,-1.5742108)">
    <g
       transform="translate(216.82965,164.99426)"
       id="g93">
      <g
         id="g92">
        <path
           d="m 6.03125,-2.390625 c 0,0.78125 -0.257812,1.398437 -0.765625,1.84375 C 4.785156,-0.117188 4.144531,0.09375 3.34375,0.09375 c -0.8125,0 -1.460938,-0.210938 -1.9375,-0.640625 -0.511719,-0.445313 -0.765625,-1.0625 -0.765625,-1.84375 v -4.84375 h 0.75 v 4.953125 c 0,0.542969 0.195313,0.960938 0.59375,1.25 0.332031,0.25 0.785156,0.375 1.359375,0.375 0.882812,0 1.476562,-0.296875 1.78125,-0.890625 0.101562,-0.195313 0.15625,-0.441406 0.15625,-0.734375 v -4.953125 h 0.75 z m 0,0"
           id="path91" />
      </g>
    </g>
  </g>
  <g
     fill="#ffffff"
     fill-opacity="1"
     id="g97"
     transform="translate(-102.35481,-1.5742108)">
    <g
       transform="translate(228.14372,164.99426)"
       id="g96">
      <g
         id="g95">
        <path
           d="M 1.546875,-5.328125 V 0 h -0.75 v -7.6875 l 4.0625,5.765625 v -5.3125 h 0.75 v 7.6875 z m 0,0"
           id="path94" />
      </g>
    </g>
  </g>
  <g
     fill="#ffffff"
     fill-opacity="1"
     id="g100"
     transform="translate(-102.35481,-1.5742108)">
    <g
       transform="translate(239.19176,164.99426)"
       id="g99">
      <g
         id="g98">
        <path
           d="m 1.546875,0 h -0.75 v -7.234375 h 0.75 z m 0,0"
           id="path97" />
      </g>
    </g>
  </g>
  <g
     fill="#ffffff"
     fill-opacity="1"
     id="g103"
     transform="translate(-102.35481,-1.5742108)">
    <g
       transform="translate(246.17506,164.99426)"
       id="g102">
      <g
         id="g101">
        <path
           d="m 7.921875,-3.609375 c 0,0.511719 -0.101563,0.992187 -0.296875,1.4375 -0.199219,0.460937 -0.464844,0.855469 -0.796875,1.1875 -0.21875,0.21875 -0.464844,0.40625 -0.734375,0.5625 0.300781,-0.0625 0.582031,-0.125 0.84375,-0.1875 H 8.015625 V 0 H 5.09375 C 4.800781,0.0703125 4.5,0.109375 4.1875,0.109375 3.675781,0.109375 3.195312,0.0078125 2.75,-0.1875 2.300781,-0.382812 1.910156,-0.648438 1.578125,-0.984375 1.234375,-1.316406 0.96875,-1.710938 0.78125,-2.171875 0.582031,-2.617188 0.484375,-3.097656 0.484375,-3.609375 c 0,-0.507813 0.097656,-0.988281 0.296875,-1.4375 C 0.96875,-5.503906 1.234375,-5.90625 1.578125,-6.25 1.910156,-6.582031 2.300781,-6.847656 2.75,-7.046875 c 0.445312,-0.1875 0.925781,-0.28125 1.4375,-0.28125 0.507812,0 0.992188,0.09375 1.453125,0.28125 0.457031,0.199219 0.851563,0.464844 1.1875,0.796875 0.332031,0.34375 0.597656,0.746094 0.796875,1.203125 0.195312,0.449219 0.296875,0.929687 0.296875,1.4375 z m -0.75,0 c 0,-0.820313 -0.292969,-1.523437 -0.875,-2.109375 -0.585937,-0.582031 -1.289063,-0.875 -2.109375,-0.875 -0.8125,0 -1.511719,0.292969 -2.09375,0.875 -0.585938,0.585938 -0.875,1.289062 -0.875,2.109375 0,0.8125 0.289062,1.511719 0.875,2.09375 0.582031,0.585937 1.28125,0.875 2.09375,0.875 0.820312,0 1.523438,-0.289063 2.109375,-0.875 0.582031,-0.582031 0.875,-1.28125 0.875,-2.09375 z m 0,0"
           id="path100" />
      </g>
    </g>
  </g>
  <g
     fill="#ffffff"
     fill-opacity="1"
     id="g106"
     transform="translate(-102.35481,-1.5742108)">
    <g
       transform="translate(259.15971,164.99426)"
       id="g105">
      <g
         id="g104">
        <path
           d="m 6.03125,-2.390625 c 0,0.78125 -0.257812,1.398437 -0.765625,1.84375 C 4.785156,-0.117188 4.144531,0.09375 3.34375,0.09375 c -0.8125,0 -1.460938,-0.210938 -1.9375,-0.640625 -0.511719,-0.445313 -0.765625,-1.0625 -0.765625,-1.84375 v -4.84375 h 0.75 v 4.953125 c 0,0.542969 0.195313,0.960938 0.59375,1.25 0.332031,0.25 0.785156,0.375 1.359375,0.375 0.882812,0 1.476562,-0.296875 1.78125,-0.890625 0.101562,-0.195313 0.15625,-0.441406 0.15625,-0.734375 v -4.953125 h 0.75 z m 0,0"
           id="path103" />
      </g>
    </g>
  </g>
  <g
     fill="#ffffff"
     fill-opacity="1"
     id="g109"
     transform="translate(-102.35481,-1.5742108)">
    <g
       transform="translate(270.47377,164.99426)"
       id="g108">
      <g
         id="g107">
        <path
           d="M 5.09375,0 H 0.796875 V -7.234375 H 5.09375 v 0.6875 H 1.546875 v 2.578125 h 3.4375 v 0.703125 h -3.4375 V -0.6875 H 5.09375 Z m 0,0"
           id="path106" />
      </g>
    </g>
  </g>
  <g
     fill="#ffffff"
     fill-opacity="1"
     id="g112"
     transform="translate(-102.35481,-1.5742108)">
    <g
       transform="translate(281.01106,164.99426)"
       id="g111">
      <g
         id="g110">
        <path
           d="M 2.8125,-3.421875 C 1.332031,-3.753906 0.59375,-4.382812 0.59375,-5.3125 c 0,-0.675781 0.238281,-1.1875 0.71875,-1.53125 0.46875,-0.332031 1.023438,-0.5 1.671875,-0.5 1.40625,0 2.238281,0.527344 2.5,1.578125 H 4.6875 c -0.148438,-0.625 -0.714844,-0.9375 -1.703125,-0.9375 -0.699219,0 -1.1875,0.203125 -1.46875,0.609375 -0.105469,0.15625 -0.15625,0.355469 -0.15625,0.59375 0,0.449219 0.238281,0.792969 0.71875,1.03125 0.226563,0.125 0.710937,0.28125 1.453125,0.46875 0.738281,0.1875 1.273438,0.402344 1.609375,0.640625 0.457031,0.324219 0.6875,0.78125 0.6875,1.375 0,0.730469 -0.289063,1.28125 -0.859375,1.65625 -0.480469,0.3125 -1.074219,0.46875 -1.78125,0.46875 -1.605469,0 -2.539062,-0.609375 -2.796875,-1.828125 H 1.28125 c 0.132812,0.761719 0.769531,1.140625 1.90625,1.140625 0.800781,0 1.363281,-0.222656 1.6875,-0.671875 C 5,-1.394531 5.0625,-1.632812 5.0625,-1.9375 5.0625,-2.238281 4.945312,-2.484375 4.71875,-2.671875 4.382812,-2.941406 3.75,-3.191406 2.8125,-3.421875 Z m 0,0"
           id="path109" />
      </g>
    </g>
  </g>
  <path
     stroke-linecap="butt"
     fill="none"
     stroke-linejoin="miter"
     d="M 19.488943,144.60938 H 149.30145"
     stroke="#ffffff"
     stroke-width="0.75"
     stroke-opacity="1"
     stroke-miterlimit="4"
     id="path112" />
</svg>
